# Blender 5.2.2 LTS
# www.blender.org
mtllib livox_mid360.mtl
o livox_mid360_body_meshed
v 0.031018 -0.032432 -0.005000
v 0.030500 -0.032500 -0.030000
v 0.031018 -0.032432 -0.030000
v 0.030500 -0.032500 -0.005000
v -0.032432 -0.031018 -0.030000
v -0.030500 -0.032500 -0.030000
v -0.031018 -0.032432 -0.030000
v -0.031500 -0.032232 -0.030000
v -0.031914 -0.031914 -0.030000
v -0.032232 -0.031500 -0.030000
v 0.032500 -0.030500 -0.030000
v 0.032432 -0.031018 -0.030000
v 0.032232 -0.031500 -0.030000
v 0.031914 -0.031914 -0.030000
v 0.031500 -0.032232 -0.030000
v -0.032500 0.030500 -0.030000
v -0.031018 0.032432 -0.030000
v -0.032432 0.031018 -0.030000
v -0.032232 0.031500 -0.030000
v -0.031914 0.031914 -0.030000
v -0.031500 0.032232 -0.030000
v 0.031914 0.031914 -0.030000
v 0.032232 0.031500 -0.030000
v 0.032432 0.031018 -0.030000
v 0.030500 0.032500 -0.030000
v 0.031018 0.032432 -0.030000
v 0.031500 0.032232 -0.030000
v 0.031500 -0.032232 -0.005000
v 0.017511 -0.018537 0.003000
v 0.017452 -0.018592 0.003000
v 0.017569 -0.018482 0.003000
v 0.017627 -0.018426 0.003000
v -0.030500 -0.032500 -0.005000
v 0.031914 -0.031914 -0.005000
v 0.032232 -0.031500 -0.005000
v 0.032432 -0.031018 -0.005000
v 0.032500 -0.030500 -0.005000
v 0.032466 -0.000009 -0.005000
v 0.032432 0.031018 -0.005000
v 0.032232 0.031500 -0.005000
v 0.031914 0.031914 -0.005000
v 0.031500 0.032232 -0.005000
v 0.031018 0.032432 -0.005000
v 0.030500 0.032500 -0.005000
v -0.031018 0.032432 -0.005000
v -0.031500 0.032232 -0.005000
v -0.031914 0.031914 -0.005000
v -0.032232 0.031500 -0.005000
v -0.032432 0.031018 -0.005000
v -0.032500 0.030500 -0.005000
v -0.032432 -0.031018 -0.005000
v -0.032232 -0.031500 -0.005000
v -0.031914 -0.031914 -0.005000
v -0.031500 -0.032232 -0.005000
v -0.031018 -0.032432 -0.005000
v 0.017693 -0.018363 0.003000
v 0.017759 -0.018299 0.003000
v 0.017825 -0.018235 0.003000
v 0.025039 0.004826 0.009500
v 0.025500 0.000000 0.009500
v 0.025500 0.000000 0.003000
v 0.025037 0.004836 0.003000
v 0.023673 0.009477 0.009500
v 0.023665 0.009497 0.003000
v 0.021452 0.013786 0.009500
v 0.021435 0.013813 0.003000
v 0.018455 0.017597 0.009500
v 0.018426 0.017628 0.003000
v 0.018362 0.017694 0.003000
v 0.018299 0.017760 0.003000
v 0.018235 0.017826 0.003000
v 0.018166 0.017895 0.003000
v 0.018098 0.017965 0.003000
v 0.018029 0.018034 0.003000
v 0.017959 0.018103 0.003000
v 0.017890 0.018171 0.003000
v 0.017820 0.018240 0.003000
v 0.017755 0.018304 0.003000
v 0.017689 0.018367 0.003000
v 0.017622 0.018431 0.003000
v 0.017564 0.018486 0.003000
v 0.017506 0.018542 0.003000
v 0.017447 0.018597 0.003000
v 0.014791 0.020772 0.009500
v 0.013631 0.021551 0.003000
v 0.010593 0.023196 0.009500
v 0.009326 0.023734 0.003000
v 0.006012 0.024781 0.009500
v 0.004686 0.025066 0.003000
v 0.001213 0.025471 0.009500
v -0.000121 0.025500 0.003000
v -0.003629 0.025240 0.009500
v -0.004923 0.025020 0.003000
v -0.008340 0.024098 0.009500
v -0.009550 0.023644 0.003000
v -0.012750 0.022084 0.009500
v -0.013834 0.021421 0.003000
v -0.016699 0.019272 0.009500
v -0.017623 0.018431 0.003000
v -0.017689 0.018367 0.003000
v -0.017755 0.018303 0.003000
v -0.017821 0.018239 0.003000
v -0.017890 0.018171 0.003000
v -0.017960 0.018102 0.003000
v -0.018029 0.018034 0.003000
v -0.018098 0.017964 0.003000
v -0.018166 0.017895 0.003000
v -0.018235 0.017825 0.003000
v -0.018299 0.017760 0.003000
v -0.018363 0.017694 0.003000
v -0.018426 0.017627 0.003000
v -0.018482 0.017569 0.003000
v -0.020044 0.015763 0.009500
v -0.018537 0.017511 0.003000
v -0.018592 0.017452 0.003000
v -0.021548 0.013636 0.003000
v -0.022665 0.011685 0.009500
v -0.023732 0.009331 0.003000
v -0.024467 0.007184 0.009500
v -0.025065 0.004691 0.003000
v -0.025385 0.002424 0.009500
v -0.025500 -0.000117 0.003000
v -0.025385 -0.002424 0.009500
v -0.025021 -0.004921 0.003000
v -0.024467 -0.007184 0.009500
v -0.023645 -0.009548 0.003000
v -0.022665 -0.011685 0.009500
v -0.021422 -0.013833 0.003000
v -0.020044 -0.015763 0.009500
v -0.018431 -0.017622 0.003000
v -0.016699 -0.019272 0.009500
v -0.017453 -0.018592 0.003000
v -0.013661 -0.021532 0.003000
v -0.018368 -0.017688 0.003000
v -0.018304 -0.017754 0.003000
v -0.018240 -0.017820 0.003000
v -0.018171 -0.017890 0.003000
v -0.018103 -0.017959 0.003000
v -0.018034 -0.018029 0.003000
v -0.017965 -0.018098 0.003000
v -0.017895 -0.018166 0.003000
v -0.017826 -0.018235 0.003000
v -0.017760 -0.018299 0.003000
v -0.017694 -0.018362 0.003000
v -0.017628 -0.018426 0.003000
v -0.017569 -0.018481 0.003000
v -0.017511 -0.018537 0.003000
v -0.012750 -0.022084 0.009500
v -0.009385 -0.023710 0.003000
v -0.008340 -0.024098 0.009500
v -0.004777 -0.025049 0.003000
v -0.003629 -0.025240 0.009500
v 0.000000 -0.025500 0.003000
v 0.001213 -0.025471 0.009500
v 0.004777 -0.025049 0.003000
v 0.006012 -0.024781 0.009500
v 0.009385 -0.023710 0.003000
v 0.010593 -0.023196 0.009500
v 0.013660 -0.021532 0.003000
v 0.014791 -0.020772 0.009500
v 0.018455 -0.017597 0.009500
v 0.017895 -0.018167 0.003000
v 0.017964 -0.018098 0.003000
v 0.018034 -0.018029 0.003000
v 0.018102 -0.017960 0.003000
v 0.018171 -0.017890 0.003000
v 0.018239 -0.017821 0.003000
v 0.018303 -0.017755 0.003000
v 0.018367 -0.017689 0.003000
v 0.018431 -0.017623 0.003000
v 0.018486 -0.017564 0.003000
v 0.018542 -0.017506 0.003000
v 0.018597 -0.017448 0.003000
v 0.021452 -0.013786 0.009500
v 0.021535 -0.013656 0.003000
v 0.023673 -0.009477 0.009500
v 0.023711 -0.009382 0.003000
v 0.025039 -0.004826 0.009500
v 0.025049 -0.004775 0.003000
vn 0.1306 -0.9914 -0.0000
vn 0.1305 -0.9915 -0.0000
vn -0.0000 -0.0000 -1.0000
vn 0.3827 -0.9239 -0.0000
vn 0.3828 -0.9238 -0.0000
vn 0.2658 -0.2811 0.9221
vn 0.2652 -0.2816 0.9221
vn 0.0597 -0.4527 0.8897
vn 0.2662 -0.2807 0.9221
vn 0.2636 -0.2760 0.9243
vn 0.2633 -0.2762 0.9243
vn 0.2638 -0.2758 0.9243
vn -0.0000 -1.0000 -0.0000
vn 0.6089 -0.7933 -0.0000
vn 0.6088 -0.7933 -0.0000
vn 0.6092 -0.7930 -0.0000
vn 0.7933 -0.6089 -0.0000
vn 0.7933 -0.6088 -0.0000
vn 0.7930 -0.6092 -0.0000
vn 0.7931 -0.6092 -0.0000
vn 0.9238 -0.3828 -0.0000
vn 0.9239 -0.3827 -0.0000
vn 0.9914 -0.1306 -0.0000
vn 0.9915 -0.1305 -0.0000
vn 1.0000 0.0011 -0.0000
vn 0.9238 0.3828 -0.0000
vn 0.9239 0.3827 -0.0000
vn 0.7933 0.6088 -0.0000
vn 0.7931 0.6092 -0.0000
vn 0.7930 0.6092 -0.0000
vn 0.6089 0.7933 -0.0000
vn 0.6088 0.7933 -0.0000
vn 0.6092 0.7930 -0.0000
vn 0.3827 0.9239 -0.0000
vn 0.3828 0.9238 -0.0000
vn 0.1305 0.9915 -0.0000
vn 0.1306 0.9914 -0.0000
vn -0.0011 1.0000 -0.0000
vn -0.3827 0.9239 -0.0000
vn -0.3828 0.9238 -0.0000
vn -0.6089 0.7933 -0.0000
vn -0.6088 0.7933 -0.0000
vn -0.6092 0.7930 -0.0000
vn -0.7933 0.6089 -0.0000
vn -0.7933 0.6088 -0.0000
vn -0.7930 0.6092 -0.0000
vn -0.7931 0.6092 -0.0000
vn -0.9238 0.3828 -0.0000
vn -0.9239 0.3827 -0.0000
vn -0.9914 0.1306 -0.0000
vn -0.9915 0.1305 -0.0000
vn -1.0000 -0.0011 -0.0000
vn -0.9238 -0.3828 -0.0000
vn -0.9239 -0.3827 -0.0000
vn -0.7933 -0.6088 -0.0000
vn -0.7931 -0.6092 -0.0000
vn -0.7930 -0.6092 -0.0000
vn -0.6089 -0.7933 -0.0000
vn -0.6088 -0.7933 -0.0000
vn -0.6092 -0.7930 -0.0000
vn -0.3827 -0.9239 -0.0000
vn -0.3828 -0.9238 -0.0000
vn -0.1305 -0.9915 -0.0000
vn -0.1306 -0.9914 -0.0000
vn 0.2652 -0.2744 0.9243
vn 0.1543 -0.3731 0.9149
vn 0.2653 -0.2743 0.9243
vn 0.2647 -0.2705 0.9256
vn 0.2641 -0.2711 0.9256
vn 0.2657 -0.2694 0.9257
vn 0.9955 0.0952 -0.0001
vn 0.9955 0.0951 -0.0000
vn 0.9954 0.0953 -0.0002
vn 0.9594 0.2820 -0.0000
vn 0.9595 0.2818 -0.0000
vn 0.9593 0.2824 -0.0003
vn 0.9595 0.2818 0.0001
vn 0.8884 0.4590 -0.0002
vn 0.8886 0.4587 -0.0001
vn 0.8882 0.4594 -0.0006
vn 0.8889 0.4582 0.0003
vn 0.7853 0.6191 -0.0006
vn 0.7855 0.6188 -0.0001
vn 0.7852 0.6193 -0.0005
vn 0.7193 0.6947 0.0001
vn 0.7214 0.6926 -0.0000
vn 0.7189 0.6951 0.0001
vn 0.7123 0.7019 0.0006
vn 0.7163 0.6978 0.0002
vn 0.7153 0.6988 0.0003
vn 0.7124 0.7018 0.0005
vn 0.7094 0.7048 0.0008
vn 0.7083 0.7059 0.0010
vn 0.6989 0.7152 0.0028
vn 0.7056 0.7086 0.0013
vn 0.7047 0.7095 0.0015
vn 0.7006 0.7136 0.0022
vn 0.6986 0.7155 0.0025
vn 0.7861 0.6182 0.0005
vn 0.6976 0.7165 0.0027
vn 0.6927 0.7212 0.0039
vn 0.6950 0.7190 0.0033
vn 0.6939 0.7200 0.0035
vn 0.6915 0.7224 0.0041
vn 0.6885 0.7252 0.0048
vn 0.6859 0.7277 0.0055
vn 0.6853 0.7282 0.0057
vn 0.6121 0.7907 -0.0145
vn 0.6548 0.7557 0.0147
vn 0.4518 0.8920 -0.0144
vn 0.5000 0.8659 0.0145
vn 0.2759 0.9611 -0.0141
vn 0.3269 0.9449 0.0145
vn 0.0899 0.9959 -0.0140
vn 0.1423 0.9897 0.0144
vn -0.0995 0.9949 -0.0139
vn -0.0476 0.9988 0.0142
vn -0.2356 0.9718 0.0140
vn -0.2850 0.9584 -0.0139
vn -0.4154 0.9095 0.0138
vn -0.4605 0.8875 -0.0137
vn -0.5800 0.8145 0.0136
vn -0.6194 0.7849 -0.0135
vn -0.6924 0.7215 0.0051
vn -0.6961 0.7180 0.0072
vn -0.6949 0.7190 0.0058
vn -0.6973 0.7168 0.0070
vn -0.6980 0.7161 0.0068
vn -0.7006 0.7135 0.0078
vn -0.7029 0.7113 0.0084
vn -0.7096 0.7045 0.0110
vn -0.7056 0.7085 0.0094
vn -0.7063 0.7078 0.0097
vn -0.7093 0.7048 0.0109
vn -0.7133 0.7007 0.0131
vn -0.7137 0.7003 0.0128
vn -0.7195 0.6943 0.0156
vn -0.7163 0.6977 0.0140
vn -0.7179 0.6960 0.0148
vn -0.7198 0.6940 0.0158
vn -0.7216 0.6922 0.0169
vn -0.7246 0.6890 0.0175
vn -0.7264 0.6871 0.0163
vn -0.7263 0.6871 0.0163
vn -0.7279 0.6855 0.0155
vn -0.7904 0.6123 -0.0175
vn -0.8411 0.5406 0.0177
vn -0.8917 0.4524 -0.0175
vn -0.9282 0.3716 0.0178
vn -0.9610 0.2761 -0.0175
vn -0.9818 0.1893 0.0177
vn -0.9958 0.0901 -0.0176
vn -0.9998 -0.0000 0.0177
vn -0.9949 -0.0992 -0.0176
vn -0.9818 -0.1893 0.0178
vn -0.9584 -0.2850 -0.0175
vn -0.9282 -0.3716 0.0178
vn -0.8875 -0.4604 -0.0176
vn -0.8411 -0.5406 0.0178
vn -0.7848 -0.6195 -0.0176
vn -0.6127 -0.7902 -0.0116
vn -0.7207 -0.6931 0.0162
vn -0.7220 -0.6917 0.0170
vn -0.7196 -0.6942 0.0157
vn -0.7189 -0.6949 0.0153
vn -0.7103 -0.7038 0.0115
vn -0.7165 -0.6974 0.0141
vn -0.7142 -0.6999 0.0131
vn -0.7135 -0.7005 0.0129
vn -0.7095 -0.7046 0.0110
vn -0.7085 -0.7056 0.0106
vn -0.7019 -0.7123 0.0081
vn -0.7059 -0.7083 0.0095
vn -0.7049 -0.7092 0.0092
vn -0.7026 -0.7116 0.0084
vn -0.6988 -0.7152 0.0070
vn -0.6977 -0.7163 0.0067
vn -0.6872 -0.7265 0.0060
vn -0.6951 -0.7188 0.0058
vn -0.6945 -0.7194 0.0057
vn -0.6918 -0.7221 0.0049
vn -0.7237 -0.6899 0.0177
vn -0.6893 -0.7244 0.0043
vn -0.6866 -0.7270 0.0036
vn -0.6855 -0.7280 0.0033
vn -0.4538 -0.8910 -0.0121
vn -0.5800 -0.8145 0.0121
vn -0.2790 -0.9602 -0.0125
vn -0.4154 -0.9096 0.0125
vn -0.0940 -0.9955 -0.0127
vn -0.2359 -0.9717 0.0129
vn 0.0940 -0.9955 -0.0131
vn -0.0476 -0.9988 0.0133
vn 0.2790 -0.9602 -0.0134
vn 0.1423 -0.9897 0.0138
vn 0.4539 -0.8909 -0.0139
vn 0.3269 -0.9449 0.0140
vn 0.6127 -0.7902 -0.0142
vn 0.5000 -0.8659 0.0142
vn 0.6870 -0.7266 0.0048
vn 0.6855 -0.7280 0.0057
vn 0.6870 -0.7267 0.0053
vn 0.6887 -0.7250 0.0048
vn 0.6909 -0.7229 0.0042
vn 0.6946 -0.7194 0.0034
vn 0.6952 -0.7189 0.0032
vn 0.7038 -0.7104 0.0015
vn 0.6977 -0.7164 0.0027
vn 0.6994 -0.7147 0.0024
vn 0.7028 -0.7114 0.0013
vn 0.7033 -0.7109 0.0016
vn 0.7058 -0.7084 0.0013
vn 0.7105 -0.7037 0.0007
vn 0.7086 -0.7057 0.0009
vn 0.7095 -0.7047 0.0008
vn 0.7136 -0.7006 0.0004
vn 0.7163 -0.6978 0.0001
vn 0.7166 -0.6975 0.0002
vn 0.7258 -0.6879 -0.0000
vn 0.7190 -0.6950 0.0001
vn 0.7206 -0.6934 -0.0000
vn 0.7224 -0.6915 -0.0000
vn 0.7243 -0.6895 0.0001
vn 0.7273 -0.6864 -0.0000
vn 0.7282 -0.6854 0.0001
vn 0.6548 -0.7557 0.0146
vn 0.7899 -0.6133 -0.0021
vn 0.7863 -0.6178 0.0021
vn 0.7905 -0.6125 -0.0022
vn 0.7860 -0.6182 0.0030
vn 0.8909 -0.4542 -0.0013
vn 0.8890 -0.4579 0.0017
vn 0.8911 -0.4537 -0.0014
vn 0.8889 -0.4582 0.0022
vn 0.9603 -0.2791 -0.0004
vn 0.9596 -0.2814 0.0014
vn 0.9603 -0.2789 -0.0007
vn 0.9595 -0.2818 0.0015
vn 0.9956 -0.0942 -0.0000
vn 0.9955 -0.0945 0.0003
vn 0.9956 -0.0940 -0.0000
vn 0.9955 -0.0951 0.0008
vn -0.2379 -0.3069 0.9215
vn -0.1895 -0.3719 0.9087
vn -0.1360 -0.4680 0.8732
vn -0.0594 -0.6279 0.7760
vn 0.0594 -0.6279 0.7760
vn -0.0000 -0.7526 0.6585
vn 0.1360 -0.4680 0.8732
vn 0.1895 -0.3719 0.9087
vn 0.2379 -0.3069 0.9215
vn 0.2657 -0.2695 0.9256
vn 0.2317 -0.3016 0.9249
vn 0.2661 -0.2691 0.9256
vn 0.2668 -0.2668 0.9261
vn 0.2663 -0.2673 0.9261
vn 0.2666 -0.2669 0.9261
vn 0.2678 -0.2659 0.9261
vn 0.3018 -0.2318 0.9248
vn 0.2684 -0.2652 0.9261
vn 0.2706 -0.2645 0.9256
vn 0.2702 -0.2650 0.9256
vn 0.2718 -0.2633 0.9256
vn 0.2717 -0.2634 0.9256
vn 0.3736 -0.1547 0.9146
vn 0.2723 -0.2628 0.9256
vn 0.2757 -0.2638 0.9243
vn 0.2753 -0.2642 0.9243
vn 0.2766 -0.2629 0.9243
vn 0.2765 -0.2631 0.9243
vn 0.4540 -0.0596 0.8890
vn 0.2771 -0.2624 0.9243
vn 0.2817 -0.2652 0.9221
vn 0.3070 -0.2378 0.9215
vn 0.6741 0.0008 0.7386
vn 0.3720 -0.1894 0.9087
vn 0.7778 -0.2259 0.5865
vn 0.7522 -0.0710 0.6551
vn 0.7522 0.0720 0.6549
vn 0.6731 0.0007 0.7396
vn 0.7786 0.2292 0.5842
vn 0.3665 0.1893 0.9110
vn 0.3008 0.2372 0.9237
vn 0.2744 0.2652 0.9243
vn 0.2752 0.2643 0.9243
vn 0.2746 0.2651 0.9243
vn 0.3728 0.1547 0.9149
vn 0.2744 0.2653 0.9243
vn 0.2707 0.2645 0.9256
vn 0.2711 0.2641 0.9256
vn 0.2694 0.2657 0.9256
vn 0.2695 0.2656 0.9256
vn 0.3016 0.2317 0.9249
vn 0.2691 0.2661 0.9256
vn 0.2669 0.2668 0.9261
vn 0.2672 0.2664 0.9261
vn 0.2666 0.2670 0.9261
vn 0.2659 0.2678 0.9261
vn 0.2318 0.3018 0.9248
vn 0.2649 0.2688 0.9261
vn 0.2644 0.2708 0.9256
vn 0.2650 0.2701 0.9256
vn 0.2634 0.2717 0.9256
vn 0.1549 0.3734 0.9146
vn 0.2630 0.2721 0.9256
vn 0.2639 0.2757 0.9243
vn 0.2642 0.2754 0.9243
vn 0.2630 0.2766 0.9243
vn 0.2628 0.2767 0.9243
vn 0.0596 0.4540 0.8890
vn 0.2624 0.2771 0.9243
vn 0.2651 0.2817 0.9221
vn 0.2377 0.3071 0.9215
vn 0.1890 0.3727 0.9085
vn 0.1349 0.4701 0.8722
vn 0.0571 0.6327 0.7723
vn -0.0621 0.6231 0.7797
vn -0.0008 0.7542 0.6567
vn -0.1374 0.4620 0.8762
vn -0.1898 0.3658 0.9111
vn -0.2373 0.3007 0.9237
vn -0.2646 0.2750 0.9243
vn -0.2642 0.2754 0.9243
vn -0.1547 0.3728 0.9149
vn -0.2654 0.2742 0.9243
vn -0.2645 0.2706 0.9256
vn -0.2639 0.2712 0.9256
vn -0.2649 0.2702 0.9256
vn -0.2652 0.2700 0.9256
vn -0.2317 0.3016 0.9249
vn -0.2657 0.2695 0.9256
vn -0.2668 0.2668 0.9261
vn -0.2663 0.2674 0.9261
vn -0.2666 0.2670 0.9261
vn -0.2677 0.2659 0.9261
vn -0.3018 0.2318 0.9248
vn -0.2684 0.2652 0.9261
vn -0.2707 0.2645 0.9256
vn -0.2701 0.2650 0.9256
vn -0.2713 0.2638 0.9256
vn -0.2717 0.2634 0.9256
vn -0.3734 0.1549 0.9147
vn -0.2721 0.2630 0.9256
vn -0.2755 0.2640 0.9243
vn -0.2753 0.2643 0.9243
vn -0.2758 0.2638 0.9243
vn -0.2767 0.2628 0.9243
vn -0.4539 0.0596 0.8890
vn -0.2769 0.2626 0.9243
vn -0.2817 0.2651 0.9221
vn -0.3070 0.2378 0.9215
vn -0.3726 0.1890 0.9085
vn -0.4699 0.1350 0.8723
vn -0.6325 0.0572 0.7724
vn -0.6230 -0.0621 0.7798
vn -0.7542 -0.0008 0.6567
vn -0.4620 -0.1374 0.8762
vn -0.3658 -0.1898 0.9111
vn -0.3007 -0.2374 0.9237
vn -0.2746 -0.2650 0.9243
vn -0.2754 -0.2641 0.9243
vn -0.2747 -0.2650 0.9243
vn -0.3728 -0.1547 0.9149
vn -0.2743 -0.2653 0.9243
vn -0.2706 -0.2645 0.9256
vn -0.2711 -0.2641 0.9256
vn -0.2702 -0.2649 0.9256
vn -0.2700 -0.2652 0.9256
vn -0.3016 -0.2317 0.9249
vn -0.2692 -0.2660 0.9256
vn -0.2668 -0.2669 0.9261
vn -0.2674 -0.2663 0.9261
vn -0.2670 -0.2666 0.9261
vn -0.2660 -0.2677 0.9261
vn -0.2318 -0.3018 0.9248
vn -0.2653 -0.2683 0.9261
vn -0.2645 -0.2707 0.9256
vn -0.2650 -0.2701 0.9256
vn -0.2634 -0.2716 0.9257
vn -0.2636 -0.2715 0.9256
vn -0.1546 -0.3737 0.9146
vn -0.2631 -0.2720 0.9256
vn -0.2640 -0.2756 0.9243
vn -0.2643 -0.2753 0.9243
vn -0.2629 -0.2766 0.9243
vn -0.2632 -0.2764 0.9243
vn -0.0598 -0.4537 0.8891
vn -0.2625 -0.2770 0.9243
vn -0.2652 -0.2816 0.9221
vn -0.0000 -0.0000 1.0000
s 1
usemtl livox_mid360_body_color
f 1//1 2//2 3//1
f 1//1 4//2 2//2
f 5//3 6//3 7//3
f 5//3 7//3 8//3
f 5//3 8//3 9//3
f 5//3 9//3 10//3
f 11//3 12//3 13//3
f 11//3 13//3 14//3
f 11//3 14//3 15//3
f 11//3 15//3 3//3
f 11//3 3//3 2//3
f 16//3 6//3 5//3
f 17//3 16//3 18//3
f 17//3 18//3 19//3
f 17//3 19//3 20//3
f 17//3 20//3 21//3
f 22//3 23//3 24//3
f 25//3 2//3 6//3
f 25//3 26//3 27//3
f 25//3 27//3 22//3
f 25//3 24//3 11//3
f 25//3 11//3 2//3
f 25//3 6//3 16//3
f 25//3 16//3 17//3
f 25//3 22//3 24//3
f 28//4 3//4 15//5
f 28//4 1//5 3//4
f 29//6 30//7 4//6
f 31//8 4//8 1//8
f 31//9 29//6 4//6
f 32//10 31//11 1//12
f 4//13 6//13 2//13
f 4//13 33//13 6//13
f 34//14 15//15 14//16
f 34//14 28//14 15//15
f 35//17 14//18 13//19
f 35//17 34//20 14//18
f 36//21 13//21 12//22
f 36//21 35//21 13//21
f 37//23 12//24 11//23
f 37//23 36//23 12//24
f 38//25 37//25 11//25
f 24//25 38//25 11//25
f 39//25 38//25 24//25
f 40//26 24//27 23//26
f 40//26 39//27 24//27
f 41//28 23//28 22//29
f 41//28 40//30 23//28
f 42//31 22//32 27//33
f 42//31 41//31 22//32
f 43//34 27//34 26//35
f 43//34 42//34 27//34
f 44//36 26//36 25//36
f 44//36 43//37 26//36
f 45//38 25//38 17//38
f 45//38 44//38 25//38
f 46//39 17//39 21//40
f 46//39 45//40 17//39
f 47//41 21//42 20//43
f 47//41 46//41 21//42
f 48//44 20//45 19//46
f 48//44 47//47 20//45
f 49//48 19//48 18//49
f 49//48 48//48 19//48
f 50//50 18//51 16//50
f 50//50 49//50 18//51
f 51//52 16//52 5//52
f 51//52 50//52 16//52
f 52//53 5//54 10//53
f 52//53 51//54 5//54
f 53//55 10//55 9//56
f 53//55 52//57 10//55
f 54//58 9//59 8//60
f 54//58 53//58 9//59
f 55//61 8//61 7//62
f 55//61 54//61 8//61
f 33//63 7//63 6//63
f 33//63 55//64 7//63
f 56//65 32//10 1//12
f 57//66 1//66 28//66
f 57//67 56//65 1//12
f 58//68 57//69 28//70
f 59//71 60//72 61//71
f 59//71 61//71 62//73
f 63//74 62//75 64//76
f 63//74 59//77 62//75
f 65//78 64//79 66//80
f 65//78 63//81 64//79
f 67//82 66//83 68//84
f 67//85 68//86 69//85
f 67//85 69//85 70//87
f 67//88 70//89 71//90
f 67//88 71//90 72//91
f 67//88 72//91 73//92
f 67//88 73//92 74//93
f 67//94 74//95 75//96
f 67//94 75//96 76//97
f 67//94 76//97 77//98
f 67//82 65//99 66//83
f 67//94 77//98 78//100
f 67//101 78//102 79//103
f 67//101 79//103 80//104
f 67//101 80//104 81//105
f 67//101 81//105 82//106
f 67//101 82//106 83//107
f 84//108 83//108 85//108
f 84//109 67//109 83//109
f 86//110 85//110 87//110
f 86//111 84//111 85//111
f 88//112 87//112 89//112
f 88//113 86//113 87//113
f 90//114 89//114 91//114
f 90//115 88//115 89//115
f 92//116 91//116 93//116
f 92//117 90//117 91//117
f 94//118 92//118 93//118
f 94//119 93//119 95//119
f 96//120 94//120 95//120
f 96//121 95//121 97//121
f 98//122 96//122 97//122
f 98//123 97//123 99//123
f 98//124 99//124 100//124
f 98//125 100//126 101//127
f 98//125 101//127 102//128
f 98//125 102//128 103//129
f 98//125 103//129 104//130
f 98//131 104//132 105//133
f 98//131 105//133 106//134
f 98//131 106//134 107//135
f 98//131 107//135 108//136
f 98//137 108//138 109//139
f 98//137 109//139 110//140
f 98//137 110//140 111//141
f 98//137 111//141 112//142
f 113//143 98//137 112//142
f 113//143 112//142 114//144
f 113//143 114//144 115//145
f 113//146 115//146 116//146
f 117//147 113//147 116//147
f 117//148 116//148 118//148
f 119//149 117//149 118//149
f 119//150 118//150 120//150
f 121//151 119//151 120//151
f 121//152 120//152 122//152
f 123//153 121//153 122//153
f 123//154 122//154 124//154
f 125//155 123//155 124//155
f 125//156 124//156 126//156
f 127//157 125//157 126//157
f 127//158 126//158 128//158
f 129//159 127//159 128//159
f 129//160 128//160 130//160
f 131//161 132//161 133//161
f 131//162 130//163 134//164
f 131//162 134//164 135//165
f 131//166 135//167 136//168
f 131//166 136//168 137//169
f 131//166 137//169 138//170
f 131//166 138//170 139//171
f 131//172 139//173 140//174
f 131//172 140//174 141//175
f 131//172 141//175 142//176
f 131//172 142//176 143//177
f 131//178 143//179 144//180
f 131//178 144//180 145//181
f 131//162 129//182 130//163
f 131//178 145//181 146//183
f 131//178 146//183 147//184
f 131//178 147//184 132//185
f 148//186 133//186 149//186
f 148//187 131//187 133//187
f 150//188 149//188 151//188
f 150//189 148//189 149//189
f 152//190 151//190 153//190
f 152//191 150//191 151//191
f 154//192 153//192 155//192
f 154//193 152//193 153//193
f 156//194 155//194 157//194
f 156//195 154//195 155//195
f 158//196 157//196 159//196
f 158//197 156//197 157//197
f 160//198 159//198 30//198
f 160//199 158//199 159//199
f 161//200 30//201 29//202
f 161//200 29//202 31//203
f 161//200 31//203 32//204
f 161//200 32//204 56//205
f 161//200 56//205 57//206
f 161//207 57//208 58//209
f 161//207 58//209 162//210
f 161//207 162//210 163//211
f 161//207 163//211 164//212
f 161//213 164//214 165//215
f 161//213 165//215 166//216
f 161//213 166//216 167//217
f 161//213 167//217 168//218
f 161//219 168//220 169//221
f 161//219 169//221 170//222
f 161//219 170//222 171//223
f 161//219 171//223 172//224
f 161//219 172//224 173//225
f 161//226 160//226 30//226
f 174//227 173//228 175//229
f 174//227 161//230 173//228
f 176//231 175//232 177//233
f 176//231 174//234 175//232
f 178//235 177//236 179//237
f 178//235 176//238 177//236
f 60//239 179//240 61//241
f 60//239 178//242 179//240
f 133//243 132//243 33//243
f 149//244 133//244 33//244
f 151//245 149//245 33//245
f 153//246 151//246 33//246
f 4//247 155//247 153//247
f 4//248 153//248 33//248
f 157//249 155//249 4//249
f 159//250 157//250 4//250
f 30//251 159//251 4//251
f 162//252 58//68 28//70
f 163//253 28//253 34//253
f 163//254 162//252 28//70
f 164//255 163//256 34//257
f 165//258 164//255 34//257
f 166//259 34//259 35//259
f 166//260 165//258 34//257
f 167//261 166//262 35//263
f 168//264 167//261 35//263
f 169//265 35//265 36//265
f 169//266 168//264 35//263
f 170//267 169//268 36//269
f 171//270 170//267 36//269
f 172//271 36//271 37//271
f 172//272 171//270 36//269
f 173//273 172//273 37//273
f 175//274 173//274 37//274
f 177//275 37//275 38//275
f 177//276 175//276 37//276
f 179//277 177//277 38//277
f 61//278 179//278 38//278
f 62//279 61//279 38//279
f 64//280 38//280 39//280
f 64//281 62//281 38//281
f 66//282 64//282 39//282
f 68//283 66//283 39//283
f 69//284 68//285 39//286
f 70//287 39//287 40//287
f 70//288 69//284 39//286
f 71//289 70//290 40//291
f 72//292 71//289 40//291
f 73//293 40//293 41//293
f 73//294 72//292 40//291
f 74//295 73//296 41//297
f 75//298 74//295 41//297
f 76//299 41//299 42//299
f 76//300 75//298 41//297
f 77//301 76//302 42//303
f 78//303 77//301 42//303
f 79//304 42//304 43//304
f 79//305 78//303 42//303
f 80//306 79//307 43//308
f 81//309 80//306 43//308
f 82//310 43//310 44//310
f 82//311 81//309 43//308
f 83//312 82//312 44//312
f 85//313 83//313 44//313
f 87//314 85//314 44//314
f 89//315 87//315 44//315
f 91//316 89//316 44//316
f 45//317 93//317 91//317
f 45//318 91//318 44//318
f 95//319 93//319 45//319
f 97//320 95//320 45//320
f 99//321 97//321 45//321
f 100//322 99//323 45//322
f 101//324 45//324 46//324
f 101//325 100//322 45//322
f 102//326 101//327 46//328
f 103//329 102//326 46//328
f 104//330 46//330 47//330
f 104//331 103//329 46//328
f 105//332 104//333 47//334
f 106//335 105//332 47//334
f 107//336 47//336 48//336
f 107//337 106//335 47//334
f 108//338 107//339 48//340
f 109//341 108//338 48//340
f 110//342 48//342 49//342
f 110//343 109//341 48//340
f 111//344 110//345 49//346
f 112//347 111//344 49//346
f 114//348 49//348 50//348
f 114//349 112//347 49//346
f 115//350 114//350 50//350
f 116//351 115//351 50//351
f 118//352 116//352 50//352
f 120//353 118//353 50//353
f 122//354 120//354 50//354
f 51//355 124//355 122//355
f 51//356 122//356 50//356
f 126//357 124//357 51//357
f 128//358 126//358 51//358
f 130//359 128//359 51//359
f 134//360 130//361 51//362
f 135//363 51//363 52//363
f 135//364 134//360 51//362
f 136//365 135//366 52//367
f 137//368 136//365 52//367
f 138//369 52//369 53//369
f 138//370 137//368 52//367
f 139//371 138//372 53//373
f 140//374 139//371 53//373
f 141//375 53//375 54//375
f 141//376 140//374 53//373
f 142//377 141//378 54//379
f 143//380 142//377 54//379
f 144//381 54//381 55//381
f 144//382 143//380 54//379
f 145//383 144//384 55//385
f 146//386 145//383 55//385
f 147//387 55//387 33//387
f 147//388 146//386 55//385
f 132//389 147//389 33//389
f 67//390 60//390 59//390
f 67//390 59//390 63//390
f 67//390 63//390 65//390
f 67//390 84//390 86//390
f 67//390 86//390 88//390
f 67//390 88//390 90//390
f 67//390 90//390 92//390
f 67//390 92//390 94//390
f 67//390 94//390 96//390
f 67//390 96//390 98//390
f 67//390 98//390 113//390
f 67//390 113//390 117//390
f 67//390 117//390 119//390
f 67//390 119//390 121//390
f 67//390 121//390 123//390
f 67//390 123//390 125//390
f 67//390 125//390 127//390
f 67//390 127//390 129//390
f 67//390 129//390 131//390
f 67//390 131//390 148//390
f 67//390 148//390 150//390
f 67//390 150//390 152//390
f 67//390 152//390 154//390
f 67//390 154//390 156//390
f 67//390 156//390 158//390
f 67//390 158//390 160//390
f 67//390 160//390 161//390
f 67//390 161//390 174//390
f 67//390 174//390 176//390
f 67//390 176//390 178//390
f 67//390 178//390 60//390
o livox_mid360_dome_meshed
v 0.021686 0.001707 0.012786
v 0.021562 0.000000 0.013869
v 0.022000 0.000000 0.009500
v 0.021448 0.004895 0.009500
v 0.021152 0.005078 0.012786
v 0.020760 0.003288 0.015998
v 0.020265 0.000000 0.018063
v 0.020097 0.008325 0.012786
v 0.019821 0.009545 0.009500
v 0.019751 0.001554 0.019065
v 0.018161 0.000000 0.021917
v 0.019990 0.006495 0.015998
v 0.018548 0.011366 0.012786
v 0.017200 0.013717 0.009500
v 0.019265 0.004625 0.019065
v 0.018728 0.009542 0.015998
v 0.016541 0.014128 0.012786
v 0.017938 0.002841 0.021917
v 0.018304 0.007582 0.019065
v 0.017004 0.012354 0.015998
v 0.014128 0.016541 0.012786
v 0.013717 0.017200 0.009500
v 0.016053 0.001263 0.024490
v 0.015334 0.000000 0.025276
v 0.017272 0.005612 0.021917
v 0.016893 0.010352 0.019065
v 0.014862 0.014862 0.015998
v 0.011366 0.018548 0.012786
v 0.009545 0.019821 0.009500
v 0.015658 0.003759 0.024490
v 0.016182 0.008245 0.021917
v 0.015065 0.012867 0.019065
v 0.012354 0.017004 0.015998
v 0.008325 0.020097 0.012786
v 0.004895 0.021448 0.009500
v 0.013515 0.002141 0.026727
v 0.011896 0.000000 0.028006
v 0.014877 0.006162 0.024490
v 0.014693 0.010675 0.021917
v 0.012867 0.015065 0.019065
v 0.009542 0.018728 0.015998
v 0.010923 0.000860 0.028577
v 0.007984 0.000000 0.030000
v 0.005078 0.021152 0.012786
v 0.013014 0.004228 0.026727
v 0.013730 0.008414 0.024490
v 0.012842 0.012842 0.021917
v 0.010352 0.016893 0.019065
v 0.006495 0.019990 0.015998
v 0.010654 0.002558 0.028577
v 0.006717 0.004317 0.030000
v 0.001707 0.021686 0.012786
v 0.000000 0.022000 0.009500
v 0.012192 0.006212 0.026727
v 0.012245 0.010458 0.024490
v 0.010675 0.014693 0.021917
v 0.007582 0.018304 0.019065
v 0.003288 0.020760 0.015998
v 0.010123 0.004193 0.028577
v -0.001707 0.021686 0.012786
v -0.004895 0.021448 0.009500
v 0.011070 0.008043 0.026727
v 0.010458 0.012245 0.024490
v 0.008245 0.016182 0.021917
v 0.004625 0.019265 0.019065
v 0.000000 0.021018 0.015998
v 0.009342 0.005725 0.028577
v -0.005078 0.021152 0.012786
v 0.009676 0.009676 0.026727
v 0.008414 0.013730 0.024490
v 0.005612 0.017272 0.021917
v 0.001554 0.019751 0.019065
v -0.003288 0.020760 0.015998
v 0.008332 0.007116 0.028577
v -0.008325 0.020097 0.012786
v -0.009545 0.019821 0.009500
v 0.008043 0.011070 0.026727
v 0.006162 0.014877 0.024490
v 0.002841 0.017938 0.021917
v -0.001554 0.019751 0.019065
v -0.006495 0.019990 0.015998
v 0.007116 0.008332 0.028577
v 0.003317 0.007263 0.030000
v -0.011366 0.018548 0.012786
v -0.013717 0.017200 0.009500
v 0.006212 0.012192 0.026727
v 0.003759 0.015658 0.024490
v 0.000000 0.018161 0.021917
v -0.004625 0.019265 0.019065
v -0.009542 0.018728 0.015998
v 0.005725 0.009342 0.028577
v -0.014128 0.016541 0.012786
v 0.004228 0.013014 0.026727
v 0.001263 0.016053 0.024490
v -0.002841 0.017938 0.021917
v -0.007582 0.018304 0.019065
v -0.012354 0.017004 0.015998
v 0.004193 0.010123 0.028577
v -0.016541 0.014128 0.012786
v -0.017200 0.013717 0.009500
v 0.002141 0.013515 0.026727
v -0.001263 0.016053 0.024490
v -0.005612 0.017272 0.021917
v -0.010352 0.016893 0.019065
v -0.014862 0.014862 0.015998
v 0.002558 0.010654 0.028577
v -0.018548 0.011366 0.012786
v -0.019821 0.009545 0.009500
v 0.000000 0.013683 0.026727
v -0.003759 0.015658 0.024490
v -0.008245 0.016182 0.021917
v -0.012867 0.015065 0.019065
v -0.017004 0.012354 0.015998
v 0.000860 0.010923 0.028577
v -0.001136 0.007903 0.030000
v -0.020097 0.008325 0.012786
v -0.021448 0.004895 0.009500
v -0.002141 0.013515 0.026727
v -0.006162 0.014877 0.024490
v -0.010675 0.014693 0.021917
v -0.015065 0.012867 0.019065
v -0.018728 0.009542 0.015998
v -0.000860 0.010923 0.028577
v -0.021152 0.005078 0.012786
v -0.004228 0.013014 0.026727
v -0.008414 0.013730 0.024490
v -0.012842 0.012842 0.021917
v -0.016893 0.010352 0.019065
v -0.019990 0.006495 0.015998
v -0.002558 0.010654 0.028577
v -0.021686 0.001707 0.012786
v -0.022000 0.000000 0.009500
v -0.006212 0.012192 0.026727
v -0.010458 0.012245 0.024490
v -0.014693 0.010675 0.021917
v -0.018304 0.007582 0.019065
v -0.020760 0.003288 0.015998
v -0.004193 0.010123 0.028577
v -0.005229 0.006034 0.030000
v -0.021686 -0.001707 0.012786
v -0.021448 -0.004895 0.009500
v -0.008043 0.011070 0.026727
v -0.012245 0.010458 0.024490
v -0.016182 0.008245 0.021917
v -0.019265 0.004625 0.019065
v -0.021018 0.000000 0.015998
v -0.005725 0.009342 0.028577
v -0.021152 -0.005078 0.012786
v -0.009676 0.009676 0.026727
v -0.013730 0.008414 0.024490
v -0.017272 0.005612 0.021917
v -0.019751 0.001554 0.019065
v -0.020760 -0.003288 0.015998
v -0.007116 0.008332 0.028577
v -0.020097 -0.008325 0.012786
v -0.019821 -0.009545 0.009500
v -0.011070 0.008043 0.026727
v -0.014877 0.006162 0.024490
v -0.017938 0.002841 0.021917
v -0.019751 -0.001554 0.019065
v -0.019990 -0.006495 0.015998
v -0.008332 0.007116 0.028577
v -0.018548 -0.011366 0.012786
v -0.017200 -0.013717 0.009500
v -0.012192 0.006212 0.026727
v -0.015658 0.003759 0.024490
v -0.018161 0.000000 0.021917
v -0.019265 -0.004625 0.019065
v -0.018728 -0.009542 0.015998
v -0.009342 0.005725 0.028577
v -0.007661 0.002249 0.030000
v -0.016541 -0.014128 0.012786
v -0.013014 0.004228 0.026727
v -0.016053 0.001263 0.024490
v -0.017938 -0.002841 0.021917
v -0.018304 -0.007582 0.019065
v -0.017004 -0.012354 0.015998
v -0.010123 0.004193 0.028577
v -0.014128 -0.016541 0.012786
v -0.013717 -0.017200 0.009500
v -0.013515 0.002141 0.026727
v -0.016053 -0.001263 0.024490
v -0.017272 -0.005612 0.021917
v -0.016893 -0.010352 0.019065
v -0.014862 -0.014862 0.015998
v -0.010654 0.002558 0.028577
v -0.011366 -0.018548 0.012786
v -0.009545 -0.019821 0.009500
v -0.013683 0.000000 0.026727
v -0.015658 -0.003759 0.024490
v -0.016182 -0.008245 0.021917
v -0.015065 -0.012867 0.019065
v -0.012354 -0.017004 0.015998
v -0.010923 0.000860 0.028577
v -0.008325 -0.020097 0.012786
v -0.004895 -0.021448 0.009500
v -0.013515 -0.002141 0.026727
v -0.014877 -0.006162 0.024490
v -0.014693 -0.010675 0.021917
v -0.012867 -0.015065 0.019065
v -0.009542 -0.018728 0.015998
v -0.010923 -0.000860 0.028577
v -0.007661 -0.002249 0.030000
v -0.005078 -0.021152 0.012786
v -0.013014 -0.004228 0.026727
v -0.013730 -0.008414 0.024490
v -0.012842 -0.012842 0.021917
v -0.010352 -0.016893 0.019065
v -0.006495 -0.019990 0.015998
v -0.010654 -0.002558 0.028577
v -0.001707 -0.021686 0.012786
v 0.000000 -0.022000 0.009500
v -0.012192 -0.006212 0.026727
v -0.012245 -0.010458 0.024490
v -0.010675 -0.014693 0.021917
v -0.007582 -0.018304 0.019065
v -0.003288 -0.020760 0.015998
v -0.010123 -0.004193 0.028577
v 0.001707 -0.021686 0.012786
v 0.004895 -0.021448 0.009500
v -0.011070 -0.008043 0.026727
v -0.010458 -0.012245 0.024490
v -0.008245 -0.016182 0.021917
v -0.004625 -0.019265 0.019065
v 0.000000 -0.021018 0.015998
v -0.009342 -0.005725 0.028577
v -0.005229 -0.006034 0.030000
v 0.005078 -0.021152 0.012786
v -0.009676 -0.009676 0.026727
v -0.008414 -0.013730 0.024490
v -0.005612 -0.017272 0.021917
v -0.001554 -0.019751 0.019065
v 0.003288 -0.020760 0.015998
v -0.008332 -0.007116 0.028577
v 0.008325 -0.020097 0.012786
v 0.009545 -0.019821 0.009500
v -0.008043 -0.011070 0.026727
v -0.006162 -0.014877 0.024490
v -0.002841 -0.017938 0.021917
v 0.001554 -0.019751 0.019065
v 0.006495 -0.019990 0.015998
v -0.007116 -0.008332 0.028577
v 0.011366 -0.018548 0.012786
v 0.013717 -0.017200 0.009500
v -0.006212 -0.012192 0.026727
v -0.003759 -0.015658 0.024490
v 0.000000 -0.018161 0.021917
v 0.004625 -0.019265 0.019065
v 0.009542 -0.018728 0.015998
v -0.005725 -0.009342 0.028577
v 0.014128 -0.016541 0.012786
v -0.004228 -0.013014 0.026727
v -0.001263 -0.016053 0.024490
v 0.002841 -0.017938 0.021917
v 0.007582 -0.018304 0.019065
v 0.012354 -0.017004 0.015998
v -0.004193 -0.010123 0.028577
v -0.001136 -0.007903 0.030000
v 0.016541 -0.014128 0.012786
v 0.017200 -0.013717 0.009500
v -0.002141 -0.013515 0.026727
v 0.001263 -0.016053 0.024490
v 0.005612 -0.017272 0.021917
v 0.010352 -0.016893 0.019065
v 0.014862 -0.014862 0.015998
v -0.002558 -0.010654 0.028577
v 0.018548 -0.011366 0.012786
v 0.019821 -0.009545 0.009500
v 0.000000 -0.013683 0.026727
v 0.003759 -0.015658 0.024490
v 0.008245 -0.016182 0.021917
v 0.012867 -0.015065 0.019065
v 0.017004 -0.012354 0.015998
v -0.000860 -0.010923 0.028577
v 0.020097 -0.008325 0.012786
v 0.021448 -0.004895 0.009500
v 0.002141 -0.013515 0.026727
v 0.006162 -0.014877 0.024490
v 0.010675 -0.014693 0.021917
v 0.015065 -0.012867 0.019065
v 0.018728 -0.009542 0.015998
v 0.000860 -0.010923 0.028577
v 0.003317 -0.007263 0.030000
v 0.021152 -0.005078 0.012786
v 0.004228 -0.013014 0.026727
v 0.008414 -0.013730 0.024490
v 0.012842 -0.012842 0.021917
v 0.016893 -0.010352 0.019065
v 0.019990 -0.006495 0.015998
v 0.002558 -0.010654 0.028577
v 0.021686 -0.001707 0.012786
v 0.006212 -0.012192 0.026727
v 0.010458 -0.012245 0.024490
v 0.014693 -0.010675 0.021917
v 0.018304 -0.007582 0.019065
v 0.020760 -0.003288 0.015998
v 0.004193 -0.010123 0.028577
v 0.008043 -0.011070 0.026727
v 0.012245 -0.010458 0.024490
v 0.016182 -0.008245 0.021917
v 0.019265 -0.004625 0.019065
v 0.005725 -0.009342 0.028577
v 0.009676 -0.009676 0.026727
v 0.013730 -0.008414 0.024490
v 0.017272 -0.005612 0.021917
v 0.019751 -0.001554 0.019065
v 0.007116 -0.008332 0.028577
v 0.006717 -0.004317 0.030000
v 0.011070 -0.008043 0.026727
v 0.014877 -0.006162 0.024490
v 0.017938 -0.002841 0.021917
v 0.008332 -0.007116 0.028577
v 0.012192 -0.006212 0.026727
v 0.015658 -0.003759 0.024490
v 0.009342 -0.005725 0.028577
v 0.013014 -0.004228 0.026727
v 0.016053 -0.001263 0.024490
v 0.010123 -0.004193 0.028577
v 0.013515 -0.002141 0.026727
v 0.010654 -0.002558 0.028577
v 0.010923 -0.000860 0.028577
vn 0.9950 -0.0090 0.0997
vn 0.9930 0.1120 0.0367
vn 0.9845 0.1560 0.0800
vn 0.9670 0.1532 0.2034
vn 0.9545 0.0417 0.2952
vn 0.9676 0.0812 0.2392
vn 0.9430 0.3300 0.0433
vn 0.9488 0.3083 0.0683
vn 0.8775 -0.0183 0.4792
vn 0.9323 0.0811 0.3525
vn 0.9435 0.2265 0.2417
vn 0.9312 0.3026 0.2034
vn 0.8463 0.5317 0.0332
vn 0.8872 0.4519 0.0933
vn 0.9128 0.1445 0.3820
vn 0.9113 0.2188 0.3488
vn 0.8965 0.3714 0.2417
vn 0.8722 0.4447 0.2037
vn 0.8058 0.5855 0.0884
vn 0.8555 0.0671 0.5135
vn 0.8628 0.1365 0.4868
vn 0.8789 0.2856 0.3819
vn 0.8658 0.3586 0.3489
vn 0.7920 0.5755 0.2037
vn 0.8273 0.5072 0.2417
vn 0.7061 0.7061 0.0533
vn 0.7867 0.0618 0.6142
vn 0.7646 -0.0348 0.6435
vn 0.8343 0.2005 0.5136
vn 0.8306 0.2699 0.4870
vn 0.7990 0.4899 0.3487
vn 0.8235 0.4195 0.3819
vn 0.7379 0.6303 0.2414
vn 0.6923 0.6923 0.2037
vn 0.5317 0.8463 0.0332
vn 0.5855 0.8058 0.0884
vn 0.7640 0.1209 0.6338
vn 0.7673 0.1844 0.6142
vn 0.7783 0.3965 0.4869
vn 0.7927 0.3287 0.5135
vn 0.7127 0.6087 0.3488
vn 0.7477 0.5431 0.3821
vn 0.5755 0.7920 0.2037
vn 0.6303 0.7379 0.2414
vn 0.3300 0.9430 0.0433
vn 0.4521 0.8871 0.0935
vn 0.6219 -0.0024 0.7831
vn 0.6237 -0.0000 0.7817
vn 0.6780 0.1073 0.7272
vn 0.6736 0.0738 0.7354
vn 0.7357 0.2391 0.6337
vn 0.7292 0.3019 0.6142
vn 0.7066 0.5136 0.4869
vn 0.7316 0.4483 0.5136
vn 0.6535 0.6535 0.3818
vn 0.6087 0.7127 0.3488
vn 0.5072 0.8273 0.2417
vn 0.4444 0.8724 0.2035
vn 0.4528 -0.0775 0.8883
vn 0.5546 0.0776 0.8285
vn 0.5540 0.0763 0.8290
vn 0.5549 0.0777 0.8283
vn 0.3083 0.9488 0.0683
vn 0.6540 0.1570 0.7400
vn 0.6529 0.2122 0.7272
vn 0.6893 0.3511 0.6338
vn 0.6729 0.4123 0.6142
vn 0.6177 0.6177 0.4868
vn 0.6525 0.5573 0.5135
vn 0.5432 0.7477 0.3820
vn 0.4899 0.7990 0.3487
vn 0.3713 0.8966 0.2414
vn 0.3026 0.9312 0.2034
vn 0.3817 0.1120 0.9175
vn 0.4190 0.0664 0.9055
vn 0.5499 0.0871 0.8307
vn 0.5520 0.1325 0.8232
vn 0.1120 0.9930 0.0367
vn 0.1560 0.9845 0.0800
vn 0.6214 0.2574 0.7400
vn 0.6117 0.3115 0.7272
vn 0.6258 0.4547 0.6338
vn 0.6001 0.5126 0.6142
vn 0.5573 0.6525 0.5135
vn 0.5136 0.7066 0.4869
vn 0.4195 0.8235 0.3819
vn 0.3586 0.8658 0.3489
vn 0.2265 0.9435 0.2417
vn 0.1531 0.9670 0.2037
vn 0.5295 0.1720 0.8307
vn 0.5243 0.2172 0.8234
vn 0.3860 0.1255 0.9139
vn -0.0000 0.9955 0.0951
vn -0.1120 0.9930 0.0367
vn 0.5734 0.3514 0.7401
vn 0.5553 0.4034 0.7272
vn 0.5470 0.5470 0.6337
vn 0.5126 0.6001 0.6142
vn 0.4483 0.7316 0.5136
vn 0.3965 0.7783 0.4869
vn 0.2856 0.8789 0.3819
vn 0.2188 0.9113 0.3488
vn -0.0000 0.9791 0.2036
vn 0.0759 0.9674 0.2415
vn 0.4960 0.2529 0.8307
vn 0.3841 0.1958 0.9023
vn 0.4841 0.2966 0.8232
vn -0.1560 0.9845 0.0800
vn 0.5115 0.4366 0.7401
vn 0.4854 0.4854 0.7271
vn 0.4123 0.6729 0.6142
vn 0.4547 0.6258 0.6338
vn 0.3282 0.7928 0.5136
vn 0.2699 0.8306 0.4870
vn 0.1445 0.9128 0.3820
vn 0.0733 0.9343 0.3488
vn -0.0759 0.9674 0.2415
vn -0.1531 0.9670 0.2037
vn 0.4316 0.3684 0.8234
vn 0.4505 0.3271 0.8307
vn 0.3514 0.2552 0.9008
vn -0.3300 0.9430 0.0433
vn -0.3083 0.9488 0.0683
vn 0.4366 0.5115 0.7401
vn 0.4034 0.5553 0.7272
vn 0.3511 0.6893 0.6338
vn 0.3019 0.7292 0.6142
vn 0.2001 0.8344 0.5135
vn 0.1365 0.8628 0.4868
vn -0.0733 0.9343 0.3488
vn -0.0000 0.9242 0.3818
vn -0.2265 0.9435 0.2417
vn -0.3026 0.9312 0.2034
vn 0.2596 0.2996 0.9181
vn 0.2933 0.2933 0.9099
vn 0.3937 0.3937 0.8307
vn 0.3684 0.4316 0.8234
vn -0.5317 0.8463 0.0332
vn -0.4521 0.8871 0.0935
vn 0.3115 0.6117 0.7272
vn 0.3514 0.5734 0.7401
vn 0.1844 0.7673 0.6142
vn 0.2391 0.7357 0.6337
vn 0.0671 0.8555 0.5135
vn -0.0000 0.8734 0.4869
vn -0.1445 0.9128 0.3820
vn -0.2188 0.9113 0.3488
vn -0.3714 0.8965 0.2417
vn -0.4444 0.8724 0.2035
vn 0.2453 0.3378 0.9087
vn 0.3271 0.4505 0.8307
vn 0.2965 0.4838 0.8234
vn -0.5855 0.8058 0.0884
vn 0.2122 0.6529 0.7272
vn 0.2574 0.6214 0.7400
vn 0.0618 0.7867 0.6142
vn 0.1209 0.7640 0.6338
vn -0.1365 0.8628 0.4868
vn -0.0671 0.8555 0.5135
vn -0.3586 0.8658 0.3489
vn -0.2856 0.8789 0.3819
vn -0.5755 0.7920 0.2037
vn -0.5072 0.8273 0.2417
vn 0.2529 0.4960 0.8307
vn 0.2172 0.5247 0.8231
vn 0.1975 0.3875 0.9004
vn -0.7061 0.7061 0.0533
vn 0.1073 0.6780 0.7272
vn 0.1570 0.6540 0.7400
vn -0.0000 0.7735 0.6337
vn -0.0618 0.7867 0.6142
vn -0.2699 0.8306 0.4870
vn -0.2005 0.8343 0.5136
vn -0.4899 0.7990 0.3487
vn -0.4195 0.8235 0.3819
vn -0.6923 0.6923 0.2037
vn -0.6303 0.7379 0.2414
vn 0.1327 0.4086 0.9030
vn 0.1720 0.5295 0.8307
vn 0.1325 0.5518 0.8234
vn -0.8463 0.5317 0.0332
vn -0.8058 0.5855 0.0884
vn 0.0526 0.6705 0.7401
vn -0.0000 0.6864 0.7272
vn -0.1209 0.7640 0.6338
vn -0.1844 0.7673 0.6142
vn -0.3282 0.7928 0.5136
vn -0.3965 0.7783 0.4869
vn -0.6087 0.7127 0.3488
vn -0.5434 0.7476 0.3818
vn -0.7379 0.6303 0.2414
vn -0.7920 0.5755 0.2037
vn 0.0631 0.3971 0.9156
vn 0.0567 0.3946 0.9171
vn 0.0621 0.3973 0.9156
vn 0.0630 0.3979 0.9153
vn 0.0871 0.5499 0.8307
vn 0.0448 0.5660 0.8232
vn -0.9430 0.3300 0.0433
vn -0.8871 0.4521 0.0935
vn -0.0526 0.6705 0.7401
vn -0.1073 0.6780 0.7272
vn -0.3019 0.7292 0.6142
vn -0.2391 0.7357 0.6337
vn -0.4483 0.7316 0.5136
vn -0.5136 0.7066 0.4869
vn -0.6535 0.6535 0.3818
vn -0.7127 0.6087 0.3488
vn -0.8273 0.5072 0.2417
vn -0.8722 0.4447 0.2037
vn -0.0000 0.4262 0.9046
vn -0.0000 0.5568 0.8307
vn -0.0448 0.5660 0.8232
vn -0.9488 0.3083 0.0683
vn -0.1570 0.6540 0.7400
vn -0.2122 0.6529 0.7272
vn -0.4123 0.6729 0.6142
vn -0.3511 0.6893 0.6338
vn -0.6177 0.6177 0.4868
vn -0.5573 0.6525 0.5135
vn -0.7990 0.4899 0.3487
vn -0.7477 0.5431 0.3821
vn -0.9312 0.3026 0.2034
vn -0.8965 0.3714 0.2417
vn -0.0682 0.4303 0.9001
vn -0.0871 0.5499 0.8307
vn -0.1325 0.5518 0.8234
vn -0.9930 0.1120 0.0367
vn -0.9845 0.1560 0.0800
vn -0.2574 0.6214 0.7400
vn -0.3115 0.6117 0.7272
vn -0.4547 0.6258 0.6338
vn -0.5126 0.6001 0.6142
vn -0.6525 0.5573 0.5135
vn -0.7066 0.5136 0.4869
vn -0.8235 0.4195 0.3819
vn -0.8658 0.3586 0.3489
vn -0.9670 0.1532 0.2034
vn -0.9435 0.2265 0.2417
vn -0.1649 0.3612 0.9178
vn -0.1720 0.5295 0.8307
vn -0.1304 0.4015 0.9065
vn -0.2172 0.5247 0.8231
vn -0.9955 -0.0000 0.0951
vn -0.9930 -0.1120 0.0367
vn -0.3514 0.5734 0.7401
vn -0.4034 0.5553 0.7272
vn -0.6001 0.5126 0.6142
vn -0.5470 0.5470 0.6337
vn -0.7783 0.3965 0.4869
vn -0.7316 0.4483 0.5136
vn -0.8789 0.2856 0.3819
vn -0.9113 0.2188 0.3488
vn -0.9674 0.0759 0.2415
vn -0.9791 -0.0000 0.2036
vn -0.1859 0.3646 0.9124
vn -0.2529 0.4960 0.8307
vn -0.2965 0.4838 0.8234
vn -0.9845 -0.1560 0.0800
vn -0.4366 0.5115 0.7401
vn -0.4854 0.4854 0.7271
vn -0.6258 0.4547 0.6338
vn -0.6729 0.4123 0.6142
vn -0.7927 0.3285 0.5135
vn -0.8306 0.2699 0.4870
vn -0.9128 0.1445 0.3820
vn -0.9343 0.0733 0.3488
vn -0.9674 -0.0759 0.2415
vn -0.9670 -0.1532 0.2034
vn -0.2540 0.3498 0.9017
vn -0.3684 0.4316 0.8234
vn -0.3271 0.4505 0.8307
vn -0.9488 -0.3083 0.0683
vn -0.9430 -0.3300 0.0433
vn -0.5115 0.4366 0.7401
vn -0.5553 0.4034 0.7272
vn -0.7292 0.3019 0.6142
vn -0.6893 0.3511 0.6338
vn -0.8343 0.2005 0.5136
vn -0.8628 0.1365 0.4868
vn -0.9241 -0.0000 0.3823
vn -0.9343 -0.0733 0.3488
vn -0.9312 -0.3026 0.2034
vn -0.9435 -0.2265 0.2417
vn -0.3064 0.3064 0.9012
vn -0.3937 0.3937 0.8307
vn -0.4316 0.3684 0.8234
vn -0.8463 -0.5317 0.0332
vn -0.8872 -0.4519 0.0933
vn -0.5734 0.3514 0.7401
vn -0.6117 0.3115 0.7272
vn -0.7357 0.2391 0.6337
vn -0.7673 0.1844 0.6142
vn -0.8734 -0.0000 0.4869
vn -0.8555 0.0671 0.5135
vn -0.9128 -0.1445 0.3820
vn -0.9113 -0.2188 0.3488
vn -0.8722 -0.4447 0.2037
vn -0.8965 -0.3714 0.2417
vn -0.4841 0.2966 0.8232
vn -0.3337 0.2144 0.9180
vn -0.3334 0.2421 0.9112
vn -0.4505 0.3271 0.8307
vn -0.8058 -0.5855 0.0884
vn -0.6214 0.2574 0.7400
vn -0.6529 0.2122 0.7272
vn -0.7640 0.1209 0.6338
vn -0.7867 0.0618 0.6142
vn -0.8555 -0.0671 0.5135
vn -0.8628 -0.1365 0.4868
vn -0.8789 -0.2856 0.3819
vn -0.8658 -0.3586 0.3489
vn -0.7920 -0.5755 0.2037
vn -0.8273 -0.5072 0.2417
vn -0.3740 0.1907 0.9076
vn -0.5243 0.2172 0.8234
vn -0.4960 0.2529 0.8307
vn -0.7061 -0.7061 0.0533
vn -0.6540 0.1570 0.7400
vn -0.6780 0.1073 0.7272
vn -0.7867 -0.0618 0.6142
vn -0.7735 -0.0000 0.6337
vn -0.8343 -0.2005 0.5136
vn -0.8306 -0.2699 0.4870
vn -0.8235 -0.4195 0.3819
vn -0.7990 -0.4899 0.3487
vn -0.7379 -0.6303 0.2414
vn -0.6923 -0.6923 0.2037
vn -0.4141 0.1345 0.9002
vn -0.5295 0.1720 0.8307
vn -0.5520 0.1325 0.8232
vn -0.5317 -0.8463 0.0332
vn -0.5855 -0.8058 0.0884
vn -0.6704 0.0531 0.7401
vn -0.6864 -0.0000 0.7272
vn -0.7640 -0.1209 0.6338
vn -0.7673 -0.1844 0.6142
vn -0.7927 -0.3287 0.5135
vn -0.7783 -0.3965 0.4869
vn -0.7127 -0.6087 0.3488
vn -0.7477 -0.5431 0.3821
vn -0.6303 -0.7379 0.2414
vn -0.5755 -0.7920 0.2037
vn -0.5499 0.0871 0.8307
vn -0.5657 0.0444 0.8234
vn -0.4228 0.0670 0.9038
vn -0.3300 -0.9430 0.0433
vn -0.4521 -0.8871 0.0935
vn -0.6705 -0.0526 0.7401
vn -0.6780 -0.1073 0.7272
vn -0.7357 -0.2391 0.6337
vn -0.7292 -0.3019 0.6142
vn -0.7316 -0.4483 0.5136
vn -0.7066 -0.5136 0.4869
vn -0.6087 -0.7127 0.3488
vn -0.6535 -0.6535 0.3818
vn -0.5072 -0.8273 0.2417
vn -0.4444 -0.8724 0.2035
vn -0.3998 -0.0000 0.9166
vn -0.5568 -0.0000 0.8307
vn -0.5657 -0.0444 0.8234
vn -0.3083 -0.9488 0.0683
vn -0.6540 -0.1570 0.7400
vn -0.6529 -0.2122 0.7272
vn -0.6893 -0.3511 0.6338
vn -0.6729 -0.4123 0.6142
vn -0.6525 -0.5573 0.5135
vn -0.6177 -0.6177 0.4868
vn -0.5432 -0.7477 0.3820
vn -0.4899 -0.7990 0.3487
vn -0.3026 -0.9312 0.2034
vn -0.3713 -0.8966 0.2414
vn -0.5499 -0.0871 0.8307
vn -0.4228 -0.0670 0.9038
vn -0.5520 -0.1325 0.8232
vn -0.1120 -0.9930 0.0367
vn -0.1560 -0.9845 0.0800
vn -0.6214 -0.2574 0.7400
vn -0.6117 -0.3115 0.7272
vn -0.6001 -0.5126 0.6142
vn -0.6258 -0.4547 0.6338
vn -0.5573 -0.6525 0.5135
vn -0.5136 -0.7066 0.4869
vn -0.3586 -0.8658 0.3489
vn -0.4195 -0.8235 0.3819
vn -0.1531 -0.9670 0.2037
vn -0.2265 -0.9435 0.2417
vn -0.4141 -0.1345 0.9002
vn -0.5295 -0.1720 0.8307
vn -0.5243 -0.2172 0.8234
vn 0.1120 -0.9930 0.0367
vn -0.0000 -0.9955 0.0951
vn -0.5734 -0.3514 0.7401
vn -0.5553 -0.4034 0.7272
vn -0.5126 -0.6001 0.6142
vn -0.5470 -0.5470 0.6337
vn -0.4483 -0.7316 0.5136
vn -0.3965 -0.7783 0.4869
vn -0.2856 -0.8789 0.3819
vn -0.2188 -0.9113 0.3488
vn -0.0759 -0.9674 0.2415
vn -0.0000 -0.9791 0.2036
vn -0.3337 -0.2144 0.9180
vn -0.3740 -0.1907 0.9076
vn -0.4960 -0.2529 0.8307
vn -0.4841 -0.2966 0.8232
vn 0.1560 -0.9845 0.0800
vn -0.5115 -0.4366 0.7401
vn -0.4854 -0.4854 0.7271
vn -0.4123 -0.6729 0.6142
vn -0.4547 -0.6258 0.6338
vn -0.2699 -0.8306 0.4870
vn -0.3282 -0.7928 0.5136
vn -0.1445 -0.9128 0.3820
vn -0.0733 -0.9343 0.3488
vn 0.0759 -0.9674 0.2415
vn 0.1531 -0.9670 0.2037
vn -0.3331 -0.2423 0.9112
vn -0.4505 -0.3271 0.8307
vn -0.4316 -0.3684 0.8234
vn 0.3300 -0.9430 0.0433
vn 0.3083 -0.9488 0.0683
vn -0.4366 -0.5115 0.7401
vn -0.4034 -0.5553 0.7272
vn -0.3511 -0.6893 0.6338
vn -0.3019 -0.7292 0.6142
vn -0.2001 -0.8344 0.5135
vn -0.1365 -0.8628 0.4868
vn -0.0000 -0.9242 0.3818
vn 0.0733 -0.9343 0.3488
vn 0.2265 -0.9435 0.2417
vn 0.3026 -0.9312 0.2034
vn -0.3684 -0.4316 0.8234
vn -0.3064 -0.3064 0.9012
vn -0.3937 -0.3937 0.8307
vn 0.4521 -0.8871 0.0935
vn 0.5317 -0.8463 0.0332
vn -0.3115 -0.6117 0.7272
vn -0.3514 -0.5734 0.7401
vn -0.2391 -0.7357 0.6337
vn -0.1844 -0.7673 0.6142
vn -0.0000 -0.8734 0.4869
vn -0.0671 -0.8555 0.5135
vn 0.2188 -0.9113 0.3488
vn 0.1445 -0.9128 0.3820
vn 0.4444 -0.8724 0.2035
vn 0.3714 -0.8965 0.2417
vn -0.3271 -0.4505 0.8307
vn -0.2540 -0.3498 0.9017
vn -0.2965 -0.4838 0.8234
vn 0.5855 -0.8058 0.0884
vn -0.2574 -0.6214 0.7400
vn -0.2122 -0.6529 0.7272
vn -0.1209 -0.7640 0.6338
vn -0.0618 -0.7867 0.6142
vn 0.1365 -0.8628 0.4868
vn 0.0671 -0.8555 0.5135
vn 0.2856 -0.8789 0.3819
vn 0.3586 -0.8658 0.3489
vn 0.5755 -0.7920 0.2037
vn 0.5072 -0.8273 0.2417
vn -0.1649 -0.3612 0.9178
vn -0.2172 -0.5247 0.8231
vn -0.1859 -0.3646 0.9124
vn -0.2529 -0.4960 0.8307
vn 0.7061 -0.7061 0.0533
vn -0.1570 -0.6540 0.7400
vn -0.1073 -0.6780 0.7272
vn -0.0000 -0.7735 0.6337
vn 0.0618 -0.7867 0.6142
vn 0.2005 -0.8343 0.5136
vn 0.2699 -0.8306 0.4870
vn 0.4195 -0.8235 0.3819
vn 0.4899 -0.7990 0.3487
vn 0.6923 -0.6923 0.2037
vn 0.6303 -0.7379 0.2414
vn -0.1304 -0.4015 0.9065
vn -0.1720 -0.5295 0.8307
vn -0.1325 -0.5518 0.8234
vn 0.8463 -0.5317 0.0332
vn 0.8058 -0.5855 0.0884
vn -0.0526 -0.6705 0.7401
vn -0.0000 -0.6864 0.7272
vn 0.1844 -0.7673 0.6142
vn 0.1209 -0.7640 0.6338
vn 0.3965 -0.7783 0.4869
vn 0.3282 -0.7928 0.5136
vn 0.5434 -0.7476 0.3818
vn 0.6087 -0.7127 0.3488
vn 0.7379 -0.6303 0.2414
vn 0.7920 -0.5755 0.2037
vn -0.0871 -0.5499 0.8307
vn -0.0682 -0.4303 0.9001
vn -0.0448 -0.5660 0.8232
vn 0.9430 -0.3300 0.0433
vn 0.8871 -0.4521 0.0935
vn 0.0526 -0.6705 0.7401
vn 0.1073 -0.6780 0.7272
vn 0.2391 -0.7357 0.6337
vn 0.3019 -0.7292 0.6142
vn 0.4483 -0.7316 0.5136
vn 0.5136 -0.7066 0.4869
vn 0.7127 -0.6087 0.3488
vn 0.6535 -0.6535 0.3818
vn 0.8273 -0.5072 0.2417
vn 0.8722 -0.4447 0.2037
vn 0.0631 -0.3971 0.9156
vn 0.0621 -0.3973 0.9156
vn 0.0567 -0.3946 0.9171
vn -0.0000 -0.4262 0.9046
vn -0.0000 -0.5568 0.8307
vn 0.0448 -0.5660 0.8232
vn 0.9488 -0.3083 0.0683
vn 0.2122 -0.6529 0.7272
vn 0.1570 -0.6540 0.7400
vn 0.4123 -0.6729 0.6142
vn 0.3511 -0.6893 0.6338
vn 0.5573 -0.6525 0.5135
vn 0.6177 -0.6177 0.4868
vn 0.7990 -0.4899 0.3487
vn 0.7477 -0.5431 0.3821
vn 0.8965 -0.3714 0.2417
vn 0.9312 -0.3026 0.2034
vn 0.0871 -0.5499 0.8307
vn 0.1325 -0.5518 0.8234
vn 0.0631 -0.3982 0.9151
vn 0.9845 -0.1560 0.0800
vn 0.9930 -0.1120 0.0367
vn 0.9950 0.0090 0.0997
vn 0.3115 -0.6117 0.7272
vn 0.2574 -0.6214 0.7400
vn 0.5126 -0.6001 0.6142
vn 0.4547 -0.6258 0.6338
vn 0.6525 -0.5573 0.5135
vn 0.7066 -0.5136 0.4869
vn 0.8235 -0.4195 0.3819
vn 0.8658 -0.3586 0.3489
vn 0.9670 -0.1532 0.2034
vn 0.9435 -0.2265 0.2417
vn 0.9676 -0.0812 0.2392
vn 0.9545 -0.0417 0.2952
vn 0.1720 -0.5295 0.8307
vn 0.1327 -0.4086 0.9030
vn 0.2172 -0.5247 0.8231
vn 0.3514 -0.5734 0.7401
vn 0.4034 -0.5553 0.7272
vn 0.6001 -0.5126 0.6142
vn 0.5470 -0.5470 0.6337
vn 0.7316 -0.4483 0.5136
vn 0.7783 -0.3965 0.4869
vn 0.9113 -0.2188 0.3488
vn 0.8789 -0.2856 0.3819
vn 0.1975 -0.3875 0.9004
vn 0.2529 -0.4960 0.8307
vn 0.2965 -0.4838 0.8234
vn 0.4366 -0.5115 0.7401
vn 0.4854 -0.4854 0.7271
vn 0.6729 -0.4123 0.6142
vn 0.6258 -0.4547 0.6338
vn 0.7927 -0.3285 0.5135
vn 0.8306 -0.2699 0.4870
vn 0.9128 -0.1445 0.3820
vn 0.8775 0.0183 0.4792
vn 0.9323 -0.0811 0.3525
vn 0.2596 -0.2996 0.9181
vn 0.2453 -0.3378 0.9087
vn 0.3271 -0.4505 0.8307
vn 0.3684 -0.4316 0.8234
vn 0.5115 -0.4366 0.7401
vn 0.5553 -0.4034 0.7272
vn 0.7292 -0.3019 0.6142
vn 0.6893 -0.3511 0.6338
vn 0.8628 -0.1365 0.4868
vn 0.8343 -0.2005 0.5136
vn 0.8555 -0.0671 0.5135
vn 0.2933 -0.2933 0.9099
vn 0.3937 -0.3937 0.8307
vn 0.4316 -0.3684 0.8234
vn 0.5734 -0.3514 0.7401
vn 0.6117 -0.3115 0.7272
vn 0.7357 -0.2391 0.6337
vn 0.7673 -0.1844 0.6142
vn 0.4505 -0.3271 0.8307
vn 0.4841 -0.2966 0.8232
vn 0.3514 -0.2552 0.9008
vn 0.6214 -0.2574 0.7400
vn 0.6529 -0.2122 0.7272
vn 0.7646 0.0348 0.6435
vn 0.7867 -0.0618 0.6142
vn 0.7640 -0.1209 0.6338
vn 0.5243 -0.2172 0.8234
vn 0.4960 -0.2529 0.8307
vn 0.3841 -0.1958 0.9023
vn 0.6540 -0.1570 0.7400
vn 0.6736 -0.0738 0.7354
vn 0.6219 0.0024 0.7831
vn 0.6780 -0.1073 0.7272
vn 0.5520 -0.1325 0.8232
vn 0.3859 -0.1256 0.9140
vn 0.3817 -0.1120 0.9175
vn 0.5295 -0.1720 0.8307
vn 0.5546 -0.0776 0.8285
vn 0.5549 -0.0777 0.8283
vn 0.5540 -0.0763 0.8290
vn 0.5499 -0.0871 0.8307
vn 0.4190 -0.0664 0.9055
vn 0.4528 0.0775 0.8883
vn -0.0000 -0.0000 1.0000
vn -0.0000 -0.0000 -1.0000
s 1
usemtl livox_mid360_dome_color
f 180//391 181//391 182//391
f 180//392 182//392 183//392
f 184//393 180//393 183//393
f 185//394 180//394 184//394
f 185//395 186//395 181//395
f 185//396 181//396 180//396
f 187//397 183//397 188//397
f 187//398 184//398 183//398
f 189//399 190//399 186//399
f 189//400 186//400 185//400
f 191//401 185//401 184//401
f 191//402 184//402 187//402
f 192//403 188//403 193//403
f 192//404 187//404 188//404
f 194//405 189//405 185//405
f 194//406 185//406 191//406
f 195//407 191//407 187//407
f 195//408 187//408 192//408
f 196//409 192//409 193//409
f 197//410 190//410 189//410
f 197//411 189//411 194//411
f 198//412 194//412 191//412
f 198//413 191//413 195//413
f 199//414 192//414 196//414
f 199//415 195//415 192//415
f 200//416 193//416 201//416
f 200//416 196//416 193//416
f 202//417 190//417 197//417
f 202//418 203//418 190//418
f 204//419 197//419 194//419
f 204//420 194//420 198//420
f 205//421 195//421 199//421
f 205//422 198//422 195//422
f 206//423 199//423 196//423
f 206//424 196//424 200//424
f 207//425 201//425 208//425
f 207//426 200//426 201//426
f 209//427 202//427 197//427
f 209//428 197//428 204//428
f 210//429 198//429 205//429
f 210//430 204//430 198//430
f 211//431 199//431 206//431
f 211//432 205//432 199//432
f 212//433 200//433 207//433
f 212//434 206//434 200//434
f 213//435 208//435 214//435
f 213//436 207//436 208//436
f 215//437 216//438 203//438
f 215//439 202//439 209//439
f 215//440 203//440 202//440
f 217//441 209//441 204//441
f 217//442 204//442 210//442
f 218//443 205//443 211//443
f 218//444 210//444 205//444
f 219//445 211//445 206//445
f 219//446 206//446 212//446
f 220//447 212//447 207//447
f 220//448 207//448 213//448
f 221//449 222//449 216//449
f 221//450 216//451 215//452
f 223//453 213//453 214//453
f 224//454 215//454 209//454
f 224//455 209//455 217//455
f 225//456 217//456 210//456
f 225//457 210//457 218//457
f 226//458 211//458 219//458
f 226//459 218//459 211//459
f 227//460 219//460 212//460
f 227//461 212//461 220//461
f 228//462 220//462 213//462
f 228//463 213//463 223//463
f 229//464 230//464 222//464
f 229//465 222//465 221//465
f 229//466 221//450 215//452
f 229//467 215//467 224//467
f 231//468 214//468 232//468
f 231//469 223//469 214//469
f 233//470 224//470 217//470
f 233//471 217//471 225//471
f 234//472 225//472 218//472
f 234//473 218//473 226//473
f 235//474 226//474 219//474
f 235//475 219//475 227//475
f 236//476 227//476 220//476
f 236//477 220//477 228//477
f 237//478 228//478 223//478
f 237//479 223//479 231//479
f 238//480 229//480 224//480
f 238//481 224//481 233//481
f 238//482 230//482 229//482
f 239//483 231//483 232//483
f 239//484 232//484 240//484
f 241//485 233//485 225//485
f 241//486 225//486 234//486
f 242//487 234//487 226//487
f 242//488 226//488 235//488
f 243//489 235//489 227//489
f 243//490 227//490 236//490
f 244//491 236//491 228//491
f 244//492 228//492 237//492
f 245//493 231//493 239//493
f 245//494 237//494 231//494
f 246//495 238//495 233//495
f 246//496 230//496 238//496
f 246//497 233//497 241//497
f 247//498 239//498 240//498
f 248//499 241//499 234//499
f 248//500 234//500 242//500
f 249//501 235//501 243//501
f 249//502 242//502 235//502
f 250//503 243//503 236//503
f 250//504 236//504 244//504
f 251//505 244//505 237//505
f 251//506 237//506 245//506
f 252//507 245//507 239//507
f 252//508 239//508 247//508
f 253//509 241//509 248//509
f 253//510 246//510 241//510
f 253//511 230//511 246//511
f 254//512 240//512 255//512
f 254//513 247//513 240//513
f 256//514 248//514 242//514
f 256//515 242//515 249//515
f 257//516 249//516 243//516
f 257//517 243//517 250//517
f 258//518 250//518 244//518
f 258//519 244//519 251//519
f 259//520 245//520 252//520
f 259//521 251//521 245//521
f 260//522 252//522 247//522
f 260//523 247//523 254//523
f 261//524 262//524 230//524
f 261//525 230//525 253//525
f 261//526 253//526 248//526
f 261//527 248//527 256//527
f 263//528 255//528 264//528
f 263//529 254//529 255//529
f 265//530 249//530 257//530
f 265//531 256//531 249//531
f 266//532 250//532 258//532
f 266//533 257//533 250//533
f 267//534 258//534 251//534
f 267//535 251//535 259//535
f 268//536 259//536 252//536
f 268//537 252//537 260//537
f 269//538 260//538 254//538
f 269//539 254//539 263//539
f 270//540 262//540 261//540
f 270//541 261//541 256//541
f 270//542 256//542 265//542
f 271//543 263//543 264//543
f 272//544 257//544 266//544
f 272//545 265//545 257//545
f 273//546 258//546 267//546
f 273//547 266//547 258//547
f 274//548 259//548 268//548
f 274//549 267//549 259//549
f 275//550 260//550 269//550
f 275//551 268//551 260//551
f 276//552 263//552 271//552
f 276//553 269//553 263//553
f 277//554 270//554 265//554
f 277//555 265//555 272//555
f 277//556 262//556 270//556
f 278//557 271//557 264//557
f 278//557 264//557 279//557
f 280//558 266//558 273//558
f 280//559 272//559 266//559
f 281//560 273//560 267//560
f 281//561 267//561 274//561
f 282//562 268//562 275//562
f 282//563 274//563 268//563
f 283//564 269//564 276//564
f 283//565 275//565 269//565
f 284//566 271//566 278//566
f 284//567 276//567 271//567
f 285//568 262//568 277//568
f 285//569 277//569 272//569
f 285//570 272//570 280//570
f 286//571 279//571 287//571
f 286//572 278//572 279//572
f 288//573 280//573 273//573
f 288//574 273//574 281//574
f 289//575 281//575 274//575
f 289//576 274//576 282//576
f 290//577 282//577 275//577
f 290//578 275//578 283//578
f 291//579 276//579 284//579
f 291//580 283//580 276//580
f 292//581 284//581 278//581
f 292//582 278//582 286//582
f 293//583 294//584 262//585
f 293//583 262//585 285//586
f 293//587 285//587 280//587
f 293//588 280//588 288//588
f 295//589 287//589 296//589
f 295//590 286//590 287//590
f 297//591 288//591 281//591
f 297//592 281//592 289//592
f 298//593 282//593 290//593
f 298//594 289//594 282//594
f 299//595 290//595 283//595
f 299//596 283//596 291//596
f 300//597 291//597 284//597
f 300//598 284//598 292//598
f 301//599 292//599 286//599
f 301//600 286//600 295//600
f 302//601 294//601 293//601
f 302//602 293//602 288//602
f 302//603 288//603 297//603
f 303//604 295//604 296//604
f 304//605 297//605 289//605
f 304//606 289//606 298//606
f 305//607 290//607 299//607
f 305//608 298//608 290//608
f 306//609 291//609 300//609
f 306//610 299//610 291//610
f 307//611 292//611 301//611
f 307//612 300//612 292//612
f 308//613 295//613 303//613
f 308//614 301//614 295//614
f 309//615 294//615 302//615
f 309//616 302//616 297//616
f 309//617 297//617 304//617
f 310//618 296//618 311//618
f 310//619 303//619 296//619
f 312//620 304//620 298//620
f 312//621 298//621 305//621
f 313//622 305//622 299//622
f 313//623 299//623 306//623
f 314//624 306//624 300//624
f 314//625 300//625 307//625
f 315//626 307//626 301//626
f 315//627 301//627 308//627
f 316//628 303//628 310//628
f 316//629 308//629 303//629
f 317//630 318//630 294//630
f 317//631 309//631 304//631
f 317//632 294//632 309//632
f 317//633 304//633 312//633
f 319//634 310//634 311//634
f 319//635 311//635 320//635
f 321//636 312//636 305//636
f 321//637 305//637 313//637
f 322//638 306//638 314//638
f 322//639 313//639 306//639
f 323//640 307//640 315//640
f 323//641 314//641 307//641
f 324//642 315//642 308//642
f 324//643 308//643 316//643
f 325//644 316//644 310//644
f 325//645 310//645 319//645
f 326//646 318//646 317//646
f 326//647 317//647 312//647
f 326//648 312//648 321//648
f 327//649 319//649 320//649
f 328//650 321//650 313//650
f 328//651 313//651 322//651
f 329//652 322//652 314//652
f 329//653 314//653 323//653
f 330//654 323//654 315//654
f 330//655 315//655 324//655
f 331//656 324//656 316//656
f 331//657 316//657 325//657
f 332//658 325//658 319//658
f 332//659 319//659 327//659
f 333//660 318//660 326//660
f 333//661 321//661 328//661
f 333//662 326//662 321//662
f 334//663 327//663 320//663
f 334//664 320//664 335//664
f 336//665 328//665 322//665
f 336//666 322//666 329//666
f 337//667 323//667 330//667
f 337//668 329//668 323//668
f 338//669 330//669 324//669
f 338//670 324//670 331//670
f 339//671 331//671 325//671
f 339//672 325//672 332//672
f 340//673 327//673 334//673
f 340//674 332//674 327//674
f 341//675 318//675 333//675
f 341//676 333//676 328//676
f 341//677 328//677 336//677
f 342//678 335//678 343//678
f 342//679 334//679 335//679
f 344//680 336//680 329//680
f 344//681 329//681 337//681
f 345//682 337//682 330//682
f 345//683 330//683 338//683
f 346//684 331//684 339//684
f 346//685 338//685 331//685
f 347//686 339//686 332//686
f 347//687 332//687 340//687
f 348//688 334//688 342//688
f 348//689 340//689 334//689
f 349//690 336//690 344//690
f 349//691 350//691 318//691
f 349//692 318//692 341//692
f 349//693 341//693 336//693
f 351//694 342//694 343//694
f 352//695 344//695 337//695
f 352//696 337//696 345//696
f 353//697 345//697 338//697
f 353//698 338//698 346//698
f 354//699 346//699 339//699
f 354//700 339//700 347//700
f 355//701 347//701 340//701
f 355//702 340//702 348//702
f 356//703 342//703 351//703
f 356//704 348//704 342//704
f 357//705 350//705 349//705
f 357//706 344//706 352//706
f 357//707 349//707 344//707
f 358//708 343//708 359//708
f 358//708 351//708 343//708
f 360//709 352//709 345//709
f 360//710 345//710 353//710
f 361//711 346//711 354//711
f 361//712 353//712 346//712
f 362//713 354//713 347//713
f 362//714 347//714 355//714
f 363//715 355//715 348//715
f 363//716 348//716 356//716
f 364//717 356//717 351//717
f 364//718 351//718 358//718
f 365//719 350//719 357//719
f 365//720 357//720 352//720
f 365//721 352//721 360//721
f 366//722 359//722 367//722
f 366//723 358//723 359//723
f 368//724 360//724 353//724
f 368//725 353//725 361//725
f 369//726 361//726 354//726
f 369//727 354//727 362//727
f 370//728 362//728 355//728
f 370//729 355//729 363//729
f 371//730 356//730 364//730
f 371//731 363//731 356//731
f 372//732 364//732 358//732
f 372//733 358//733 366//733
f 373//734 365//734 360//734
f 373//735 360//735 368//735
f 373//736 350//736 365//736
f 374//737 367//737 375//737
f 374//738 366//738 367//738
f 376//739 368//739 361//739
f 376//740 361//740 369//740
f 377//741 369//741 362//741
f 377//742 362//742 370//742
f 378//743 370//743 363//743
f 378//744 363//744 371//744
f 379//745 364//745 372//745
f 379//746 371//746 364//746
f 380//747 372//747 366//747
f 380//748 366//748 374//748
f 381//749 382//749 350//749
f 381//749 350//749 373//749
f 381//750 373//750 368//750
f 381//751 368//751 376//751
f 383//752 374//752 375//752
f 384//753 376//753 369//753
f 384//754 369//754 377//754
f 385//755 377//755 370//755
f 385//756 370//756 378//756
f 386//757 378//757 371//757
f 386//758 371//758 379//758
f 387//759 379//759 372//759
f 387//760 372//760 380//760
f 388//761 374//761 383//761
f 388//762 380//762 374//762
f 389//763 381//763 376//763
f 389//764 382//764 381//764
f 389//765 376//765 384//765
f 390//766 375//766 391//766
f 390//767 383//767 375//767
f 392//768 384//768 377//768
f 392//769 377//769 385//769
f 393//770 378//770 386//770
f 393//771 385//771 378//771
f 394//772 386//772 379//772
f 394//773 379//773 387//773
f 395//774 380//774 388//774
f 395//775 387//775 380//775
f 396//776 383//776 390//776
f 396//777 388//777 383//777
f 397//778 382//778 389//778
f 397//779 389//779 384//779
f 397//780 384//780 392//780
f 398//781 391//781 399//781
f 398//782 390//782 391//782
f 400//783 392//783 385//783
f 400//784 385//784 393//784
f 401//785 386//785 394//785
f 401//786 393//786 386//786
f 402//787 394//787 387//787
f 402//788 387//788 395//788
f 403//789 395//789 388//789
f 403//790 388//790 396//790
f 404//791 396//791 390//791
f 404//792 390//792 398//792
f 405//793 406//793 382//793
f 405//794 382//794 397//794
f 405//795 397//795 392//795
f 405//796 392//796 400//796
f 407//797 398//797 399//797
f 408//798 400//798 393//798
f 408//799 393//799 401//799
f 409//800 394//800 402//800
f 409//801 401//801 394//801
f 410//802 395//802 403//802
f 410//803 402//803 395//803
f 411//804 403//804 396//804
f 411//805 396//805 404//805
f 412//806 404//806 398//806
f 412//807 398//807 407//807
f 413//808 406//808 405//808
f 413//809 405//809 400//809
f 413//810 400//810 408//810
f 414//811 399//811 415//811
f 414//812 407//812 399//812
f 416//813 408//813 401//813
f 416//814 401//814 409//814
f 417//815 409//815 402//815
f 417//816 402//816 410//816
f 418//817 410//817 403//817
f 418//818 403//818 411//818
f 419//819 411//819 404//819
f 419//820 404//820 412//820
f 420//821 412//821 407//821
f 420//822 407//822 414//822
f 421//823 408//823 416//823
f 421//824 406//824 413//824
f 421//825 413//825 408//825
f 422//826 414//826 415//826
f 422//827 415//827 423//827
f 424//828 409//828 417//828
f 424//829 416//829 409//829
f 425//830 417//830 410//830
f 425//831 410//831 418//831
f 426//832 411//832 419//832
f 426//833 418//833 411//833
f 427//834 412//834 420//834
f 427//835 419//835 412//835
f 428//836 414//836 422//836
f 428//837 420//837 414//837
f 429//838 421//838 416//838
f 429//839 406//839 421//839
f 429//840 416//840 424//840
f 430//841 422//841 423//841
f 431//842 424//842 417//842
f 431//843 417//843 425//843
f 432//844 425//844 418//844
f 432//845 418//845 426//845
f 433//846 419//846 427//846
f 433//847 426//847 419//847
f 434//848 427//848 420//848
f 434//849 420//849 428//849
f 435//850 422//850 430//850
f 435//851 428//851 422//851
f 436//852 437//852 406//852
f 436//853 424//853 431//853
f 436//854 406//854 429//854
f 436//855 429//855 424//855
f 438//856 430//856 423//856
f 438//856 423//856 439//856
f 440//857 431//857 425//857
f 440//858 425//858 432//858
f 441//859 432//859 426//859
f 441//860 426//860 433//860
f 442//861 433//861 427//861
f 442//862 427//862 434//862
f 443//863 434//863 428//863
f 443//864 428//864 435//864
f 444//865 430//865 438//865
f 444//866 435//866 430//866
f 445//867 437//867 436//867
f 445//868 436//868 431//868
f 445//869 431//869 440//869
f 446//870 439//870 447//870
f 446//871 438//871 439//871
f 448//872 440//872 432//872
f 448//873 432//873 441//873
f 449//874 433//874 442//874
f 449//875 441//875 433//875
f 450//876 434//876 443//876
f 450//877 442//877 434//877
f 451//878 443//878 435//878
f 451//879 435//879 444//879
f 452//880 444//880 438//880
f 452//881 438//881 446//881
f 453//882 445//882 440//882
f 453//883 437//883 445//883
f 453//884 440//884 448//884
f 454//885 447//885 455//885
f 454//886 446//886 447//886
f 456//887 448//887 441//887
f 456//888 441//888 449//888
f 457//889 449//889 442//889
f 457//890 442//890 450//890
f 458//891 450//891 443//891
f 458//892 443//892 451//892
f 459//893 444//893 452//893
f 459//894 451//894 444//894
f 460//895 452//895 446//895
f 460//896 446//896 454//896
f 461//897 462//898 437//899
f 461//900 437//900 453//900
f 461//901 453//901 448//901
f 461//902 448//902 456//902
f 463//903 454//903 455//903
f 464//904 449//904 457//904
f 464//905 456//905 449//905
f 465//906 450//906 458//906
f 465//907 457//907 450//907
f 466//908 458//908 451//908
f 466//909 451//909 459//909
f 467//910 452//910 460//910
f 467//911 459//911 452//911
f 468//912 460//912 454//912
f 468//913 454//913 463//913
f 469//914 461//914 456//914
f 469//915 456//915 464//915
f 469//916 462//898 461//897
f 470//917 463//917 455//917
f 470//918 455//918 182//918
f 470//919 182//919 181//919
f 471//920 457//920 465//920
f 471//921 464//921 457//921
f 472//922 458//922 466//922
f 472//923 465//923 458//923
f 473//924 466//924 459//924
f 473//925 459//925 467//925
f 474//926 467//926 460//926
f 474//927 460//927 468//927
f 475//928 463//928 470//928
f 475//929 468//929 463//929
f 475//930 470//930 181//930
f 475//931 181//931 186//931
f 476//932 469//932 464//932
f 476//933 462//933 469//933
f 476//934 464//934 471//934
f 477//935 471//935 465//935
f 477//936 465//936 472//936
f 478//937 466//937 473//937
f 478//938 472//938 466//938
f 479//939 473//939 467//939
f 479//940 467//940 474//940
f 480//941 468//941 475//941
f 480//942 474//942 468//942
f 481//943 462//943 476//943
f 481//944 476//944 471//944
f 481//945 471//945 477//945
f 482//946 477//946 472//946
f 482//947 472//947 478//947
f 483//948 473//948 479//948
f 483//949 478//949 473//949
f 484//950 479//950 474//950
f 484//951 474//951 480//951
f 485//952 480//952 475//952
f 485//953 186//953 190//953
f 485//954 475//954 186//954
f 486//955 487//955 462//955
f 486//956 462//956 481//956
f 486//957 481//957 477//957
f 486//958 477//958 482//958
f 488//959 482//959 478//959
f 488//960 478//960 483//960
f 489//961 479//961 484//961
f 489//962 483//962 479//962
f 490//963 480//963 485//963
f 490//964 484//964 480//964
f 490//965 485//965 190//965
f 491//966 487//966 486//966
f 491//967 486//967 482//967
f 491//968 482//968 488//968
f 492//969 488//969 483//969
f 492//970 483//970 489//970
f 493//971 489//971 484//971
f 493//972 484//972 490//972
f 494//973 491//973 488//973
f 494//974 488//974 492//974
f 494//975 487//975 491//975
f 495//976 492//976 489//976
f 495//977 489//977 493//977
f 496//978 190//978 203//978
f 496//979 490//979 190//979
f 496//980 493//980 490//980
f 497//981 492//981 495//981
f 497//982 494//982 492//982
f 497//983 487//983 494//983
f 498//984 495//984 493//984
f 498//985 496//985 203//985
f 498//986 203//438 216//438
f 498//987 493//987 496//987
f 499//988 495//988 498//988
f 499//989 487//989 497//989
f 499//990 222//990 487//990
f 499//991 497//991 495//991
f 500//992 498//993 216//994
f 500//992 499//995 498//993
f 500//996 222//996 499//996
f 500//997 216//997 222//997
f 230//998 262//998 294//998
f 230//998 294//998 318//998
f 230//998 318//998 350//998
f 230//998 350//998 382//998
f 230//998 382//998 406//998
f 230//998 406//998 437//998
f 230//998 437//998 462//998
f 230//998 462//998 487//998
f 230//998 487//998 222//998
f 182//999 201//999 183//999
f 183//999 201//999 188//999
f 188//999 201//999 193//999
f 208//999 201//999 214//999
f 214//999 201//999 232//999
f 232//999 201//999 240//999
f 240//999 201//999 255//999
f 255//999 201//999 264//999
f 264//999 201//999 279//999
f 279//999 201//999 287//999
f 287//999 201//999 296//999
f 296//999 201//999 311//999
f 311//999 201//999 320//999
f 320//999 201//999 335//999
f 335//999 201//999 343//999
f 343//999 201//999 359//999
f 359//999 201//999 367//999
f 367//999 201//999 375//999
f 375//999 201//999 391//999
f 391//999 201//999 399//999
f 399//999 201//999 415//999
f 415//999 201//999 423//999
f 423//999 201//999 439//999
f 439//999 201//999 447//999
f 447//999 201//999 455//999
f 455//999 201//999 182//999
