<?xml version="1.0" encoding="utf-8"?>
<COLLADA version="1.4.1" xmlns="http://www.collada.org/2005/11/COLLADASchema">
  <asset>
    <contributor><authoring_tool>python_generator</authoring_tool></contributor>
    <created>2025-09-25T21:04:14.051500</created>
    <modified>2025-09-25T21:04:14.051500</modified>
    <unit name="meter" meter="1"/>
    <up_axis>Z_UP</up_axis>
  </asset>
  <library_effects>
    <effect id="fx_matte_black">
  <profile_COMMON>
    <technique sid="common">
      <phong>
        <emission><color>0 0 0 1</color></emission>
        <ambient><color>0.040 0.040 0.040 1</color></ambient>
        <diffuse><color>0.040 0.040 0.040 1</color></diffuse>
        <specular><color>0.050 0.050 0.050 1</color></specular>
        <shininess><float>5.00</float></shininess>
        <index_of_refraction><float>1.45</float></index_of_refraction>
      </phong>
    </technique>
  </profile_COMMON>
</effect>
    <effect id="fx_gloss_black">
  <profile_COMMON>
    <technique sid="common">
      <phong>
        <emission><color>0 0 0 1</color></emission>
        <ambient><color>0.020 0.020 0.020 1</color></ambient>
        <diffuse><color>0.020 0.020 0.020 1</color></diffuse>
        <specular><color>0.350 0.350 0.350 1</color></specular>
        <shininess><float>80.00</float></shininess>
        <index_of_refraction><float>1.45</float></index_of_refraction>
      </phong>
    </technique>
  </profile_COMMON>
</effect>
    <effect id="fx_solid_black">
  <profile_COMMON>
    <technique sid="common">
      <phong>
        <emission><color>0 0 0 1</color></emission>
        <ambient><color>0.020 0.020 0.020 1</color></ambient>
        <diffuse><color>0.020 0.020 0.020 1</color></diffuse>
        <specular><color>0.150 0.150 0.150 1</color></specular>
        <shininess><float>20.00</float></shininess>
        <index_of_refraction><float>1.45</float></index_of_refraction>
      </phong>
    </technique>
  </profile_COMMON>
</effect>
  </library_effects>
  <library_materials>
    <material id="mat_matte_black" name="Body1_MatteBlack"><instance_effect url="#fx_matte_black"/></material>
    <material id="mat_gloss_black" name="Body2_GlossBlack"><instance_effect url="#fx_gloss_black"/></material>
    <material id="mat_solid_black" name="Body3_SolidBlack"><instance_effect url="#fx_solid_black"/></material>
  </library_materials>
  <library_geometries>
    <geometry id="geom_body1" name="body1_base">
<mesh>
<source id="geom_body1-positions">
<float_array id="geom_body1-positions-array" count="150">0.030000 0.000000 -0.031502 0.028978 0.007765 -0.031502 0.025981 0.015000 -0.031502 0.021213 0.021213 -0.031502 0.015000 0.025981 -0.031502 0.007765 0.028978 -0.031502 0.000000 0.030000 -0.031502 -0.007765 0.028978 -0.031502 -0.015000 0.025981 -0.031502 -0.021213 0.021213 -0.031502 -0.025981 0.015000 -0.031502 -0.028978 0.007765 -0.031502 -0.030000 0.000000 -0.031502 -0.028978 -0.007765 -0.031502 -0.025981 -0.015000 -0.031502 -0.021213 -0.021213 -0.031502 -0.015000 -0.025981 -0.031502 -0.007765 -0.028978 -0.031502 -0.000000 -0.030000 -0.031502 0.007765 -0.028978 -0.031502 0.015000 -0.025981 -0.031502 0.021213 -0.021213 -0.031502 0.025981 -0.015000 -0.031502 0.028978 -0.007765 -0.031502 0.030000 0.000000 0.006638 0.028978 0.007765 0.006638 0.025981 0.015000 0.006638 0.021213 0.021213 0.006638 0.015000 0.025981 0.006638 0.007765 0.028978 0.006638 0.000000 0.030000 0.006638 -0.007765 0.028978 0.006638 -0.015000 0.025981 0.006638 -0.021213 0.021213 0.006638 -0.025981 0.015000 0.006638 -0.028978 0.007765 0.006638 -0.030000 0.000000 0.006638 -0.028978 -0.007765 0.006638 -0.025981 -0.015000 0.006638 -0.021213 -0.021213 0.006638 -0.015000 -0.025981 0.006638 -0.007765 -0.028978 0.006638 -0.000000 -0.030000 0.006638 0.007765 -0.028978 0.006638 0.015000 -0.025981 0.006638 0.021213 -0.021213 0.006638 0.025981 -0.015000 0.006638 0.028978 -0.007765 0.006638 0.000000 0.000000 -0.031502 0.000000 0.000000 0.006638</float_array>
<technique_common>
<accessor source="#geom_body1-positions-array" count="50" stride="3">
<param name="X" type="float"/><param name="Y" type="float"/><param name="Z" type="float"/>
</accessor></technique_common></source>
<source id="geom_body1-normals">
<float_array id="geom_body1-normals-array" count="150">1.000000 0.000000 0.000000 0.965926 0.258819 0.000000 0.866025 0.500000 0.000000 0.707107 0.707107 0.000000 0.500000 0.866025 0.000000 0.258819 0.965926 0.000000 0.000000 1.000000 0.000000 -0.258819 0.965926 0.000000 -0.500000 0.866025 0.000000 -0.707107 0.707107 0.000000 -0.866025 0.500000 0.000000 -0.965926 0.258819 0.000000 -1.000000 0.000000 0.000000 -0.965926 -0.258819 0.000000 -0.866025 -0.500000 0.000000 -0.707107 -0.707107 0.000000 -0.500000 -0.866025 0.000000 -0.258819 -0.965926 0.000000 -0.000000 -1.000000 0.000000 0.258819 -0.965926 0.000000 0.500000 -0.866025 0.000000 0.707107 -0.707107 0.000000 0.866025 -0.500000 0.000000 0.965926 -0.258819 0.000000 1.000000 0.000000 0.000000 0.965926 0.258819 0.000000 0.866025 0.500000 0.000000 0.707107 0.707107 0.000000 0.500000 0.866025 0.000000 0.258819 0.965926 0.000000 0.000000 1.000000 0.000000 -0.258819 0.965926 0.000000 -0.500000 0.866025 0.000000 -0.707107 0.707107 0.000000 -0.866025 0.500000 0.000000 -0.965926 0.258819 0.000000 -1.000000 0.000000 0.000000 -0.965926 -0.258819 0.000000 -0.866025 -0.500000 0.000000 -0.707107 -0.707107 0.000000 -0.500000 -0.866025 0.000000 -0.258819 -0.965926 0.000000 -0.000000 -1.000000 0.000000 0.258819 -0.965926 0.000000 0.500000 -0.866025 0.000000 0.707107 -0.707107 0.000000 0.866025 -0.500000 0.000000 0.965926 -0.258819 0.000000 0.000000 0.000000 -1.000000 0.000000 0.000000 1.000000</float_array>
<technique_common>
<accessor source="#geom_body1-normals-array" count="50" stride="3">
<param name="X" type="float"/><param name="Y" type="float"/><param name="Z" type="float"/>
</accessor></technique_common></source>
<vertices id="geom_body1-vertices"><input semantic="POSITION" source="#geom_body1-positions"/></vertices>
<triangles material="mat1_symbol" count="96">
<input semantic="VERTEX" source="#geom_body1-vertices" offset="0"/>
<input semantic="NORMAL" source="#geom_body1-normals" offset="1"/>
<p>0 0 24 24 25 25 0 0 25 25 1 1 1 1 25 25 26 26 1 1 26 26 2 2 2 2 26 26 27 27 2 2 27 27 3 3 3 3 27 27 28 28 3 3 28 28 4 4 4 4 28 28 29 29 4 4 29 29 5 5 5 5 29 29 30 30 5 5 30 30 6 6 6 6 30 30 31 31 6 6 31 31 7 7 7 7 31 31 32 32 7 7 32 32 8 8 8 8 32 32 33 33 8 8 33 33 9 9 9 9 33 33 34 34 9 9 34 34 10 10 10 10 34 34 35 35 10 10 35 35 11 11 11 11 35 35 36 36 11 11 36 36 12 12 12 12 36 36 37 37 12 12 37 37 13 13 13 13 37 37 38 38 13 13 38 38 14 14 14 14 38 38 39 39 14 14 39 39 15 15 15 15 39 39 40 40 15 15 40 40 16 16 16 16 40 40 41 41 16 16 41 41 17 17 17 17 41 41 42 42 17 17 42 42 18 18 18 18 42 42 43 43 18 18 43 43 19 19 19 19 43 43 44 44 19 19 44 44 20 20 20 20 44 44 45 45 20 20 45 45 21 21 21 21 45 45 46 46 21 21 46 46 22 22 22 22 46 46 47 47 22 22 47 47 23 23 23 23 47 47 24 24 23 23 24 24 0 0 48 48 1 1 0 0 48 48 2 2 1 1 48 48 3 3 2 2 48 48 4 4 3 3 48 48 5 5 4 4 48 48 6 6 5 5 48 48 7 7 6 6 48 48 8 8 7 7 48 48 9 9 8 8 48 48 10 10 9 9 48 48 11 11 10 10 48 48 12 12 11 11 48 48 13 13 12 12 48 48 14 14 13 13 48 48 15 15 14 14 48 48 16 16 15 15 48 48 17 17 16 16 48 48 18 18 17 17 48 48 19 19 18 18 48 48 20 20 19 19 48 48 21 21 20 20 48 48 22 22 21 21 48 48 23 23 22 22 48 48 0 0 23 23 49 49 24 24 25 25 49 49 25 25 26 26 49 49 26 26 27 27 49 49 27 27 28 28 49 49 28 28 29 29 49 49 29 29 30 30 49 49 30 30 31 31 49 49 31 31 32 32 49 49 32 32 33 33 49 49 33 33 34 34 49 49 34 34 35 35 49 49 35 35 36 36 49 49 36 36 37 37 49 49 37 37 38 38 49 49 38 38 39 39 49 49 39 39 40 40 49 49 40 40 41 41 49 49 41 41 42 42 49 49 42 42 43 43 49 49 43 43 44 44 49 49 44 44 45 45 49 49 45 45 46 46 49 49 46 46 47 47 49 49 47 47 24 24</p>
</triangles>
</mesh></geometry>
    <geometry id="geom_body2" name="body2_ring">
<mesh>
<source id="geom_body2-positions">
<float_array id="geom_body2-positions-array" count="150">0.030000 0.000000 0.006638 0.028978 0.007765 0.006638 0.025981 0.015000 0.006638 0.021213 0.021213 0.006638 0.015000 0.025981 0.006638 0.007765 0.028978 0.006638 0.000000 0.030000 0.006638 -0.007765 0.028978 0.006638 -0.015000 0.025981 0.006638 -0.021213 0.021213 0.006638 -0.025981 0.015000 0.006638 -0.028978 0.007765 0.006638 -0.030000 0.000000 0.006638 -0.028978 -0.007765 0.006638 -0.025981 -0.015000 0.006638 -0.021213 -0.021213 0.006638 -0.015000 -0.025981 0.006638 -0.007765 -0.028978 0.006638 -0.000000 -0.030000 0.006638 0.007765 -0.028978 0.006638 0.015000 -0.025981 0.006638 0.021213 -0.021213 0.006638 0.025981 -0.015000 0.006638 0.028978 -0.007765 0.006638 0.030000 0.000000 0.010638 0.028978 0.007765 0.010638 0.025981 0.015000 0.010638 0.021213 0.021213 0.010638 0.015000 0.025981 0.010638 0.007765 0.028978 0.010638 0.000000 0.030000 0.010638 -0.007765 0.028978 0.010638 -0.015000 0.025981 0.010638 -0.021213 0.021213 0.010638 -0.025981 0.015000 0.010638 -0.028978 0.007765 0.010638 -0.030000 0.000000 0.010638 -0.028978 -0.007765 0.010638 -0.025981 -0.015000 0.010638 -0.021213 -0.021213 0.010638 -0.015000 -0.025981 0.010638 -0.007765 -0.028978 0.010638 -0.000000 -0.030000 0.010638 0.007765 -0.028978 0.010638 0.015000 -0.025981 0.010638 0.021213 -0.021213 0.010638 0.025981 -0.015000 0.010638 0.028978 -0.007765 0.010638 0.000000 0.000000 0.006638 0.000000 0.000000 0.010638</float_array>
<technique_common>
<accessor source="#geom_body2-positions-array" count="50" stride="3">
<param name="X" type="float"/><param name="Y" type="float"/><param name="Z" type="float"/>
</accessor></technique_common></source>
<source id="geom_body2-normals">
<float_array id="geom_body2-normals-array" count="150">1.000000 0.000000 0.000000 0.965926 0.258819 0.000000 0.866025 0.500000 0.000000 0.707107 0.707107 0.000000 0.500000 0.866025 0.000000 0.258819 0.965926 0.000000 0.000000 1.000000 0.000000 -0.258819 0.965926 0.000000 -0.500000 0.866025 0.000000 -0.707107 0.707107 0.000000 -0.866025 0.500000 0.000000 -0.965926 0.258819 0.000000 -1.000000 0.000000 0.000000 -0.965926 -0.258819 0.000000 -0.866025 -0.500000 0.000000 -0.707107 -0.707107 0.000000 -0.500000 -0.866025 0.000000 -0.258819 -0.965926 0.000000 -0.000000 -1.000000 0.000000 0.258819 -0.965926 0.000000 0.500000 -0.866025 0.000000 0.707107 -0.707107 0.000000 0.866025 -0.500000 0.000000 0.965926 -0.258819 0.000000 1.000000 0.000000 0.000000 0.965926 0.258819 0.000000 0.866025 0.500000 0.000000 0.707107 0.707107 0.000000 0.500000 0.866025 0.000000 0.258819 0.965926 0.000000 0.000000 1.000000 0.000000 -0.258819 0.965926 0.000000 -0.500000 0.866025 0.000000 -0.707107 0.707107 0.000000 -0.866025 0.500000 0.000000 -0.965926 0.258819 0.000000 -1.000000 0.000000 0.000000 -0.965926 -0.258819 0.000000 -0.866025 -0.500000 0.000000 -0.707107 -0.707107 0.000000 -0.500000 -0.866025 0.000000 -0.258819 -0.965926 0.000000 -0.000000 -1.000000 0.000000 0.258819 -0.965926 0.000000 0.500000 -0.866025 0.000000 0.707107 -0.707107 0.000000 0.866025 -0.500000 0.000000 0.965926 -0.258819 0.000000 0.000000 0.000000 -1.000000 0.000000 0.000000 1.000000</float_array>
<technique_common>
<accessor source="#geom_body2-normals-array" count="50" stride="3">
<param name="X" type="float"/><param name="Y" type="float"/><param name="Z" type="float"/>
</accessor></technique_common></source>
<vertices id="geom_body2-vertices"><input semantic="POSITION" source="#geom_body2-positions"/></vertices>
<triangles material="mat2_symbol" count="96">
<input semantic="VERTEX" source="#geom_body2-vertices" offset="0"/>
<input semantic="NORMAL" source="#geom_body2-normals" offset="1"/>
<p>0 0 24 24 25 25 0 0 25 25 1 1 1 1 25 25 26 26 1 1 26 26 2 2 2 2 26 26 27 27 2 2 27 27 3 3 3 3 27 27 28 28 3 3 28 28 4 4 4 4 28 28 29 29 4 4 29 29 5 5 5 5 29 29 30 30 5 5 30 30 6 6 6 6 30 30 31 31 6 6 31 31 7 7 7 7 31 31 32 32 7 7 32 32 8 8 8 8 32 32 33 33 8 8 33 33 9 9 9 9 33 33 34 34 9 9 34 34 10 10 10 10 34 34 35 35 10 10 35 35 11 11 11 11 35 35 36 36 11 11 36 36 12 12 12 12 36 36 37 37 12 12 37 37 13 13 13 13 37 37 38 38 13 13 38 38 14 14 14 14 38 38 39 39 14 14 39 39 15 15 15 15 39 39 40 40 15 15 40 40 16 16 16 16 40 40 41 41 16 16 41 41 17 17 17 17 41 41 42 42 17 17 42 42 18 18 18 18 42 42 43 43 18 18 43 43 19 19 19 19 43 43 44 44 19 19 44 44 20 20 20 20 44 44 45 45 20 20 45 45 21 21 21 21 45 45 46 46 21 21 46 46 22 22 22 22 46 46 47 47 22 22 47 47 23 23 23 23 47 47 24 24 23 23 24 24 0 0 48 48 1 1 0 0 48 48 2 2 1 1 48 48 3 3 2 2 48 48 4 4 3 3 48 48 5 5 4 4 48 48 6 6 5 5 48 48 7 7 6 6 48 48 8 8 7 7 48 48 9 9 8 8 48 48 10 10 9 9 48 48 11 11 10 10 48 48 12 12 11 11 48 48 13 13 12 12 48 48 14 14 13 13 48 48 15 15 14 14 48 48 16 16 15 15 48 48 17 17 16 16 48 48 18 18 17 17 48 48 19 19 18 18 48 48 20 20 19 19 48 48 21 21 20 20 48 48 22 22 21 21 48 48 23 23 22 22 48 48 0 0 23 23 49 49 24 24 25 25 49 49 25 25 26 26 49 49 26 26 27 27 49 49 27 27 28 28 49 49 28 28 29 29 49 49 29 29 30 30 49 49 30 30 31 31 49 49 31 31 32 32 49 49 32 32 33 33 49 49 33 33 34 34 49 49 34 34 35 35 49 49 35 35 36 36 49 49 36 36 37 37 49 49 37 37 38 38 49 49 38 38 39 39 49 49 39 39 40 40 49 49 40 40 41 41 49 49 41 41 42 42 49 49 42 42 43 43 49 49 43 43 44 44 49 49 44 44 45 45 49 49 45 45 46 46 49 49 46 46 47 47 49 49 47 47 24 24</p>
</triangles>
</mesh></geometry>
    <geometry id="geom_body3" name="body3_cap">
<mesh>
<source id="geom_body3-positions">
<float_array id="geom_body3-positions-array" count="723">0.000000 0.000000 0.031502 0.003880 0.000000 0.031266 0.003747 0.001004 0.031266 0.003360 0.001940 0.031266 0.002743 0.002743 0.031266 0.001940 0.003360 0.031266 0.001004 0.003747 0.031266 0.000000 0.003880 0.031266 -0.001004 0.003747 0.031266 -0.001940 0.003360 0.031266 -0.002743 0.002743 0.031266 -0.003360 0.001940 0.031266 -0.003747 0.001004 0.031266 -0.003880 0.000000 0.031266 -0.003747 -0.001004 0.031266 -0.003360 -0.001940 0.031266 -0.002743 -0.002743 0.031266 -0.001940 -0.003360 0.031266 -0.001004 -0.003747 0.031266 -0.000000 -0.003880 0.031266 0.001004 -0.003747 0.031266 0.001940 -0.003360 0.031266 0.002743 -0.002743 0.031266 0.003360 -0.001940 0.031266 0.003747 -0.001004 0.031266 0.007702 0.000000 0.030561 0.007439 0.001993 0.030561 0.006670 0.003851 0.030561 0.005446 0.005446 0.030561 0.003851 0.006670 0.030561 0.001993 0.007439 0.030561 0.000000 0.007702 0.030561 -0.001993 0.007439 0.030561 -0.003851 0.006670 0.030561 -0.005446 0.005446 0.030561 -0.006670 0.003851 0.030561 -0.007439 0.001993 0.030561 -0.007702 0.000000 0.030561 -0.007439 -0.001993 0.030561 -0.006670 -0.003851 0.030561 -0.005446 -0.005446 0.030561 -0.003851 -0.006670 0.030561 -0.001993 -0.007439 0.030561 -0.000000 -0.007702 0.030561 0.001993 -0.007439 0.030561 0.003851 -0.006670 0.030561 0.005446 -0.005446 0.030561 0.006670 -0.003851 0.030561 0.007439 -0.001993 0.030561 0.011411 0.000000 0.029398 0.011022 0.002953 0.029398 0.009882 0.005705 0.029398 0.008069 0.008069 0.029398 0.005705 0.009882 0.029398 0.002953 0.011022 0.029398 0.000000 0.011411 0.029398 -0.002953 0.011022 0.029398 -0.005705 0.009882 0.029398 -0.008069 0.008069 0.029398 -0.009882 0.005705 0.029398 -0.011022 0.002953 0.029398 -0.011411 0.000000 0.029398 -0.011022 -0.002953 0.029398 -0.009882 -0.005705 0.029398 -0.008069 -0.008069 0.029398 -0.005705 -0.009882 0.029398 -0.002953 -0.011022 0.029398 -0.000000 -0.011411 0.029398 0.002953 -0.011022 0.029398 0.005705 -0.009882 0.029398 0.008069 -0.008069 0.029398 0.009882 -0.005705 0.029398 0.011022 -0.002953 0.029398 0.014951 0.000000 0.027795 0.014442 0.003870 0.027795 0.012948 0.007476 0.027795 0.010572 0.010572 0.027795 0.007476 0.012948 0.027795 0.003870 0.014442 0.027795 0.000000 0.014951 0.027795 -0.003870 0.014442 0.027795 -0.007476 0.012948 0.027795 -0.010572 0.010572 0.027795 -0.012948 0.007476 0.027795 -0.014442 0.003870 0.027795 -0.014951 0.000000 0.027795 -0.014442 -0.003870 0.027795 -0.012948 -0.007476 0.027795 -0.010572 -0.010572 0.027795 -0.007476 -0.012948 0.027795 -0.003870 -0.014442 0.027795 -0.000000 -0.014951 0.027795 0.003870 -0.014442 0.027795 0.007476 -0.012948 0.027795 0.010572 -0.010572 0.027795 0.012948 -0.007476 0.027795 0.014442 -0.003870 0.027795 0.018271 0.000000 0.025773 0.017648 0.004729 0.025773 0.015823 0.009135 0.025773 0.012919 0.012919 0.025773 0.009135 0.015823 0.025773 0.004729 0.017648 0.025773 0.000000 0.018271 0.025773 -0.004729 0.017648 0.025773 -0.009135 0.015823 0.025773 -0.012919 0.012919 0.025773 -0.015823 0.009135 0.025773 -0.017648 0.004729 0.025773 -0.018271 0.000000 0.025773 -0.017648 -0.004729 0.025773 -0.015823 -0.009135 0.025773 -0.012919 -0.012919 0.025773 -0.009135 -0.015823 0.025773 -0.004729 -0.017648 0.025773 -0.000000 -0.018271 0.025773 0.004729 -0.017648 0.025773 0.009135 -0.015823 0.025773 0.012919 -0.012919 0.025773 0.015823 -0.009135 0.025773 0.017648 -0.004729 0.025773 0.021321 0.000000 0.023364 0.020595 0.005518 0.023364 0.018465 0.010661 0.023364 0.015076 0.015076 0.023364 0.010661 0.018465 0.023364 0.005518 0.020595 0.023364 0.000000 0.021321 0.023364 -0.005518 0.020595 0.023364 -0.010661 0.018465 0.023364 -0.015076 0.015076 0.023364 -0.018465 0.010661 0.023364 -0.020595 0.005518 0.023364 -0.021321 0.000000 0.023364 -0.020595 -0.005518 0.023364 -0.018465 -0.010661 0.023364 -0.015076 -0.015076 0.023364 -0.010661 -0.018465 0.023364 -0.005518 -0.020595 0.023364 -0.000000 -0.021321 0.023364 0.005518 -0.020595 0.023364 0.010661 -0.018465 0.023364 0.015076 -0.015076 0.023364 0.018465 -0.010661 0.023364 0.020595 -0.005518 0.023364 0.024057 0.000000 0.020603 0.023237 0.006226 0.020603 0.020834 0.012028 0.020603 0.017011 0.017011 0.020603 0.012028 0.020834 0.020603 0.006226 0.023237 0.020603 0.000000 0.024057 0.020603 -0.006226 0.023237 0.020603 -0.012028 0.020834 0.020603 -0.017011 0.017011 0.020603 -0.020834 0.012028 0.020603 -0.023237 0.006226 0.020603 -0.024057 0.000000 0.020603 -0.023237 -0.006226 0.020603 -0.020834 -0.012028 0.020603 -0.017011 -0.017011 0.020603 -0.012028 -0.020834 0.020603 -0.006226 -0.023237 0.020603 -0.000000 -0.024057 0.020603 0.006226 -0.023237 0.020603 0.012028 -0.020834 0.020603 0.017011 -0.017011 0.020603 0.020834 -0.012028 0.020603 0.023237 -0.006226 0.020603 0.026438 0.000000 0.017531 0.025537 0.006843 0.017531 0.022896 0.013219 0.017531 0.018694 0.018694 0.017531 0.013219 0.022896 0.017531 0.006843 0.025537 0.017531 0.000000 0.026438 0.017531 -0.006843 0.025537 0.017531 -0.013219 0.022896 0.017531 -0.018694 0.018694 0.017531 -0.022896 0.013219 0.017531 -0.025537 0.006843 0.017531 -0.026438 0.000000 0.017531 -0.025537 -0.006843 0.017531 -0.022896 -0.013219 0.017531 -0.018694 -0.018694 0.017531 -0.013219 -0.022896 0.017531 -0.006843 -0.025537 0.017531 -0.000000 -0.026438 0.017531 0.006843 -0.025537 0.017531 0.013219 -0.022896 0.017531 0.018694 -0.018694 0.017531 0.022896 -0.013219 0.017531 0.025537 -0.006843 0.017531 0.028428 0.000000 0.014193 0.027460 0.007358 0.014193 0.024620 0.014214 0.014193 0.020102 0.020102 0.014193 0.014214 0.024620 0.014193 0.007358 0.027460 0.014193 0.000000 0.028428 0.014193 -0.007358 0.027460 0.014193 -0.014214 0.024620 0.014193 -0.020102 0.020102 0.014193 -0.024620 0.014214 0.014193 -0.027460 0.007358 0.014193 -0.028428 0.000000 0.014193 -0.027460 -0.007358 0.014193 -0.024620 -0.014214 0.014193 -0.020102 -0.020102 0.014193 -0.014214 -0.024620 0.014193 -0.007358 -0.027460 0.014193 -0.000000 -0.028428 0.014193 0.007358 -0.027460 0.014193 0.014214 -0.024620 0.014193 0.020102 -0.020102 0.014193 0.024620 -0.014214 0.014193 0.027460 -0.007358 0.014193 0.030000 0.000000 0.010638 0.028978 0.007765 0.010638 0.025981 0.015000 0.010638 0.021213 0.021213 0.010638 0.015000 0.025981 0.010638 0.007765 0.028978 0.010638 0.000000 0.030000 0.010638 -0.007765 0.028978 0.010638 -0.015000 0.025981 0.010638 -0.021213 0.021213 0.010638 -0.025981 0.015000 0.010638 -0.028978 0.007765 0.010638 -0.030000 0.000000 0.010638 -0.028978 -0.007765 0.010638 -0.025981 -0.015000 0.010638 -0.021213 -0.021213 0.010638 -0.015000 -0.025981 0.010638 -0.007765 -0.028978 0.010638 -0.000000 -0.030000 0.010638 0.007765 -0.028978 0.010638 0.015000 -0.025981 0.010638 0.021213 -0.021213 0.010638 0.025981 -0.015000 0.010638 0.028978 -0.007765 0.010638</float_array>
<technique_common>
<accessor source="#geom_body3-positions-array" count="241" stride="3">
<param name="X" type="float"/><param name="Y" type="float"/><param name="Z" type="float"/>
</accessor></technique_common></source>
<source id="geom_body3-normals">
<float_array id="geom_body3-normals-array" count="723">0.000000 0.000000 1.000000 0.121237 0.000000 0.992624 0.117106 0.031378 0.992624 0.104994 0.060618 0.992624 0.085727 0.085727 0.992624 0.060618 0.104994 0.992624 0.031378 0.117106 0.992624 0.000000 0.121237 0.992624 -0.031378 0.117106 0.992624 -0.060618 0.104994 0.992624 -0.085727 0.085727 0.992624 -0.104994 0.060618 0.992624 -0.117106 0.031378 0.992624 -0.121237 0.000000 0.992624 -0.117106 -0.031378 0.992624 -0.104994 -0.060618 0.992624 -0.085727 -0.085727 0.992624 -0.060618 -0.104994 0.992624 -0.031378 -0.117106 0.992624 -0.000000 -0.121237 0.992624 0.031378 -0.117106 0.992624 0.060618 -0.104994 0.992624 0.085727 -0.085727 0.992624 0.104994 -0.060618 0.992624 0.117106 -0.031378 0.992624 0.240685 0.000000 0.970603 0.232484 0.062294 0.970603 0.208440 0.120343 0.970603 0.170190 0.170190 0.970603 0.120343 0.208440 0.970603 0.062294 0.232484 0.970603 0.000000 0.240685 0.970603 -0.062294 0.232484 0.970603 -0.120343 0.208440 0.970603 -0.170190 0.170190 0.970603 -0.208440 0.120343 0.970603 -0.232484 0.062294 0.970603 -0.240685 0.000000 0.970603 -0.232484 -0.062294 0.970603 -0.208440 -0.120343 0.970603 -0.170190 -0.170190 0.970603 -0.120343 -0.208440 0.970603 -0.062294 -0.232484 0.970603 -0.000000 -0.240685 0.970603 0.062294 -0.232484 0.970603 0.120343 -0.208440 0.970603 0.170190 -0.170190 0.970603 0.208440 -0.120343 0.970603 0.232484 -0.062294 0.970603 0.356583 0.000000 0.934264 0.344433 0.092290 0.934264 0.308810 0.178291 0.934264 0.252142 0.252142 0.934264 0.178291 0.308810 0.934264 0.092290 0.344433 0.934264 0.000000 0.356583 0.934264 -0.092290 0.344433 0.934264 -0.178291 0.308810 0.934264 -0.252142 0.252142 0.934264 -0.308810 0.178291 0.934264 -0.344433 0.092290 0.934264 -0.356583 0.000000 0.934264 -0.344433 -0.092290 0.934264 -0.308810 -0.178291 0.934264 -0.252142 -0.252142 0.934264 -0.178291 -0.308810 0.934264 -0.092290 -0.344433 0.934264 -0.000000 -0.356583 0.934264 0.092290 -0.344433 0.934264 0.178291 -0.308810 0.934264 0.252142 -0.252142 0.934264 0.308810 -0.178291 0.934264 0.344433 -0.092290 0.934264 0.467220 0.000000 0.884141 0.451300 0.120925 0.884141 0.404624 0.233610 0.884141 0.330374 0.330374 0.884141 0.233610 0.404624 0.884141 0.120925 0.451300 0.884141 0.000000 0.467220 0.884141 -0.120925 0.451300 0.884141 -0.233610 0.404624 0.884141 -0.330374 0.330374 0.884141 -0.404624 0.233610 0.884141 -0.451300 0.120925 0.884141 -0.467220 0.000000 0.884141 -0.451300 -0.120925 0.884141 -0.404624 -0.233610 0.884141 -0.330374 -0.330374 0.884141 -0.233610 -0.404624 0.884141 -0.120925 -0.451300 0.884141 -0.000000 -0.467220 0.884141 0.120925 -0.451300 0.884141 0.233610 -0.404624 0.884141 0.330374 -0.330374 0.884141 0.404624 -0.233610 0.884141 0.451300 -0.120925 0.884141 0.570964 0.000000 0.820975 0.551509 0.147776 0.820975 0.494469 0.285482 0.820975 0.403733 0.403733 0.820975 0.285482 0.494469 0.820975 0.147776 0.551509 0.820975 0.000000 0.570964 0.820975 -0.147776 0.551509 0.820975 -0.285482 0.494469 0.820975 -0.403733 0.403733 0.820975 -0.494469 0.285482 0.820975 -0.551509 0.147776 0.820975 -0.570964 0.000000 0.820975 -0.551509 -0.147776 0.820975 -0.494469 -0.285482 0.820975 -0.403733 -0.403733 0.820975 -0.285482 -0.494469 0.820975 -0.147776 -0.551509 0.820975 -0.000000 -0.570964 0.820975 0.147776 -0.551509 0.820975 0.285482 -0.494469 0.820975 0.403733 -0.403733 0.820975 0.494469 -0.285482 0.820975 0.551509 -0.147776 0.820975 0.666285 0.000000 0.745697 0.643582 0.172447 0.745697 0.577020 0.333142 0.745697 0.471135 0.471135 0.745697 0.333142 0.577020 0.745697 0.172447 0.643582 0.745697 0.000000 0.666285 0.745697 -0.172447 0.643582 0.745697 -0.333142 0.577020 0.745697 -0.471135 0.471135 0.745697 -0.577020 0.333142 0.745697 -0.643582 0.172447 0.745697 -0.666285 0.000000 0.745697 -0.643582 -0.172447 0.745697 -0.577020 -0.333142 0.745697 -0.471135 -0.471135 0.745697 -0.333142 -0.577020 0.745697 -0.172447 -0.643582 0.745697 -0.000000 -0.666285 0.745697 0.172447 -0.643582 0.745697 0.333142 -0.577020 0.745697 0.471135 -0.471135 0.745697 0.577020 -0.333142 0.745697 0.643582 -0.172447 0.745697 0.751776 0.000000 0.659418 0.726160 0.194574 0.659418 0.651057 0.375888 0.659418 0.531586 0.531586 0.659418 0.375888 0.651057 0.659418 0.194574 0.726160 0.659418 0.000000 0.751776 0.659418 -0.194574 0.726160 0.659418 -0.375888 0.651057 0.659418 -0.531586 0.531586 0.659418 -0.651057 0.375888 0.659418 -0.726160 0.194574 0.659418 -0.751776 0.000000 0.659418 -0.726160 -0.194574 0.659418 -0.651057 -0.375888 0.659418 -0.531586 -0.531586 0.659418 -0.375888 -0.651057 0.659418 -0.194574 -0.726160 0.659418 -0.000000 -0.751776 0.659418 0.194574 -0.726160 0.659418 0.375888 -0.651057 0.659418 0.531586 -0.531586 0.659418 0.651057 -0.375888 0.659418 0.726160 -0.194574 0.659418 0.826177 0.000000 0.563411 0.798025 0.213830 0.563411 0.715490 0.413088 0.563411 0.584195 0.584195 0.563411 0.413088 0.715490 0.563411 0.213830 0.798025 0.563411 0.000000 0.826177 0.563411 -0.213830 0.798025 0.563411 -0.413088 0.715490 0.563411 -0.584195 0.584195 0.563411 -0.715490 0.413088 0.563411 -0.798025 0.213830 0.563411 -0.826177 0.000000 0.563411 -0.798025 -0.213830 0.563411 -0.715490 -0.413088 0.563411 -0.584195 -0.584195 0.563411 -0.413088 -0.715490 0.563411 -0.213830 -0.798025 0.563411 -0.000000 -0.826177 0.563411 0.213830 -0.798025 0.563411 0.413088 -0.715490 0.563411 0.584195 -0.584195 0.563411 0.715490 -0.413088 0.563411 0.798025 -0.213830 0.563411 0.888389 0.000000 0.459092 0.858118 0.229932 0.459092 0.769367 0.444194 0.459092 0.628186 0.628186 0.459092 0.444194 0.769367 0.459092 0.229932 0.858118 0.459092 0.000000 0.888389 0.459092 -0.229932 0.858118 0.459092 -0.444194 0.769367 0.459092 -0.628186 0.628186 0.459092 -0.769367 0.444194 0.459092 -0.858118 0.229932 0.459092 -0.888389 0.000000 0.459092 -0.858118 -0.229932 0.459092 -0.769367 -0.444194 0.459092 -0.628186 -0.628186 0.459092 -0.444194 -0.769367 0.459092 -0.229932 -0.858118 0.459092 -0.000000 -0.888389 0.459092 0.229932 -0.858118 0.459092 0.444194 -0.769367 0.459092 0.628186 -0.628186 0.459092 0.769367 -0.444194 0.459092 0.858118 -0.229932 0.459092 0.937495 0.000000 0.348000 0.905550 0.242641 0.348000 0.811894 0.468747 0.348000 0.662909 0.662909 0.348000 0.468747 0.811894 0.348000 0.242641 0.905550 0.348000 0.000000 0.937495 0.348000 -0.242641 0.905550 0.348000 -0.468747 0.811894 0.348000 -0.662909 0.662909 0.348000 -0.811894 0.468747 0.348000 -0.905550 0.242641 0.348000 -0.937495 0.000000 0.348000 -0.905550 -0.242641 0.348000 -0.811894 -0.468747 0.348000 -0.662909 -0.662909 0.348000 -0.468747 -0.811894 0.348000 -0.242641 -0.905550 0.348000 -0.000000 -0.937495 0.348000 0.242641 -0.905550 0.348000 0.468747 -0.811894 0.348000 0.662909 -0.662909 0.348000 0.811894 -0.468747 0.348000 0.905550 -0.242641 0.348000</float_array>
<technique_common>
<accessor source="#geom_body3-normals-array" count="241" stride="3">
<param name="X" type="float"/><param name="Y" type="float"/><param name="Z" type="float"/>
</accessor></technique_common></source>
<vertices id="geom_body3-vertices"><input semantic="POSITION" source="#geom_body3-positions"/></vertices>
<triangles material="mat3_symbol" count="456">
<input semantic="VERTEX" source="#geom_body3-vertices" offset="0"/>
<input semantic="NORMAL" source="#geom_body3-normals" offset="1"/>
<p>0 0 1 1 2 2 0 0 2 2 3 3 0 0 3 3 4 4 0 0 4 4 5 5 0 0 5 5 6 6 0 0 6 6 7 7 0 0 7 7 8 8 0 0 8 8 9 9 0 0 9 9 10 10 0 0 10 10 11 11 0 0 11 11 12 12 0 0 12 12 13 13 0 0 13 13 14 14 0 0 14 14 15 15 0 0 15 15 16 16 0 0 16 16 17 17 0 0 17 17 18 18 0 0 18 18 19 19 0 0 19 19 20 20 0 0 20 20 21 21 0 0 21 21 22 22 0 0 22 22 23 23 0 0 23 23 24 24 0 0 24 24 1 1 1 1 25 25 26 26 1 1 26 26 2 2 2 2 26 26 27 27 2 2 27 27 3 3 3 3 27 27 28 28 3 3 28 28 4 4 4 4 28 28 29 29 4 4 29 29 5 5 5 5 29 29 30 30 5 5 30 30 6 6 6 6 30 30 31 31 6 6 31 31 7 7 7 7 31 31 32 32 7 7 32 32 8 8 8 8 32 32 33 33 8 8 33 33 9 9 9 9 33 33 34 34 9 9 34 34 10 10 10 10 34 34 35 35 10 10 35 35 11 11 11 11 35 35 36 36 11 11 36 36 12 12 12 12 36 36 37 37 12 12 37 37 13 13 13 13 37 37 38 38 13 13 38 38 14 14 14 14 38 38 39 39 14 14 39 39 15 15 15 15 39 39 40 40 15 15 40 40 16 16 16 16 40 40 41 41 16 16 41 41 17 17 17 17 41 41 42 42 17 17 42 42 18 18 18 18 42 42 43 43 18 18 43 43 19 19 19 19 43 43 44 44 19 19 44 44 20 20 20 20 44 44 45 45 20 20 45 45 21 21 21 21 45 45 46 46 21 21 46 46 22 22 22 22 46 46 47 47 22 22 47 47 23 23 23 23 47 47 48 48 23 23 48 48 24 24 24 24 48 48 25 25 24 24 25 25 1 1 25 25 49 49 50 50 25 25 50 50 26 26 26 26 50 50 51 51 26 26 51 51 27 27 27 27 51 51 52 52 27 27 52 52 28 28 28 28 52 52 53 53 28 28 53 53 29 29 29 29 53 53 54 54 29 29 54 54 30 30 30 30 54 54 55 55 30 30 55 55 31 31 31 31 55 55 56 56 31 31 56 56 32 32 32 32 56 56 57 57 32 32 57 57 33 33 33 33 57 57 58 58 33 33 58 58 34 34 34 34 58 58 59 59 34 34 59 59 35 35 35 35 59 59 60 60 35 35 60 60 36 36 36 36 60 60 61 61 36 36 61 61 37 37 37 37 61 61 62 62 37 37 62 62 38 38 38 38 62 62 63 63 38 38 63 63 39 39 39 39 63 63 64 64 39 39 64 64 40 40 40 40 64 64 65 65 40 40 65 65 41 41 41 41 65 65 66 66 41 41 66 66 42 42 42 42 66 66 67 67 42 42 67 67 43 43 43 43 67 67 68 68 43 43 68 68 44 44 44 44 68 68 69 69 44 44 69 69 45 45 45 45 69 69 70 70 45 45 70 70 46 46 46 46 70 70 71 71 46 46 71 71 47 47 47 47 71 71 72 72 47 47 72 72 48 48 48 48 72 72 49 49 48 48 49 49 25 25 49 49 73 73 74 74 49 49 74 74 50 50 50 50 74 74 75 75 50 50 75 75 51 51 51 51 75 75 76 76 51 51 76 76 52 52 52 52 76 76 77 77 52 52 77 77 53 53 53 53 77 77 78 78 53 53 78 78 54 54 54 54 78 78 79 79 54 54 79 79 55 55 55 55 79 79 80 80 55 55 80 80 56 56 56 56 80 80 81 81 56 56 81 81 57 57 57 57 81 81 82 82 57 57 82 82 58 58 58 58 82 82 83 83 58 58 83 83 59 59 59 59 83 83 84 84 59 59 84 84 60 60 60 60 84 84 85 85 60 60 85 85 61 61 61 61 85 85 86 86 61 61 86 86 62 62 62 62 86 86 87 87 62 62 87 87 63 63 63 63 87 87 88 88 63 63 88 88 64 64 64 64 88 88 89 89 64 64 89 89 65 65 65 65 89 89 90 90 65 65 90 90 66 66 66 66 90 90 91 91 66 66 91 91 67 67 67 67 91 91 92 92 67 67 92 92 68 68 68 68 92 92 93 93 68 68 93 93 69 69 69 69 93 93 94 94 69 69 94 94 70 70 70 70 94 94 95 95 70 70 95 95 71 71 71 71 95 95 96 96 71 71 96 96 72 72 72 72 96 96 73 73 72 72 73 73 49 49 73 73 97 97 98 98 73 73 98 98 74 74 74 74 98 98 99 99 74 74 99 99 75 75 75 75 99 99 100 100 75 75 100 100 76 76 76 76 100 100 101 101 76 76 101 101 77 77 77 77 101 101 102 102 77 77 102 102 78 78 78 78 102 102 103 103 78 78 103 103 79 79 79 79 103 103 104 104 79 79 104 104 80 80 80 80 104 104 105 105 80 80 105 105 81 81 81 81 105 105 106 106 81 81 106 106 82 82 82 82 106 106 107 107 82 82 107 107 83 83 83 83 107 107 108 108 83 83 108 108 84 84 84 84 108 108 109 109 84 84 109 109 85 85 85 85 109 109 110 110 85 85 110 110 86 86 86 86 110 110 111 111 86 86 111 111 87 87 87 87 111 111 112 112 87 87 112 112 88 88 88 88 112 112 113 113 88 88 113 113 89 89 89 89 113 113 114 114 89 89 114 114 90 90 90 90 114 114 115 115 90 90 115 115 91 91 91 91 115 115 116 116 91 91 116 116 92 92 92 92 116 116 117 117 92 92 117 117 93 93 93 93 117 117 118 118 93 93 118 118 94 94 94 94 118 118 119 119 94 94 119 119 95 95 95 95 119 119 120 120 95 95 120 120 96 96 96 96 120 120 97 97 96 96 97 97 73 73 97 97 121 121 122 122 97 97 122 122 98 98 98 98 122 122 123 123 98 98 123 123 99 99 99 99 123 123 124 124 99 99 124 124 100 100 100 100 124 124 125 125 100 100 125 125 101 101 101 101 125 125 126 126 101 101 126 126 102 102 102 102 126 126 127 127 102 102 127 127 103 103 103 103 127 127 128 128 103 103 128 128 104 104 104 104 128 128 129 129 104 104 129 129 105 105 105 105 129 129 130 130 105 105 130 130 106 106 106 106 130 130 131 131 106 106 131 131 107 107 107 107 131 131 132 132 107 107 132 132 108 108 108 108 132 132 133 133 108 108 133 133 109 109 109 109 133 133 134 134 109 109 134 134 110 110 110 110 134 134 135 135 110 110 135 135 111 111 111 111 135 135 136 136 111 111 136 136 112 112 112 112 136 136 137 137 112 112 137 137 113 113 113 113 137 137 138 138 113 113 138 138 114 114 114 114 138 138 139 139 114 114 139 139 115 115 115 115 139 139 140 140 115 115 140 140 116 116 116 116 140 140 141 141 116 116 141 141 117 117 117 117 141 141 142 142 117 117 142 142 118 118 118 118 142 142 143 143 118 118 143 143 119 119 119 119 143 143 144 144 119 119 144 144 120 120 120 120 144 144 121 121 120 120 121 121 97 97 121 121 145 145 146 146 121 121 146 146 122 122 122 122 146 146 147 147 122 122 147 147 123 123 123 123 147 147 148 148 123 123 148 148 124 124 124 124 148 148 149 149 124 124 149 149 125 125 125 125 149 149 150 150 125 125 150 150 126 126 126 126 150 150 151 151 126 126 151 151 127 127 127 127 151 151 152 152 127 127 152 152 128 128 128 128 152 152 153 153 128 128 153 153 129 129 129 129 153 153 154 154 129 129 154 154 130 130 130 130 154 154 155 155 130 130 155 155 131 131 131 131 155 155 156 156 131 131 156 156 132 132 132 132 156 156 157 157 132 132 157 157 133 133 133 133 157 157 158 158 133 133 158 158 134 134 134 134 158 158 159 159 134 134 159 159 135 135 135 135 159 159 160 160 135 135 160 160 136 136 136 136 160 160 161 161 136 136 161 161 137 137 137 137 161 161 162 162 137 137 162 162 138 138 138 138 162 162 163 163 138 138 163 163 139 139 139 139 163 163 164 164 139 139 164 164 140 140 140 140 164 164 165 165 140 140 165 165 141 141 141 141 165 165 166 166 141 141 166 166 142 142 142 142 166 166 167 167 142 142 167 167 143 143 143 143 167 167 168 168 143 143 168 168 144 144 144 144 168 168 145 145 144 144 145 145 121 121 145 145 169 169 170 170 145 145 170 170 146 146 146 146 170 170 171 171 146 146 171 171 147 147 147 147 171 171 172 172 147 147 172 172 148 148 148 148 172 172 173 173 148 148 173 173 149 149 149 149 173 173 174 174 149 149 174 174 150 150 150 150 174 174 175 175 150 150 175 175 151 151 151 151 175 175 176 176 151 151 176 176 152 152 152 152 176 176 177 177 152 152 177 177 153 153 153 153 177 177 178 178 153 153 178 178 154 154 154 154 178 178 179 179 154 154 179 179 155 155 155 155 179 179 180 180 155 155 180 180 156 156 156 156 180 180 181 181 156 156 181 181 157 157 157 157 181 181 182 182 157 157 182 182 158 158 158 158 182 182 183 183 158 158 183 183 159 159 159 159 183 183 184 184 159 159 184 184 160 160 160 160 184 184 185 185 160 160 185 185 161 161 161 161 185 185 186 186 161 161 186 186 162 162 162 162 186 186 187 187 162 162 187 187 163 163 163 163 187 187 188 188 163 163 188 188 164 164 164 164 188 188 189 189 164 164 189 189 165 165 165 165 189 189 190 190 165 165 190 190 166 166 166 166 190 190 191 191 166 166 191 191 167 167 167 167 191 191 192 192 167 167 192 192 168 168 168 168 192 192 169 169 168 168 169 169 145 145 169 169 193 193 194 194 169 169 194 194 170 170 170 170 194 194 195 195 170 170 195 195 171 171 171 171 195 195 196 196 171 171 196 196 172 172 172 172 196 196 197 197 172 172 197 197 173 173 173 173 197 197 198 198 173 173 198 198 174 174 174 174 198 198 199 199 174 174 199 199 175 175 175 175 199 199 200 200 175 175 200 200 176 176 176 176 200 200 201 201 176 176 201 201 177 177 177 177 201 201 202 202 177 177 202 202 178 178 178 178 202 202 203 203 178 178 203 203 179 179 179 179 203 203 204 204 179 179 204 204 180 180 180 180 204 204 205 205 180 180 205 205 181 181 181 181 205 205 206 206 181 181 206 206 182 182 182 182 206 206 207 207 182 182 207 207 183 183 183 183 207 207 208 208 183 183 208 208 184 184 184 184 208 208 209 209 184 184 209 209 185 185 185 185 209 209 210 210 185 185 210 210 186 186 186 186 210 210 211 211 186 186 211 211 187 187 187 187 211 211 212 212 187 187 212 212 188 188 188 188 212 212 213 213 188 188 213 213 189 189 189 189 213 213 214 214 189 189 214 214 190 190 190 190 214 214 215 215 190 190 215 215 191 191 191 191 215 215 216 216 191 191 216 216 192 192 192 192 216 216 193 193 192 192 193 193 169 169 193 193 217 217 218 218 193 193 218 218 194 194 194 194 218 218 219 219 194 194 219 219 195 195 195 195 219 219 220 220 195 195 220 220 196 196 196 196 220 220 221 221 196 196 221 221 197 197 197 197 221 221 222 222 197 197 222 222 198 198 198 198 222 222 223 223 198 198 223 223 199 199 199 199 223 223 224 224 199 199 224 224 200 200 200 200 224 224 225 225 200 200 225 225 201 201 201 201 225 225 226 226 201 201 226 226 202 202 202 202 226 226 227 227 202 202 227 227 203 203 203 203 227 227 228 228 203 203 228 228 204 204 204 204 228 228 229 229 204 204 229 229 205 205 205 205 229 229 230 230 205 205 230 230 206 206 206 206 230 230 231 231 206 206 231 231 207 207 207 207 231 231 232 232 207 207 232 232 208 208 208 208 232 232 233 233 208 208 233 233 209 209 209 209 233 233 234 234 209 209 234 234 210 210 210 210 234 234 235 235 210 210 235 235 211 211 211 211 235 235 236 236 211 211 236 236 212 212 212 212 236 236 237 237 212 212 237 237 213 213 213 213 237 237 238 238 213 213 238 238 214 214 214 214 238 238 239 239 214 214 239 239 215 215 215 215 239 239 240 240 215 215 240 240 216 216 216 216 240 240 217 217 216 216 217 217 193 193</p>
</triangles>
</mesh></geometry>
  </library_geometries>
  <library_visual_scenes>
    <visual_scene id="Scene" name="Scene">
  <node id="lidar_airy_simple" name="lidar_airy_simple">
    <matrix sid="transform">1 0 0 0  0 1 0 0  0 0 1 0  0 0 0 1</matrix>
    <node id="body1_node" name="body1">
      <instance_geometry url="#geom_body1">
        <bind_material><technique_common>
          <instance_material symbol="mat1_symbol" target="#mat_matte_black"/>
        </technique_common></bind_material>
      </instance_geometry>
    </node>
    <node id="body2_node" name="body2">
      <instance_geometry url="#geom_body2">
        <bind_material><technique_common>
          <instance_material symbol="mat2_symbol" target="#mat_gloss_black"/>
        </technique_common></bind_material>
      </instance_geometry>
    </node>
    <node id="body3_node" name="body3">
      <instance_geometry url="#geom_body3">
        <bind_material><technique_common>
          <instance_material symbol="mat3_symbol" target="#mat_solid_black"/>
        </technique_common></bind_material>
      </instance_geometry>
    </node>
  </node>
</visual_scene>
  </library_visual_scenes>
  <scene>
    <instance_visual_scene url="#Scene"/>
  </scene>
</COLLADA>
