# Blender 5.2.1 LTS
# www.blender.org
mtllib basket_container.mtl
o basket_container
v -0.390000 0.300000 0.195000
v 0.390000 0.300000 0.195000
v -0.387302 0.299300 0.195000
v 0.387302 0.299300 0.195000
v 0.393301 0.297692 0.195000
v 0.395000 0.298660 0.195000
v 0.397692 0.293301 0.195000
v 0.398660 0.295000 0.195000
v 0.399300 0.287302 0.195000
v 0.400000 0.290000 0.195000
v 0.399300 -0.287302 0.195000
v 0.400000 -0.300000 0.195000
v 0.397692 -0.293301 0.195000
v -0.390000 -0.300000 0.195000
v 0.387302 -0.299300 0.195000
v 0.393301 -0.297692 0.195000
v -0.395000 0.298660 0.195000
v -0.393301 0.297692 0.195000
v -0.398660 0.295000 0.195000
v -0.397692 0.293301 0.195000
v -0.400000 0.290000 0.195000
v -0.399300 0.287302 0.195000
v -0.400000 -0.290000 0.195000
v -0.399300 -0.287302 0.195000
v -0.398660 -0.295000 0.195000
v -0.397692 -0.293301 0.195000
v -0.395000 -0.298660 0.195000
v -0.393301 -0.297692 0.195000
v -0.387302 -0.299300 0.195000
v 0.400000 -0.300000 0.198000
v 0.400000 0.290000 0.198000
v 0.390000 0.300000 0.198000
v -0.390000 0.300000 0.198000
v -0.400000 0.290000 0.198000
v -0.400000 -0.290000 0.198000
v -0.390000 -0.300000 0.198000
v 0.398660 0.295000 0.198000
v 0.395000 0.298660 0.198000
v -0.395000 0.298660 0.198000
v -0.398660 0.295000 0.198000
v -0.398660 -0.295000 0.198000
v -0.395000 -0.298660 0.198000
v -0.396928 -0.294000 0.200000
v -0.379500 -0.279500 0.200000
v -0.398000 -0.290000 0.200000
v -0.379500 0.279500 0.200000
v -0.398000 0.290000 0.200000
v -0.396928 0.294000 0.200000
v -0.394000 -0.296928 0.200000
v -0.390000 -0.298000 0.200000
v 0.379500 -0.279500 0.200000
v 0.398000 -0.298000 0.200000
v 0.379500 0.279500 0.200000
v 0.398000 0.290000 0.200000
v 0.396928 0.294000 0.200000
v -0.394000 0.296928 0.200000
v -0.390000 0.298000 0.200000
v 0.390000 0.298000 0.200000
v 0.394000 0.296928 0.200000
v 0.377500 0.277500 0.198000
v 0.377500 0.277500 0.022500
v 0.377500 -0.277500 0.198000
v 0.377500 -0.277500 0.022500
v -0.377500 0.277500 0.198000
v -0.377500 0.277500 0.022500
v -0.377500 -0.277500 0.198000
v -0.377500 -0.277500 0.022500
v -0.393301 0.287302 0.189105
v -0.390103 0.284104 0.005895
v -0.393301 -0.287302 0.189105
v -0.390103 -0.284104 0.005895
v -0.384104 -0.290103 0.005895
v 0.384104 -0.290103 0.005895
v -0.387302 -0.293301 0.189105
v 0.387302 -0.293301 0.189105
v 0.390103 -0.284104 0.005895
v 0.390103 0.284104 0.005895
v 0.393301 -0.287302 0.189105
v 0.393301 0.287302 0.189105
v 0.387302 0.293301 0.189105
v 0.384104 0.290103 0.005895
v -0.387302 0.293301 0.189105
v -0.384104 0.290103 0.005895
v 0.384104 0.284104 -0.000000
v 0.384104 -0.284104 0.000000
v -0.384104 0.284104 -0.000000
v -0.384104 -0.284104 0.000000
v 0.387074 0.284104 0.000786
v 0.389284 0.284104 0.002972
v 0.389284 -0.284104 0.002972
v 0.389265 0.284104 0.002940
v 0.389265 -0.284104 0.002940
v 0.387090 0.284104 0.000796
v 0.387090 -0.284104 0.000796
v 0.387074 -0.284104 0.000787
v 0.385597 -0.286690 0.000796
v 0.384104 -0.287090 0.000796
v 0.384104 -0.287074 0.000787
v 0.386690 -0.285597 0.000796
v 0.384104 -0.289265 0.002940
v 0.386694 -0.288590 0.002972
v 0.384104 -0.289284 0.002972
v 0.387103 -0.289299 0.005857
v 0.389299 -0.287103 0.005857
v 0.388590 -0.286694 0.002972
v 0.386690 0.285597 0.000796
v 0.385597 0.286690 0.000796
v 0.384104 0.287074 0.000786
v 0.388590 0.286694 0.002972
v 0.389298 0.287103 0.005857
v 0.387103 0.289299 0.005857
v 0.386694 0.288590 0.002972
v 0.384104 0.289284 0.002972
v 0.384104 0.289265 0.002940
v 0.384104 0.287090 0.000796
v 0.392498 -0.290302 0.189143
v 0.390302 -0.292498 0.189143
v -0.384104 -0.289284 0.002972
v -0.384104 -0.289265 0.002940
v -0.384104 -0.287090 0.000796
v -0.384104 -0.287074 0.000787
v -0.387074 -0.284104 0.000787
v -0.389284 -0.284104 0.002972
v -0.389284 0.284104 0.002972
v -0.389265 -0.284104 0.002940
v -0.389265 0.284104 0.002940
v -0.387090 -0.284104 0.000796
v -0.387090 0.284104 0.000796
v -0.387074 0.284104 0.000786
v -0.384104 0.287074 0.000786
v -0.384104 0.289284 0.002972
v -0.384104 0.289265 0.002940
v -0.384104 0.287090 0.000796
v 0.390302 0.292498 0.189143
v 0.392498 0.290302 0.189143
v 0.396330 0.287302 0.194214
v 0.396330 -0.287302 0.194214
v 0.394139 0.287302 0.192060
v 0.394139 -0.287302 0.192060
v 0.390727 -0.293234 0.192082
v 0.393234 -0.290727 0.192082
v 0.395130 -0.291822 0.194220
v 0.387302 -0.294139 0.192060
v 0.391822 -0.295130 0.194220
v 0.387302 -0.296330 0.194214
v -0.386690 -0.285597 0.000796
v -0.385597 -0.286690 0.000796
v -0.388590 -0.286694 0.002972
v -0.389299 -0.287103 0.005857
v -0.387103 -0.289299 0.005857
v -0.386694 -0.288590 0.002972
v -0.385597 0.286690 0.000796
v -0.386690 0.285597 0.000796
v -0.386694 0.288590 0.002972
v -0.387103 0.289299 0.005857
v -0.389298 0.287103 0.005857
v -0.388590 0.286694 0.002972
v 0.393234 0.290727 0.192082
v 0.390727 0.293234 0.192082
v 0.391822 0.295130 0.194220
v 0.395130 0.291822 0.194220
v 0.387302 0.296330 0.194213
v 0.387302 0.294139 0.192060
v -0.387302 -0.296330 0.194214
v -0.387302 -0.294139 0.192060
v -0.390302 -0.292498 0.189143
v -0.392498 -0.290302 0.189143
v -0.392498 0.290302 0.189143
v -0.390302 0.292498 0.189143
v -0.387302 0.296330 0.194213
v -0.387302 0.294139 0.192060
v -0.393234 -0.290727 0.192082
v -0.390727 -0.293234 0.192082
v -0.391822 -0.295130 0.194220
v -0.394139 -0.287302 0.192060
v -0.395130 -0.291822 0.194220
v -0.396330 -0.287302 0.194214
v -0.390727 0.293234 0.192082
v -0.393234 0.290727 0.192082
v -0.395130 0.291822 0.194220
v -0.391822 0.295130 0.194220
v -0.396330 0.287302 0.194214
v -0.394139 0.287302 0.192060
v -0.377568 -0.277568 0.198518
v 0.377768 -0.277768 0.199000
v 0.377568 -0.277568 0.198518
v -0.377768 -0.277768 0.199000
v -0.378500 -0.278500 0.199732
v 0.378500 -0.278500 0.199732
v 0.377768 0.277768 0.199000
v 0.377568 0.277568 0.198518
v 0.378500 0.278500 0.199732
v -0.378500 0.278500 0.199732
v -0.377768 0.277768 0.199000
v -0.377568 0.277568 0.198518
v -0.398528 0.294924 0.198765
v -0.390000 0.299848 0.198765
v -0.394924 0.298528 0.198765
v -0.390000 0.299732 0.199000
v -0.394707 0.298153 0.199414
v -0.399848 0.290000 0.198765
v -0.399732 0.290000 0.199000
v -0.398153 0.294707 0.199414
v -0.394383 0.297591 0.199848
v -0.390000 0.299000 0.199732
v -0.390000 0.299414 0.199414
v -0.390000 0.298765 0.199848
v -0.397591 0.294383 0.199848
v -0.399414 0.290000 0.199414
v -0.399000 0.290000 0.199732
v -0.398765 0.290000 0.199848
v 0.390000 0.299848 0.198765
v 0.390000 0.299732 0.199000
v 0.390000 0.299414 0.199414
v 0.390000 0.299000 0.199732
v 0.390000 0.298765 0.199848
v -0.399848 -0.290000 0.198765
v -0.399732 -0.290000 0.199000
v -0.399414 -0.290000 0.199414
v -0.399000 -0.290000 0.199732
v -0.398765 -0.290000 0.199848
v 0.394924 0.298528 0.198765
v 0.399848 0.290000 0.198765
v 0.398528 0.294924 0.198765
v 0.399732 0.290000 0.199000
v 0.398153 0.294707 0.199414
v 0.394707 0.298153 0.199414
v 0.397591 0.294383 0.199848
v 0.399000 0.290000 0.199732
v 0.399414 0.290000 0.199414
v 0.398765 0.290000 0.199848
v 0.394383 0.297591 0.199848
v -0.394924 -0.298528 0.198765
v -0.398528 -0.294924 0.198765
v -0.398153 -0.294707 0.199414
v -0.390000 -0.299848 0.198765
v -0.390000 -0.299732 0.199000
v -0.394707 -0.298153 0.199414
v -0.397591 -0.294383 0.199848
v -0.394383 -0.297591 0.199848
v -0.390000 -0.299414 0.199414
v -0.390000 -0.299000 0.199732
v -0.390000 -0.298765 0.199848
v 0.399932 -0.299932 0.198518
v 0.399732 -0.299732 0.199000
v 0.399000 -0.299000 0.199732
vn -0.0000 -0.0000 -1.0000
vn 1.0000 -0.0000 -0.0000
vn -0.0000 1.0000 -0.0000
vn -1.0000 -0.0000 -0.0000
vn -0.0000 -1.0000 -0.0000
vn 0.9659 0.2588 -0.0000
vn 0.7071 0.7071 -0.0000
vn 0.2588 0.9659 -0.0000
vn -0.2588 0.9659 -0.0000
vn -0.7071 0.7071 -0.0000
vn -0.9659 0.2588 -0.0000
vn -0.9659 -0.2588 -0.0000
vn -0.7071 -0.7071 -0.0000
vn -0.2588 -0.9659 -0.0000
vn -0.0000 -0.0000 1.0000
vn -0.9998 -0.0000 -0.0175
vn -0.0000 -0.9998 -0.0175
vn 0.9998 -0.0000 -0.0175
vn -0.0000 0.9998 -0.0175
vn 0.2560 -0.0000 -0.9667
vn 0.9629 -0.0000 -0.2698
vn 0.8616 -0.0000 -0.5076
vn 0.7020 -0.0000 -0.7122
vn 0.4963 -0.0000 -0.8682
vn 0.1318 -0.4920 -0.8605
vn 0.2553 -0.0716 -0.9642
vn 0.1849 -0.6899 -0.6999
vn 0.1885 -0.6906 -0.6982
vn 0.1854 -0.6900 -0.6996
vn 0.1887 -0.6906 -0.6981
vn 0.2250 -0.8396 -0.4945
vn 0.2482 -0.9324 -0.2629
vn 0.2496 -0.9316 -0.2643
vn 0.2495 -0.9316 -0.2642
vn 0.2469 -0.9331 -0.2615
vn 0.6820 -0.6820 -0.2643
vn 0.5066 -0.5066 -0.6977
vn 0.1881 -0.1881 -0.9640
vn 0.0716 -0.2554 -0.9642
vn 0.9331 -0.2469 -0.2615
vn 0.9316 -0.2494 -0.2643
vn 0.9323 -0.2483 -0.2629
vn 0.9316 -0.2496 -0.2643
vn 0.8395 -0.2250 -0.4945
vn 0.6900 -0.1855 -0.6996
vn 0.6907 -0.1887 -0.6981
vn 0.6907 -0.1886 -0.6981
vn 0.6899 -0.1849 -0.6999
vn 0.4918 -0.1318 -0.8607
vn 0.4921 0.1319 -0.8605
vn 0.0716 0.2554 -0.9642
vn 0.6899 0.1849 -0.6999
vn 0.6907 0.1885 -0.6981
vn 0.6900 0.1855 -0.6996
vn 0.6907 0.1887 -0.6981
vn 0.8395 0.2250 -0.4945
vn 0.9324 0.2482 -0.2629
vn 0.9316 0.2496 -0.2643
vn 0.9316 0.2495 -0.2642
vn 0.9331 0.2469 -0.2615
vn 0.6820 0.6820 -0.2643
vn 0.5066 0.5066 -0.6977
vn 0.5066 0.5066 -0.6976
vn 0.1881 0.1881 -0.9640
vn 0.2553 0.0716 -0.9642
vn 0.2469 0.9331 -0.2615
vn 0.2495 0.9316 -0.2642
vn 0.2482 0.9324 -0.2629
vn 0.2496 0.9316 -0.2643
vn 0.2250 0.8396 -0.4945
vn 0.1854 0.6900 -0.6996
vn 0.1887 0.6906 -0.6981
vn 0.1885 0.6906 -0.6982
vn 0.1849 0.6899 -0.6999
vn 0.1318 0.4920 -0.8605
vn 0.7069 -0.7069 -0.0247
vn 0.2587 -0.9657 -0.0214
vn 0.9657 -0.2588 -0.0214
vn 0.9657 -0.2587 -0.0214
vn -0.0000 -0.2560 -0.9667
vn -0.0000 -0.9629 -0.2698
vn -0.0000 -0.8615 -0.5077
vn -0.0000 -0.8616 -0.5075
vn -0.0000 -0.7020 -0.7122
vn -0.0000 -0.4963 -0.8682
vn -0.0000 -0.4964 -0.8681
vn -0.0000 -0.4960 -0.8683
vn -0.2560 -0.0000 -0.9667
vn -0.9629 -0.0000 -0.2698
vn -0.8616 -0.0000 -0.5076
vn -0.7020 -0.0000 -0.7122
vn -0.4963 -0.0000 -0.8682
vn -0.0000 0.2560 -0.9667
vn -0.0000 0.9629 -0.2698
vn -0.0000 0.8615 -0.5077
vn -0.0000 0.8616 -0.5075
vn -0.0000 0.7020 -0.7122
vn -0.0000 0.4963 -0.8682
vn -0.0000 0.4964 -0.8681
vn -0.0000 0.4960 -0.8683
vn 0.7069 0.7069 -0.0247
vn 0.9657 0.2587 -0.0214
vn 0.9657 0.2588 -0.0214
vn 0.2587 0.9657 -0.0214
vn 0.7009 -0.0000 -0.7133
vn 0.9621 -0.0000 -0.2728
vn 0.5027 -0.5027 -0.7033
vn 0.2501 -0.9308 -0.2665
vn 0.2525 -0.9309 -0.2640
vn 0.2523 -0.9309 -0.2642
vn 0.0682 -0.2544 -0.9647
vn 0.0683 -0.2546 -0.9646
vn 0.0689 -0.2551 -0.9645
vn 0.0692 -0.2554 -0.9644
vn 0.2475 -0.9308 -0.2691
vn 0.6810 -0.6810 -0.2692
vn 0.1862 -0.1862 -0.9647
vn 0.1859 -0.6884 -0.7011
vn 0.1834 -0.6870 -0.7032
vn 0.1835 -0.6870 -0.7031
vn 0.1864 -0.6886 -0.7008
vn 0.2554 -0.0684 -0.9644
vn 0.2553 -0.0685 -0.9644
vn 0.2543 -0.0687 -0.9647
vn 0.2540 -0.0688 -0.9647
vn 0.6890 -0.1839 -0.7011
vn 0.6888 -0.1840 -0.7012
vn 0.6864 -0.1855 -0.7032
vn 0.6860 -0.1857 -0.7035
vn 0.9320 -0.2478 -0.2643
vn 0.9307 -0.2500 -0.2669
vn 0.9295 -0.2520 -0.2691
vn 0.9294 -0.2522 -0.2694
vn -0.4921 -0.1319 -0.8605
vn -0.0716 -0.2554 -0.9642
vn -0.6899 -0.1849 -0.6999
vn -0.6907 -0.1885 -0.6981
vn -0.6900 -0.1855 -0.6996
vn -0.6907 -0.1887 -0.6981
vn -0.8395 -0.2250 -0.4945
vn -0.9324 -0.2482 -0.2629
vn -0.9316 -0.2496 -0.2643
vn -0.9316 -0.2495 -0.2643
vn -0.9331 -0.2469 -0.2615
vn -0.6820 -0.6819 -0.2643
vn -0.6820 -0.6820 -0.2643
vn -0.5066 -0.5066 -0.6977
vn -0.5066 -0.5066 -0.6976
vn -0.1881 -0.1881 -0.9640
vn -0.2553 -0.0716 -0.9642
vn -0.2469 -0.9331 -0.2615
vn -0.2495 -0.9316 -0.2642
vn -0.2482 -0.9324 -0.2629
vn -0.2496 -0.9316 -0.2643
vn -0.2250 -0.8396 -0.4945
vn -0.1854 -0.6900 -0.6996
vn -0.1887 -0.6906 -0.6981
vn -0.1885 -0.6906 -0.6982
vn -0.1849 -0.6899 -0.6999
vn -0.1318 -0.4920 -0.8605
vn -0.1318 0.4920 -0.8605
vn -0.2553 0.0716 -0.9642
vn -0.1849 0.6899 -0.6999
vn -0.1885 0.6906 -0.6982
vn -0.1854 0.6900 -0.6996
vn -0.1887 0.6906 -0.6981
vn -0.2250 0.8396 -0.4945
vn -0.2482 0.9324 -0.2629
vn -0.2496 0.9316 -0.2643
vn -0.2495 0.9316 -0.2642
vn -0.2469 0.9331 -0.2615
vn -0.6820 0.6820 -0.2643
vn -0.5066 0.5066 -0.6977
vn -0.1881 0.1881 -0.9640
vn -0.0716 0.2554 -0.9642
vn -0.9331 0.2469 -0.2615
vn -0.9316 0.2495 -0.2641
vn -0.9324 0.2482 -0.2629
vn -0.9316 0.2496 -0.2643
vn -0.8395 0.2250 -0.4945
vn -0.6900 0.1855 -0.6996
vn -0.6907 0.1887 -0.6981
vn -0.6907 0.1886 -0.6981
vn -0.6899 0.1849 -0.6999
vn -0.4918 0.1318 -0.8607
vn 0.5027 0.5027 -0.7033
vn 0.9308 0.2500 -0.2665
vn 0.9309 0.2525 -0.2640
vn 0.9309 0.2524 -0.2643
vn 0.2544 0.0682 -0.9647
vn 0.2553 0.0690 -0.9644
vn 0.2554 0.0691 -0.9644
vn 0.9308 0.2475 -0.2691
vn 0.6810 0.6810 -0.2692
vn 0.1862 0.1862 -0.9647
vn 0.6884 0.1860 -0.7010
vn 0.6870 0.1833 -0.7032
vn 0.6870 0.1835 -0.7031
vn 0.6886 0.1864 -0.7008
vn 0.0684 0.2554 -0.9644
vn 0.0685 0.2553 -0.9644
vn 0.0687 0.2543 -0.9647
vn 0.0688 0.2540 -0.9647
vn 0.1839 0.6890 -0.7011
vn 0.1839 0.6888 -0.7012
vn 0.1855 0.6864 -0.7032
vn 0.1857 0.6860 -0.7035
vn 0.2478 0.9320 -0.2643
vn 0.2500 0.9307 -0.2669
vn 0.2520 0.9295 -0.2692
vn 0.2522 0.9294 -0.2694
vn -0.0000 -0.7009 -0.7133
vn -0.0000 -0.9621 -0.2728
vn -0.0000 -0.9621 -0.2729
vn -0.7069 -0.7069 -0.0247
vn -0.9657 -0.2587 -0.0214
vn -0.9657 -0.2588 -0.0214
vn -0.2587 -0.9657 -0.0214
vn -0.7069 0.7069 -0.0247
vn -0.2587 0.9657 -0.0214
vn -0.9657 0.2588 -0.0214
vn -0.9657 0.2587 -0.0214
vn -0.0000 0.7009 -0.7133
vn -0.0000 0.9621 -0.2728
vn -0.0000 0.9621 -0.2729
vn -0.5027 -0.5027 -0.7033
vn -0.9308 -0.2500 -0.2665
vn -0.9309 -0.2525 -0.2640
vn -0.9309 -0.2524 -0.2643
vn -0.2544 -0.0682 -0.9647
vn -0.2553 -0.0690 -0.9644
vn -0.2554 -0.0691 -0.9644
vn -0.9308 -0.2475 -0.2691
vn -0.6810 -0.6810 -0.2692
vn -0.1862 -0.1862 -0.9647
vn -0.6884 -0.1860 -0.7010
vn -0.6870 -0.1833 -0.7032
vn -0.6870 -0.1835 -0.7031
vn -0.6886 -0.1864 -0.7008
vn -0.0684 -0.2554 -0.9644
vn -0.0685 -0.2553 -0.9644
vn -0.0687 -0.2543 -0.9647
vn -0.0688 -0.2540 -0.9647
vn -0.1839 -0.6890 -0.7011
vn -0.1839 -0.6888 -0.7012
vn -0.1855 -0.6864 -0.7032
vn -0.1857 -0.6860 -0.7035
vn -0.2478 -0.9320 -0.2643
vn -0.2500 -0.9307 -0.2669
vn -0.2520 -0.9295 -0.2692
vn -0.2522 -0.9294 -0.2694
vn -0.5027 0.5027 -0.7033
vn -0.2501 0.9308 -0.2665
vn -0.2525 0.9309 -0.2640
vn -0.2523 0.9309 -0.2642
vn -0.0682 0.2544 -0.9647
vn -0.0683 0.2546 -0.9646
vn -0.0689 0.2551 -0.9645
vn -0.0692 0.2554 -0.9644
vn -0.2475 0.9308 -0.2691
vn -0.6810 0.6810 -0.2692
vn -0.1862 0.1862 -0.9647
vn -0.1859 0.6884 -0.7011
vn -0.1834 0.6870 -0.7032
vn -0.1835 0.6870 -0.7031
vn -0.1864 0.6886 -0.7008
vn -0.2554 0.0684 -0.9644
vn -0.2553 0.0685 -0.9644
vn -0.2543 0.0687 -0.9647
vn -0.2540 0.0688 -0.9647
vn -0.6890 0.1839 -0.7011
vn -0.6888 0.1840 -0.7012
vn -0.6864 0.1855 -0.7032
vn -0.6860 0.1857 -0.7035
vn -0.9320 0.2478 -0.2643
vn -0.9307 0.2500 -0.2669
vn -0.9295 0.2520 -0.2691
vn -0.9294 0.2522 -0.2694
vn -0.7009 -0.0000 -0.7133
vn -0.9621 -0.0000 -0.2728
vn 0.0002 0.9914 0.1306
vn -0.0002 0.9239 0.3827
vn -0.0000 0.9914 0.1305
vn -0.0000 0.9239 0.3827
vn -0.0000 0.7071 0.7071
vn -0.0000 0.2588 0.9659
vn -0.9914 0.0002 0.1306
vn -0.9238 -0.0002 0.3828
vn -0.9914 -0.0000 0.1305
vn -0.9239 -0.0000 0.3827
vn -0.7071 -0.0000 0.7071
vn -0.2589 -0.0000 0.9659
vn -0.2588 -0.0000 0.9659
vn 0.2588 -0.0000 0.9659
vn 0.2589 -0.0000 0.9659
vn 0.7071 -0.0000 0.7071
vn 0.9914 -0.0000 0.1305
vn 0.9238 0.0002 0.3828
vn 0.9914 -0.0002 0.1306
vn 0.9239 -0.0000 0.3827
vn -0.0002 -0.9914 0.1306
vn 0.0002 -0.9239 0.3827
vn -0.0000 -0.9914 0.1305
vn -0.0000 -0.9239 0.3827
vn -0.0000 -0.7071 0.7071
vn -0.0000 -0.2588 0.9659
vn -0.9486 0.2542 0.1887
vn -0.2542 0.9486 0.1887
vn -0.2337 0.8721 0.4299
vn -0.2237 0.8093 0.5431
vn -0.8721 0.2337 0.4300
vn -0.8093 0.2237 0.5430
vn -0.1539 0.5463 0.8233
vn -0.1610 0.6008 0.7830
vn -0.2080 0.7760 0.5954
vn -0.0522 0.1948 0.9795
vn -0.0522 0.1948 0.9794
vn -0.1177 0.4393 0.8906
vn -0.6944 0.6944 0.1887
vn -0.5941 0.5941 0.5423
vn -0.5941 0.5941 0.5422
vn -0.4022 0.4023 0.8224
vn -0.4023 0.4023 0.8224
vn -0.1426 0.1426 0.9794
vn -0.1427 0.1426 0.9794
vn -0.7760 0.2079 0.5955
vn -0.6008 0.1610 0.7830
vn -0.5464 0.1539 0.8233
vn -0.4392 0.1177 0.8906
vn -0.1948 0.0522 0.9795
vn -0.1948 0.0522 0.9794
vn -0.0000 0.9808 0.1951
vn -0.0000 0.9808 0.1952
vn -0.0000 0.8969 0.4422
vn -0.0000 0.7933 0.6088
vn -0.0000 0.7934 0.6087
vn -0.0000 0.6087 0.7934
vn -0.0000 0.6088 0.7933
vn -0.0000 0.4423 0.8969
vn -0.0000 0.4423 0.8968
vn -0.0000 0.1951 0.9808
vn -0.9808 -0.0000 0.1951
vn -0.8969 -0.0000 0.4422
vn -0.7933 -0.0000 0.6088
vn -0.7934 -0.0000 0.6088
vn -0.6088 -0.0000 0.7933
vn -0.6087 -0.0000 0.7934
vn -0.4423 -0.0000 0.8969
vn -0.1951 -0.0000 0.9808
vn 0.2542 0.9486 0.1887
vn 0.9486 0.2542 0.1887
vn 0.8721 0.2337 0.4300
vn 0.8093 0.2237 0.5431
vn 0.2337 0.8721 0.4299
vn 0.2237 0.8093 0.5431
vn 0.5464 0.1539 0.8233
vn 0.6008 0.1610 0.7830
vn 0.7760 0.2079 0.5955
vn 0.1948 0.0522 0.9794
vn 0.4392 0.1177 0.8906
vn 0.6944 0.6944 0.1887
vn 0.5941 0.5941 0.5423
vn 0.5941 0.5941 0.5422
vn 0.4022 0.4023 0.8224
vn 0.4023 0.4023 0.8224
vn 0.1426 0.1426 0.9795
vn 0.1427 0.1426 0.9794
vn 0.2080 0.7760 0.5954
vn 0.1610 0.6008 0.7830
vn 0.1539 0.5464 0.8233
vn 0.1177 0.4393 0.8906
vn 0.0522 0.1948 0.9794
vn -0.2542 -0.9486 0.1887
vn -0.9486 -0.2542 0.1887
vn -0.8721 -0.2337 0.4300
vn -0.8093 -0.2237 0.5431
vn -0.2337 -0.8721 0.4299
vn -0.2237 -0.8093 0.5431
vn -0.5464 -0.1539 0.8233
vn -0.6008 -0.1610 0.7830
vn -0.7760 -0.2079 0.5955
vn -0.1948 -0.0522 0.9794
vn -0.4392 -0.1177 0.8906
vn -0.6944 -0.6944 0.1887
vn -0.5941 -0.5941 0.5423
vn -0.5941 -0.5941 0.5422
vn -0.4022 -0.4023 0.8224
vn -0.4023 -0.4023 0.8224
vn -0.1426 -0.1426 0.9795
vn -0.1427 -0.1426 0.9794
vn -0.2080 -0.7760 0.5954
vn -0.1610 -0.6008 0.7830
vn -0.1539 -0.5464 0.8233
vn -0.1177 -0.4393 0.8906
vn -0.0522 -0.1948 0.9794
vn 0.9808 0.0001 0.1951
vn 0.8969 -0.0000 0.4422
vn 0.7933 -0.0002 0.6088
vn 0.6087 -0.0000 0.7934
vn 0.4422 -0.0003 0.8969
vn 0.1951 -0.0000 0.9808
vn 0.0001 -0.1951 0.9808
vn -0.0000 -0.4423 0.8969
vn 0.0002 -0.6088 0.7933
vn -0.0000 -0.7933 0.6088
vn -0.0000 -0.9239 0.3826
vn -0.0000 -0.8969 0.4423
vn -0.0001 -0.9914 0.1305
vn -0.0000 -0.9808 0.1951
s 1
usemtl basket_container_color
f 1//1 2//1 3//1
f 3//1 2//1 4//1
f 4//1 2//1 5//1
f 5//1 2//1 6//1
f 5//1 6//1 7//1
f 7//1 6//1 8//1
f 7//1 8//1 9//1
f 9//1 8//1 10//1
f 9//1 10//1 11//1
f 11//1 10//1 12//1
f 11//1 12//1 13//1
f 14//1 15//1 12//1
f 12//1 15//1 16//1
f 12//1 16//1 13//1
f 1//1 3//1 17//1
f 17//1 3//1 18//1
f 17//1 18//1 19//1
f 19//1 18//1 20//1
f 19//1 20//1 21//1
f 21//1 20//1 22//1
f 21//1 22//1 23//1
f 23//1 22//1 24//1
f 23//1 24//1 25//1
f 25//1 24//1 26//1
f 25//1 26//1 27//1
f 27//1 26//1 28//1
f 27//1 28//1 14//1
f 14//1 28//1 29//1
f 14//1 29//1 15//1
f 30//2 12//2 31//2
f 31//2 12//2 10//2
f 32//3 2//3 33//3
f 33//3 2//3 1//3
f 34//4 21//4 35//4
f 35//4 21//4 23//4
f 36//5 14//5 30//5
f 30//5 14//5 12//5
f 31//6 10//6 8//6
f 31//6 8//6 37//6
f 37//7 8//7 6//7
f 37//7 6//7 38//7
f 38//8 6//8 2//8
f 38//8 2//8 32//8
f 33//9 1//9 17//9
f 33//9 17//9 39//9
f 39//10 17//10 19//10
f 39//10 19//10 40//10
f 40//11 19//11 21//11
f 40//11 21//11 34//11
f 35//12 23//12 25//12
f 35//12 25//12 41//12
f 41//13 25//13 27//13
f 41//13 27//13 42//13
f 42//14 27//14 14//14
f 42//14 14//14 36//14
f 43//15 44//15 45//15
f 45//15 44//15 46//15
f 45//15 46//15 47//15
f 47//15 46//15 48//15
f 43//15 49//15 44//15
f 44//15 49//15 50//15
f 44//15 50//15 51//15
f 51//15 50//15 52//15
f 51//15 52//15 53//15
f 53//15 52//15 54//15
f 53//15 54//15 55//15
f 56//15 48//15 57//15
f 57//15 48//15 46//15
f 57//15 46//15 58//15
f 58//15 46//15 53//15
f 58//15 53//15 59//15
f 59//15 53//15 55//15
f 60//4 61//4 62//4
f 62//4 61//4 63//4
f 64//5 65//5 60//5
f 60//5 65//5 61//5
f 66//2 67//2 64//2
f 64//2 67//2 65//2
f 62//3 63//3 66//3
f 66//3 63//3 67//3
f 65//15 67//15 61//15
f 61//15 67//15 63//15
f 68//16 69//16 70//16
f 70//16 69//16 71//16
f 72//17 73//17 74//17
f 74//17 73//17 75//17
f 76//18 77//18 78//18
f 78//18 77//18 79//18
f 80//19 81//19 82//19
f 82//19 81//19 83//19
f 84//1 85//1 86//1
f 86//1 85//1 87//1
f 85//20 84//20 88//20
f 77//21 76//21 89//21
f 89//21 76//21 90//21
f 89//22 90//22 91//22
f 91//22 90//22 92//22
f 91//23 92//23 93//23
f 93//23 92//23 94//23
f 93//24 94//24 88//24
f 88//24 94//24 95//24
f 88//20 95//20 85//20
f 96//25 97//25 98//25
f 99//26 85//26 95//26
f 97//27 96//28 100//29
f 100//29 96//28 101//30
f 100//31 101//31 102//31
f 102//32 101//33 103//34
f 102//32 103//34 73//35
f 104//36 103//36 105//36
f 105//36 103//36 101//36
f 105//37 101//37 99//37
f 99//37 101//37 96//37
f 99//38 96//38 85//38
f 98//39 85//39 96//39
f 76//40 104//41 90//42
f 90//42 104//41 105//43
f 90//44 105//44 92//44
f 92//45 105//46 99//47
f 92//45 99//47 94//48
f 94//49 99//49 95//49
f 106//50 93//50 88//50
f 107//51 84//51 108//51
f 93//52 106//53 91//54
f 91//54 106//53 109//55
f 91//56 109//56 89//56
f 89//57 109//58 110//59
f 89//57 110//59 77//60
f 111//61 110//61 112//61
f 112//61 110//61 109//61
f 112//62 109//62 107//62
f 107//62 109//62 106//63
f 107//64 106//64 84//64
f 88//65 84//65 106//65
f 81//66 111//67 113//68
f 113//68 111//67 112//69
f 113//70 112//70 114//70
f 114//71 112//72 107//73
f 114//71 107//73 115//74
f 115//75 107//75 108//75
f 104//76 116//76 103//76
f 103//76 116//76 117//76
f 103//77 117//77 75//77
f 103//77 75//77 73//77
f 116//78 104//79 76//79
f 116//78 76//79 78//78
f 87//80 85//80 98//80
f 73//81 72//81 102//81
f 102//81 72//81 118//81
f 102//82 118//83 100//82
f 100//82 118//83 119//83
f 100//84 119//84 97//84
f 97//84 119//84 120//84
f 97//85 120//86 98//85
f 98//85 120//86 121//87
f 98//80 121//80 87//80
f 86//88 87//88 122//88
f 71//89 69//89 123//89
f 123//89 69//89 124//89
f 123//90 124//90 125//90
f 125//90 124//90 126//90
f 125//91 126//91 127//91
f 127//91 126//91 128//91
f 127//92 128//92 122//92
f 122//92 128//92 129//92
f 122//88 129//88 86//88
f 84//93 86//93 130//93
f 83//94 81//94 131//94
f 131//94 81//94 113//94
f 131//95 113//96 132//95
f 132//95 113//96 114//96
f 132//97 114//97 133//97
f 133//97 114//97 115//97
f 133//98 115//99 130//98
f 130//98 115//99 108//100
f 130//93 108//93 84//93
f 111//101 134//101 110//101
f 110//101 134//101 135//101
f 110//102 135//103 79//103
f 110//102 79//103 77//102
f 134//104 111//104 81//104
f 134//104 81//104 80//104
f 9//20 11//20 136//20
f 136//20 11//20 137//20
f 136//105 137//105 138//105
f 138//105 137//105 139//105
f 138//106 139//106 79//106
f 79//106 139//106 78//106
f 140//107 141//107 142//107
f 143//108 75//109 117//110
f 16//111 15//112 144//113
f 144//113 15//112 145//114
f 143//108 117//110 140//115
f 140//116 117//116 116//116
f 140//116 116//116 141//116
f 13//117 16//117 142//117
f 142//117 16//117 144//117
f 142//107 144//107 140//107
f 140//118 144//119 145//120
f 140//118 145//120 143//121
f 11//122 13//123 137//124
f 137//124 13//123 142//125
f 137//126 142//127 139//128
f 139//128 142//127 141//129
f 139//130 141//131 78//132
f 78//132 141//131 116//133
f 146//134 127//134 122//134
f 147//135 87//135 121//135
f 127//136 146//137 125//138
f 125//138 146//137 148//139
f 125//140 148//140 123//140
f 123//141 148//142 149//143
f 123//141 149//143 71//144
f 150//145 149//146 151//146
f 151//146 149//146 148//146
f 151//147 148//147 147//147
f 147//147 148//147 146//148
f 147//149 146//149 87//149
f 122//150 87//150 146//150
f 72//151 150//152 118//153
f 118//153 150//152 151//154
f 118//155 151//155 119//155
f 119//156 151//157 147//158
f 119//156 147//158 120//159
f 120//160 147//160 121//160
f 152//161 133//161 130//161
f 153//162 86//162 129//162
f 133//163 152//164 132//165
f 132//165 152//164 154//166
f 132//167 154//167 131//167
f 131//168 154//169 155//170
f 131//168 155//170 83//171
f 156//172 155//172 157//172
f 157//172 155//172 154//172
f 157//173 154//173 153//173
f 153//173 154//173 152//173
f 153//174 152//174 86//174
f 130//175 86//175 152//175
f 69//176 156//177 124//178
f 124//178 156//177 157//179
f 124//180 157//180 126//180
f 126//181 157//182 153//183
f 126//181 153//183 128//184
f 128//185 153//185 129//185
f 158//186 159//186 160//186
f 138//187 79//188 135//189
f 7//190 9//190 161//191
f 161//191 9//190 136//192
f 138//187 135//189 158//193
f 158//194 135//194 134//194
f 158//194 134//194 159//194
f 5//195 7//195 160//195
f 160//195 7//195 161//195
f 160//186 161//186 158//186
f 158//196 161//197 136//198
f 158//196 136//198 138//199
f 4//200 5//201 162//202
f 162//202 5//201 160//203
f 162//204 160//205 163//206
f 163//206 160//205 159//207
f 163//208 159//209 80//210
f 80//210 159//209 134//211
f 15//80 29//80 145//80
f 145//80 29//80 164//80
f 145//212 164//212 143//212
f 143//212 164//212 165//212
f 143//213 165//214 75//213
f 75//213 165//214 74//214
f 150//215 166//215 149//215
f 149//215 166//215 167//215
f 149//216 167//217 70//217
f 149//216 70//217 71//216
f 166//218 150//218 72//218
f 166//218 72//218 74//218
f 156//219 168//219 155//219
f 155//219 168//219 169//219
f 155//220 169//220 82//220
f 155//220 82//220 83//220
f 168//221 156//222 69//222
f 168//221 69//222 68//221
f 3//93 4//93 170//93
f 170//93 4//93 162//93
f 170//223 162//223 171//223
f 171//223 162//223 163//223
f 171//224 163//225 82//224
f 82//224 163//225 80//225
f 172//226 173//226 174//226
f 175//227 70//228 167//229
f 26//230 24//230 176//231
f 176//231 24//230 177//232
f 175//227 167//229 172//233
f 172//234 167//234 166//234
f 172//234 166//234 173//234
f 28//235 26//235 174//235
f 174//235 26//235 176//235
f 174//226 176//226 172//226
f 172//236 176//237 177//238
f 172//236 177//238 175//239
f 29//240 28//241 164//242
f 164//242 28//241 174//243
f 164//244 174//245 165//246
f 165//246 174//245 173//247
f 165//248 173//249 74//250
f 74//250 173//249 166//251
f 178//252 179//252 180//252
f 171//253 82//254 169//255
f 18//256 3//257 181//258
f 181//258 3//257 170//259
f 171//253 169//255 178//260
f 178//261 169//261 168//261
f 178//261 168//261 179//261
f 20//262 18//262 180//262
f 180//262 18//262 181//262
f 180//252 181//252 178//252
f 178//263 181//264 170//265
f 178//263 170//265 171//266
f 22//267 20//268 182//269
f 182//269 20//268 180//270
f 182//271 180//272 183//273
f 183//273 180//272 179//274
f 183//275 179//276 68//277
f 68//277 179//276 168//278
f 24//88 22//88 177//88
f 177//88 22//88 182//88
f 177//279 182//279 175//279
f 175//279 182//279 183//279
f 175//280 183//280 70//280
f 70//280 183//280 68//280
f 184//281 185//281 66//281
f 66//282 185//282 186//282
f 66//283 186//283 62//283
f 184//284 187//284 185//284
f 185//285 187//285 188//285
f 185//285 188//285 189//285
f 189//286 188//286 44//286
f 189//286 44//286 51//286
f 186//287 190//287 62//287
f 62//288 190//288 191//288
f 62//289 191//289 60//289
f 186//290 185//290 190//290
f 190//291 185//291 189//291
f 190//291 189//291 192//291
f 192//292 189//293 51//293
f 192//292 51//293 53//292
f 46//294 44//295 188//295
f 46//294 188//295 193//294
f 193//296 188//296 187//296
f 193//296 187//296 194//296
f 184//297 66//297 64//297
f 184//298 64//298 187//298
f 187//299 64//299 195//299
f 187//300 195//300 194//300
f 191//301 194//301 60//301
f 60//302 194//302 195//302
f 60//303 195//303 64//303
f 191//304 190//304 194//304
f 194//305 190//305 192//305
f 194//305 192//305 193//305
f 193//306 192//306 53//306
f 193//306 53//306 46//306
f 196//307 40//307 34//307
f 33//308 39//308 197//308
f 197//308 39//308 198//308
f 197//309 198//309 199//309
f 199//310 198//310 200//310
f 34//307 201//307 196//307
f 196//311 201//311 202//311
f 196//312 202//312 203//312
f 204//313 205//313 200//313
f 200//314 205//314 206//314
f 200//315 206//315 199//315
f 56//316 57//317 204//317
f 204//317 57//317 207//317
f 204//318 207//318 205//318
f 39//319 40//319 198//319
f 198//319 40//319 196//319
f 198//320 196//321 200//320
f 200//320 196//321 203//321
f 200//322 203//323 204//322
f 204//322 203//323 208//323
f 204//324 208//325 56//324
f 56//324 208//325 48//325
f 202//326 209//326 203//326
f 203//327 209//327 210//327
f 203//328 210//328 208//328
f 208//329 210//329 211//329
f 208//330 211//331 48//330
f 48//330 211//331 47//331
f 32//332 33//333 212//332
f 212//332 33//333 197//333
f 212//334 197//334 213//334
f 213//334 197//334 199//334
f 213//335 199//336 214//335
f 214//335 199//336 206//336
f 214//337 206//338 215//337
f 215//337 206//338 205//338
f 215//339 205//340 216//339
f 216//339 205//340 207//340
f 216//341 207//341 58//341
f 58//341 207//341 57//341
f 34//342 35//342 201//342
f 201//342 35//342 217//342
f 201//343 217//343 202//343
f 202//343 217//343 218//343
f 202//344 218//345 209//344
f 209//344 218//345 219//345
f 209//346 219//347 210//346
f 210//346 219//347 220//347
f 210//348 220//348 211//348
f 211//348 220//348 221//348
f 211//349 221//349 47//349
f 47//349 221//349 45//349
f 222//350 38//350 32//350
f 31//351 37//351 223//351
f 223//351 37//351 224//351
f 223//352 224//352 225//352
f 225//353 224//353 226//353
f 32//350 212//350 222//350
f 222//354 212//354 213//354
f 222//355 213//355 227//355
f 228//356 229//356 226//356
f 226//357 229//357 230//357
f 226//358 230//358 225//358
f 55//359 54//359 228//359
f 228//359 54//359 231//359
f 228//360 231//360 229//360
f 37//361 38//361 224//361
f 224//361 38//361 222//361
f 224//362 222//363 226//362
f 226//362 222//363 227//363
f 226//364 227//365 228//364
f 228//364 227//365 232//365
f 228//366 232//367 55//366
f 55//366 232//367 59//367
f 213//368 214//368 227//368
f 227//369 214//369 215//369
f 227//370 215//370 232//370
f 232//371 215//371 216//371
f 232//372 216//372 59//372
f 59//372 216//372 58//372
f 233//373 42//373 36//373
f 35//374 41//374 217//374
f 217//374 41//374 234//374
f 217//375 234//375 218//375
f 218//376 234//376 235//376
f 36//373 236//373 233//373
f 233//377 236//377 237//377
f 233//378 237//378 238//378
f 239//379 220//379 235//379
f 235//380 220//380 219//380
f 235//381 219//381 218//381
f 43//382 45//382 239//382
f 239//382 45//382 221//382
f 239//383 221//383 220//383
f 41//384 42//384 234//384
f 234//384 42//384 233//384
f 234//385 233//386 235//385
f 235//385 233//386 238//386
f 235//387 238//388 239//387
f 239//387 238//388 240//388
f 239//389 240//390 43//389
f 43//389 240//390 49//390
f 237//391 241//391 238//391
f 238//392 241//392 242//392
f 238//393 242//393 240//393
f 240//394 242//394 243//394
f 240//395 243//395 49//395
f 49//395 243//395 50//395
f 30//297 31//297 244//297
f 244//396 31//396 223//396
f 244//300 223//300 245//300
f 245//397 223//397 225//397
f 245//296 225//296 246//296
f 225//398 230//398 246//398
f 246//399 230//399 229//399
f 246//294 229//294 52//294
f 52//400 229//400 231//400
f 52//401 231//401 54//401
f 246//306 52//306 50//306
f 50//402 243//402 246//402
f 246//403 243//403 242//403
f 246//305 242//305 245//305
f 242//404 241//404 245//404
f 245//405 241//405 237//405
f 245//406 237//406 244//406
f 244//407 237//407 236//407
f 244//408 236//408 30//408
f 30//409 236//409 36//409
