<?xml version="1.0" encoding="utf-8"?>
<COLLADA xmlns="http://www.collada.org/2005/11/COLLADASchema" version="1.4.1" xmlns:xsi="http://www.w3.org/2001/XMLSchema-instance">
  <asset>
    <contributor>
      <author>Blender User</author>
      <authoring_tool>Blender 4.5.1 LTS commit date:2025-07-29, commit time:05:31, hash:b0a72b245dcf</authoring_tool>
    </contributor>
    <created>2025-08-12T17:29:35</created>
    <modified>2025-08-12T17:29:35</modified>
    <unit name="meter" meter="1"/>
    <up_axis>Z_UP</up_axis>
  </asset>
  <library_effects>
    <effect id="G-effect">
      <profile_COMMON>
        <technique sid="common">
          <lambert>
            <emission>
              <color sid="emission">0 0 0 1</color>
            </emission>
            <diffuse>
              <color sid="diffuse">0.8 0.8 0.8 1</color>
            </diffuse>
            <index_of_refraction>
              <float sid="ior">1.5</float>
            </index_of_refraction>
          </lambert>
        </technique>
      </profile_COMMON>
    </effect>
    <effect id="B-effect">
      <profile_COMMON>
        <technique sid="common">
          <lambert>
            <emission>
              <color sid="emission">0 0 0 1</color>
            </emission>
            <diffuse>
              <color sid="diffuse">0 0 0 1</color>
            </diffuse>
            <index_of_refraction>
              <float sid="ior">1.5</float>
            </index_of_refraction>
          </lambert>
        </technique>
      </profile_COMMON>
    </effect>
  </library_effects>
  <library_images/>
  <library_materials>
    <material id="G-material" name="G">
      <instance_effect url="#G-effect"/>
    </material>
    <material id="B-material" name="B">
      <instance_effect url="#B-effect"/>
    </material>
  </library_materials>
  <library_geometries>
    <geometry id="Cylinder-mesh" name="Cylinder">
      <mesh>
        <source id="Cylinder-mesh-positions">
          <float_array id="Cylinder-mesh-positions-array" count="768">0.04999995 0 -0.05024999 0.04999995 0 0.05024999 0.0497592 -0.004900813 -0.05024999 0.0497592 -0.004900813 0.05024999 0.04903924 -0.009754478 -0.05024999 0.04903924 -0.009754478 0.05024999 0.04784697 -0.0145142 -0.05024999 0.04784697 -0.0145142 0.05024999 0.04619395 -0.01913416 -0.05024999 0.04619395 -0.01913416 0.05024999 0.04409605 -0.02356982 -0.05024999 0.04409605 -0.02356982 0.05024999 0.04157346 -0.0277785 -0.05024999 0.04157346 -0.0277785 0.05024999 0.03865051 -0.03171962 -0.05024999 0.03865051 -0.03171962 0.05024999 0.03535532 -0.03535532 -0.05024999 0.03535532 -0.03535532 0.05024999 0.03171962 -0.03865051 -0.05024999 0.03171962 -0.03865051 0.05024999 0.0277785 -0.04157346 -0.05024999 0.0277785 -0.04157346 0.05024999 0.02356982 -0.04409605 -0.05024999 0.02356982 -0.04409605 0.05024999 0.01913416 -0.04619395 -0.05024999 0.01913416 -0.04619395 0.05024999 0.0145142 -0.04784697 -0.05024999 0.0145142 -0.04784697 0.05024999 0.009754478 -0.04903924 -0.05024999 0.009754478 -0.04903924 0.05024999 0.004900813 -0.0497592 -0.05024999 0.004900813 -0.0497592 0.05024999 0 -0.04999995 -0.05024999 0 -0.04999995 0.05024999 -0.004900813 -0.0497592 -0.05024999 -0.004900813 -0.0497592 0.05024999 -0.009754478 -0.04903924 -0.05024999 -0.009754478 -0.04903924 0.05024999 -0.0145142 -0.04784697 -0.05024999 -0.0145142 -0.04784697 0.05024999 -0.01913416 -0.04619395 -0.05024999 -0.01913416 -0.04619395 0.05024999 -0.02356982 -0.04409605 -0.05024999 -0.02356982 -0.04409605 0.05024999 -0.0277785 -0.04157346 -0.05024999 -0.0277785 -0.04157346 0.05024999 -0.03171962 -0.03865051 -0.05024999 -0.03171962 -0.03865051 0.05024999 -0.03535532 -0.03535532 -0.05024999 -0.03535532 -0.03535532 0.05024999 -0.03865051 -0.03171962 -0.05024999 -0.03865051 -0.03171962 0.05024999 -0.04157346 -0.0277785 -0.05024999 -0.04157346 -0.0277785 0.05024999 -0.04409605 -0.02356982 -0.05024999 -0.04409605 -0.02356982 0.05024999 -0.04619395 -0.01913416 -0.05024999 -0.04619395 -0.01913416 0.05024999 -0.04784697 -0.0145142 -0.05024999 -0.04784697 -0.0145142 0.05024999 -0.04903924 -0.009754478 -0.05024999 -0.04903924 -0.009754478 0.05024999 -0.0497592 -0.004900813 -0.05024999 -0.0497592 -0.004900813 0.05024999 -0.04999995 0 -0.05024999 -0.04999995 0 0.05024999 -0.0497592 0.004900813 -0.05024999 -0.0497592 0.004900813 0.05024999 -0.04903924 0.009754478 -0.05024999 -0.04903924 0.009754478 0.05024999 -0.04784697 0.0145142 -0.05024999 -0.04784697 0.0145142 0.05024999 -0.04619395 0.01913416 -0.05024999 -0.04619395 0.01913416 0.05024999 -0.04409605 0.02356982 -0.05024999 -0.04409605 0.02356982 0.05024999 -0.04157346 0.0277785 -0.05024999 -0.04157346 0.0277785 0.05024999 -0.03865051 0.03171962 -0.05024999 -0.03865051 0.03171962 0.05024999 -0.03535532 0.03535532 -0.05024999 -0.03535532 0.03535532 0.05024999 -0.03171962 0.03865051 -0.05024999 -0.03171962 0.03865051 0.05024999 -0.0277785 0.04157346 -0.05024999 -0.0277785 0.04157346 0.05024999 -0.02356982 0.04409605 -0.05024999 -0.02356982 0.04409605 0.05024999 -0.01913416 0.04619395 -0.05024999 -0.01913416 0.04619395 0.05024999 -0.0145142 0.04784697 -0.05024999 -0.0145142 0.04784697 0.05024999 -0.009754478 0.04903924 -0.05024999 -0.009754478 0.04903924 0.05024999 -0.004900813 0.0497592 -0.05024999 -0.004900813 0.0497592 0.05024999 0 0.04999995 -0.05024999 0 0.04999995 0.05024999 0.004900813 0.0497592 -0.05024999 0.004900813 0.0497592 0.05024999 0.009754478 0.04903924 -0.05024999 0.009754478 0.04903924 0.05024999 0.0145142 0.04784697 -0.05024999 0.0145142 0.04784697 0.05024999 0.01913416 0.04619395 -0.05024999 0.01913416 0.04619395 0.05024999 0.02356982 0.04409605 -0.05024999 0.02356982 0.04409605 0.05024999 0.0277785 0.04157346 -0.05024999 0.0277785 0.04157346 0.05024999 0.03171962 0.03865051 -0.05024999 0.03171962 0.03865051 0.05024999 0.03535532 0.03535532 -0.05024999 0.03535532 0.03535532 0.05024999 0.03865051 0.03171962 -0.05024999 0.03865051 0.03171962 0.05024999 0.04157346 0.0277785 -0.05024999 0.04157346 0.0277785 0.05024999 0.04409605 0.02356982 -0.05024999 0.04409605 0.02356982 0.05024999 0.04619395 0.01913416 -0.05024999 0.04619395 0.01913416 0.05024999 0.04784697 0.0145142 -0.05024999 0.04784697 0.0145142 0.05024999 0.04903924 0.009754478 -0.05024999 0.04903924 0.009754478 0.05024999 0.0497592 0.004900813 -0.05024999 0.0497592 0.004900813 0.05024999 0.04999995 0 -0.02974998 0.0497592 -0.004900813 -0.02974998 0.04903924 -0.009754478 -0.02974998 0.04784697 -0.0145142 -0.02974998 0.04619395 -0.01913416 -0.02974998 0.04409605 -0.02356982 -0.02974998 0.04157346 -0.0277785 -0.02974998 0.03865051 -0.03171962 -0.02974998 0.03535532 -0.03535532 -0.02974998 0.03171962 -0.03865051 -0.02974998 0.0277785 -0.04157346 -0.02974998 0.02356982 -0.04409605 -0.02974998 0.01913416 -0.04619395 -0.02974998 0.0145142 -0.04784697 -0.02974998 0.009754478 -0.04903924 -0.02974998 0.004900813 -0.0497592 -0.02974998 0 -0.04999995 -0.02974998 -0.004900813 -0.0497592 -0.02974998 -0.009754478 -0.04903924 -0.02974998 -0.0145142 -0.04784697 -0.02974998 -0.01913416 -0.04619395 -0.02974998 -0.02356982 -0.04409605 -0.02974998 -0.0277785 -0.04157346 -0.02974998 -0.03171962 -0.03865051 -0.02974998 -0.03535532 -0.03535532 -0.02974998 -0.03865051 -0.03171962 -0.02974998 -0.04157346 -0.0277785 -0.02974998 -0.04409605 -0.02356982 -0.02974998 -0.04619395 -0.01913416 -0.02974998 -0.04784697 -0.0145142 -0.02974998 -0.04903924 -0.009754478 -0.02974998 -0.0497592 -0.004900813 -0.02974998 -0.04999995 0 -0.02974998 -0.0497592 0.004900813 -0.02974998 -0.04903924 0.009754478 -0.02974998 -0.04784697 0.0145142 -0.02974998 -0.04619395 0.01913416 -0.02974998 -0.04409605 0.02356982 -0.02974998 -0.04157346 0.0277785 -0.02974998 -0.03865051 0.03171962 -0.02974998 -0.03535532 0.03535532 -0.02974998 -0.03171962 0.03865051 -0.02974998 -0.0277785 0.04157346 -0.02974998 -0.02356982 0.04409605 -0.02974998 -0.01913416 0.04619395 -0.02974998 -0.0145142 0.04784697 -0.02974998 -0.009754478 0.04903924 -0.02974998 -0.004900813 0.0497592 -0.02974998 0 0.04999995 -0.02974998 0.004900813 0.0497592 -0.02974998 0.009754478 0.04903924 -0.02974998 0.0145142 0.04784697 -0.02974998 0.01913416 0.04619395 -0.02974998 0.02356982 0.04409605 -0.02974998 0.0277785 0.04157346 -0.02974998 0.03171962 0.03865051 -0.02974998 0.03535532 0.03535532 -0.02974998 0.03865051 0.03171962 -0.02974998 0.04157346 0.0277785 -0.02974998 0.04409605 0.02356982 -0.02974998 0.04619395 0.01913416 -0.02974998 0.04784697 0.0145142 -0.02974998 0.04903924 0.009754478 -0.02974998 0.0497592 0.004900813 -0.02974998 0.04999995 0 0.03774994 0.0497592 -0.004900813 0.03774994 0.04903924 -0.009754478 0.03774994 0.04784697 -0.0145142 0.03774994 0.04619395 -0.01913416 0.03774994 0.04409605 -0.02356982 0.03774994 0.04157346 -0.0277785 0.03774994 0.03865051 -0.03171962 0.03774994 0.03535532 -0.03535532 0.03774994 0.03171962 -0.03865051 0.03774994 0.0277785 -0.04157346 0.03774994 0.02356982 -0.04409605 0.03774994 0.01913416 -0.04619395 0.03774994 0.0145142 -0.04784697 0.03774994 0.009754478 -0.04903924 0.03774994 0.004900813 -0.0497592 0.03774994 0 -0.04999995 0.03774994 -0.004900813 -0.0497592 0.03774994 -0.009754478 -0.04903924 0.03774994 -0.0145142 -0.04784697 0.03774994 -0.01913416 -0.04619395 0.03774994 -0.02356982 -0.04409605 0.03774994 -0.0277785 -0.04157346 0.03774994 -0.03171962 -0.03865051 0.03774994 -0.03535532 -0.03535532 0.03774994 -0.03865051 -0.03171962 0.03774994 -0.04157346 -0.0277785 0.03774994 -0.04409605 -0.02356982 0.03774994 -0.04619395 -0.01913416 0.03774994 -0.04784697 -0.0145142 0.03774994 -0.04903924 -0.009754478 0.03774994 -0.0497592 -0.004900813 0.03774994 -0.04999995 0 0.03774994 -0.0497592 0.004900813 0.03774994 -0.04903924 0.009754478 0.03774994 -0.04784697 0.0145142 0.03774994 -0.04619395 0.01913416 0.03774994 -0.04409605 0.02356982 0.03774994 -0.04157346 0.0277785 0.03774994 -0.03865051 0.03171962 0.03774994 -0.03535532 0.03535532 0.03774994 -0.03171962 0.03865051 0.03774994 -0.0277785 0.04157346 0.03774994 -0.02356982 0.04409605 0.03774994 -0.01913416 0.04619395 0.03774994 -0.0145142 0.04784697 0.03774994 -0.009754478 0.04903924 0.03774994 -0.004900813 0.0497592 0.03774994 0 0.04999995 0.03774994 0.004900813 0.0497592 0.03774994 0.009754478 0.04903924 0.03774994 0.0145142 0.04784697 0.03774994 0.01913416 0.04619395 0.03774994 0.02356982 0.04409605 0.03774994 0.0277785 0.04157346 0.03774994 0.03171962 0.03865051 0.03774994 0.03535532 0.03535532 0.03774994 0.03865051 0.03171962 0.03774994 0.04157346 0.0277785 0.03774994 0.04409605 0.02356982 0.03774994 0.04619395 0.01913416 0.03774994 0.04784697 0.0145142 0.03774994 0.04903924 0.009754478 0.03774994 0.0497592 0.004900813 0.03774994</float_array>
          <technique_common>
            <accessor source="#Cylinder-mesh-positions-array" count="256" stride="3">
              <param name="X" type="float"/>
              <param name="Y" type="float"/>
              <param name="Z" type="float"/>
            </accessor>
          </technique_common>
        </source>
        <source id="Cylinder-mesh-normals">
          <float_array id="Cylinder-mesh-normals-array" count="1524">0.9987955 -0.04906803 0 0.9891765 -0.1467304 0 0.9700313 -0.2429798 0 0.941544 -0.3368901 0 0.9039894 -0.427555 0 0.8577284 -0.5141029 0 0.8032078 -0.5956988 0 0.7409512 -0.6715589 0 0.6715589 -0.7409512 0 0.5956988 -0.8032078 0 0.5141029 -0.8577284 0 0.427555 -0.9039894 0 0.3368901 -0.941544 0 0.2429798 -0.9700313 0 0.1467304 -0.9891765 0 0.04906803 -0.9987955 0 -0.04906803 -0.9987955 0 -0.1467304 -0.9891765 0 -0.2429798 -0.9700313 0 -0.3368901 -0.941544 0 -0.427555 -0.9039894 0 -0.5141029 -0.8577284 0 -0.5956988 -0.8032078 0 -0.6715589 -0.7409512 0 -0.7409512 -0.6715589 0 -0.8032078 -0.5956988 0 -0.8577284 -0.5141029 0 -0.9039894 -0.427555 0 -0.941544 -0.3368901 0 -0.9700313 -0.2429798 0 -0.9891765 -0.1467304 0 -0.9987955 -0.04906803 0 -0.9987955 0.04906803 0 -0.9891765 0.1467304 0 -0.9700313 0.2429798 0 -0.941544 0.3368901 0 -0.9039894 0.427555 0 -0.8577284 0.5141029 0 -0.8032078 0.5956988 0 -0.7409512 0.6715589 0 -0.6715589 0.7409512 0 -0.5956988 0.8032078 0 -0.5141029 0.8577284 0 -0.427555 0.9039894 0 -0.3368901 0.941544 0 -0.2429798 0.9700313 0 -0.1467304 0.9891765 0 -0.04906803 0.9987955 0 0.04906803 0.9987955 0 0.1467304 0.9891765 0 0.2429798 0.9700313 0 0.3368901 0.941544 0 0.427555 0.9039894 0 0.5141029 0.8577284 0 0.5956988 0.8032078 0 0.6715589 0.7409512 0 0.7409512 0.6715589 0 0.8032078 0.5956988 0 0.8577284 0.5141029 0 0.9039894 0.427555 0 0.941544 0.3368901 0 0.9700313 0.2429798 0 0 0 1 0.9891765 0.1467304 0 0.9987955 0.04906803 0 0 0 -1 0.9987955 0.04906803 0 0.9891766 0.1467304 0 0.9700313 0.2429798 0 0.941544 0.3368901 0 0.9039893 0.427555 0 0.8577285 0.514103 0 0.8032079 0.5956989 0 0.7409512 0.6715589 0 0.6715589 0.7409512 0 0.5956989 0.8032079 0 0.514103 0.8577285 0 0.427555 0.9039893 0 0.3368901 0.941544 0 0.2429798 0.9700313 0 0.1467304 0.9891766 0 0.04906803 0.9987955 0 -0.04906803 0.9987955 0 -0.1467304 0.9891766 0 -0.2429798 0.9700313 0 -0.3368901 0.941544 0 -0.427555 0.9039893 0 -0.514103 0.8577285 0 -0.5956989 0.8032079 0 -0.6715589 0.7409512 0 -0.7409512 0.6715589 0 -0.8032079 0.5956989 0 -0.8577285 0.514103 0 -0.9039893 0.427555 0 -0.941544 0.3368901 0 -0.9700313 0.2429798 0 -0.9891766 0.1467304 0 -0.9987955 0.04906803 0 -0.9987955 -0.04906803 0 -0.9891766 -0.1467304 0 -0.9700313 -0.2429798 0 -0.941544 -0.3368901 0 -0.9039893 -0.427555 0 -0.8577285 -0.514103 0 -0.8032079 -0.5956989 0 -0.7409512 -0.6715589 0 -0.6715589 -0.7409512 0 -0.5956989 -0.8032079 0 -0.514103 -0.8577285 0 -0.427555 -0.9039893 0 -0.3368901 -0.941544 0 -0.2429798 -0.9700313 0 -0.1467304 -0.9891766 0 -0.04906803 -0.9987955 0 0.04906803 -0.9987955 0 0.1467304 -0.9891766 0 0.2429798 -0.9700313 0 0.3368901 -0.941544 0 0.427555 -0.9039893 0 0.514103 -0.8577285 0 0.5956989 -0.8032079 0 0.6715589 -0.7409512 0 0.7409512 -0.6715589 0 0.8032079 -0.5956989 0 0.8577285 -0.514103 0 0.9039893 -0.427555 0 0.941544 -0.3368901 0 0.9700313 -0.2429798 0 0.9891766 -0.1467304 0 0.9987955 -0.04906803 0 0.9987955 0.04906803 0 0.9891765 0.1467304 0 0.9700313 0.2429798 0 0.9415439 0.3368901 0 0.9039894 0.427555 0 0.8577285 0.5141029 0 0.8032078 0.5956989 0 0.7409512 0.6715589 0 0.6715589 0.7409512 0 0.5956989 0.8032078 0 0.5141029 0.8577285 0 0.427555 0.9039894 0 0.3368901 0.9415439 0 0.2429798 0.9700313 0 0.1467304 0.9891765 0 0.04906803 0.9987955 0 -0.04906803 0.9987955 0 -0.1467304 0.9891765 0 -0.2429798 0.9700313 0 -0.3368901 0.9415439 0 -0.427555 0.9039894 0 -0.5141029 0.8577285 0 -0.5956989 0.8032078 0 -0.6715589 0.7409512 0 -0.7409512 0.6715589 0 -0.8032078 0.5956989 0 -0.8577285 0.5141029 0 -0.9039894 0.427555 0 -0.9415439 0.3368901 0 -0.9700313 0.2429798 0 -0.9891765 0.1467304 0 -0.9987955 0.04906803 0 -0.9987955 -0.04906803 0 -0.9891765 -0.1467304 0 -0.9700313 -0.2429798 0 -0.9415439 -0.3368901 0 -0.9039894 -0.427555 0 -0.8577285 -0.5141029 0 -0.8032078 -0.5956989 0 -0.7409512 -0.6715589 0 -0.6715589 -0.7409512 0 -0.5956989 -0.8032078 0 -0.5141029 -0.8577285 0 -0.427555 -0.9039894 0 -0.3368901 -0.9415439 0 -0.2429798 -0.9700313 0 -0.1467304 -0.9891765 0 -0.04906803 -0.9987955 0 0.04906803 -0.9987955 0 0.1467304 -0.9891765 0 0.2429798 -0.9700313 0 0.3368901 -0.9415439 0 0.427555 -0.9039894 0 0.5141029 -0.8577285 0 0.5956989 -0.8032078 0 0.6715589 -0.7409512 0 0.7409512 -0.6715589 0 0.8032078 -0.5956989 0 0.8577285 -0.5141029 0 0.9039894 -0.427555 0 0.9415439 -0.3368901 0 0.9700313 -0.2429798 0 0.9891765 -0.1467304 0 0.9987955 -0.04906803 0 0.9987955 -0.04906803 0 0.9891765 -0.1467304 0 0.9700313 -0.2429798 0 0.941544 -0.3368901 0 0.9039894 -0.427555 0 0.8577284 -0.5141029 0 0.8032078 -0.5956988 0 0.7409512 -0.6715589 0 0.6715589 -0.7409512 0 0.5956988 -0.8032078 0 0.5141029 -0.8577284 0 0.427555 -0.9039894 0 0.3368901 -0.941544 0 0.2429798 -0.9700313 0 0.1467304 -0.9891765 0 0.04906803 -0.9987955 0 -0.04906803 -0.9987955 0 -0.1467304 -0.9891765 0 -0.2429798 -0.9700313 0 -0.3368901 -0.941544 0 -0.427555 -0.9039894 0 -0.5141029 -0.8577284 0 -0.5956988 -0.8032078 0 -0.6715589 -0.7409512 0 -0.7409512 -0.6715589 0 -0.8032078 -0.5956988 0 -0.8577284 -0.5141029 0 -0.9039894 -0.427555 0 -0.941544 -0.3368901 0 -0.9700313 -0.2429798 0 -0.9891765 -0.1467304 0 -0.9987955 -0.04906803 0 -0.9987955 0.04906803 0 -0.9891765 0.1467304 0 -0.9700313 0.2429798 0 -0.941544 0.3368901 0 -0.9039894 0.427555 0 -0.8577284 0.5141029 0 -0.8032078 0.5956988 0 -0.7409512 0.6715589 0 -0.6715589 0.7409512 0 -0.5956988 0.8032078 0 -0.5141029 0.8577284 0 -0.427555 0.9039894 0 -0.3368901 0.941544 0 -0.2429798 0.9700313 0 -0.1467304 0.9891765 0 -0.04906803 0.9987955 0 0.04906803 0.9987955 0 0.1467304 0.9891765 0 0.2429798 0.9700313 0 0.3368901 0.941544 0 0.427555 0.9039894 0 0.5141029 0.8577284 0 0.5956988 0.8032078 0 0.6715589 0.7409512 0 0.7409512 0.6715589 0 0.8032078 0.5956988 0 0.8577284 0.5141029 0 0.9039894 0.427555 0 0.941544 0.3368901 0 0.9700313 0.2429798 0 0 0 1 0 0 1 0 0 1 0 0 1 0 0 1 0 0 1 0 0 1 0 0 1 0 0 1 0 0 1 0 0 1 0 0 1 0 0 1 0 0 1 0 0 1 0 0 1 0 0 1 0 0 1 0 0 1 0 0 1 0 0 1 0 0 1 0 0 1 0 0 1 0 0 1 0 0 1 0 0 1 0 0 1 0 0 1 0 0 1 0 0 1 0 0 1 0 0 1 0 0 1 0 0 1 0 0 1 0 0 1 0 0 1 0 0 1 0 0 1 0 0 1 0 0 1 0 0 1 0 0 1 0 0 1 0 0 1 0 0 1 0 0 1 0 0 1 0 0 1 0 0 1 0 0 1 0 0 1 0 0 1 0 0 1 0 0 1 0 0 1 0 0 1 0 0 1 0 0 1 0 0 1 0.9891765 0.1467304 0 0.9987955 0.04906803 0 0 0 -1 0 0 -1 0 0 -1 0 0 -1 0 0 -1 0 0 -1 0 0 -1 0 0 -1 0 0 -1 0 0 -1 0 0 -1 0 0 -1 0 0 -1 0 0 -1 0 0 -1 0 0 -1 0 0 -1 0 0 -1 0 0 -1 0 0 -1 0 0 -1 0 0 -1 0 0 -1 0 0 -1 0 0 -1 0 0 -1 0 0 -1 0 0 -1 0 0 -1 0 0 -1 0 0 -1 0 0 -1 0 0 -1 0 0 -1 0 0 -1 0 0 -1 0 0 -1 0 0 -1 0 0 -1 0 0 -1 0 0 -1 0 0 -1 0 0 -1 0 0 -1 0 0 -1 0 0 -1 0 0 -1 0 0 -1 0 0 -1 0 0 -1 0 0 -1 0 0 -1 0 0 -1 0 0 -1 0 0 -1 0 0 -1 0 0 -1 0 0 -1 0 0 -1 0 0 -1 0 0 -1 0.9987955 0.04906803 0 0.9891766 0.1467304 0 0.9700313 0.2429798 0 0.941544 0.3368901 0 0.9039893 0.427555 0 0.8577285 0.514103 0 0.8032079 0.5956989 0 0.7409512 0.6715589 0 0.6715589 0.7409512 0 0.5956989 0.8032079 0 0.514103 0.8577285 0 0.427555 0.9039893 0 0.3368901 0.941544 0 0.2429798 0.9700313 0 0.1467304 0.9891766 0 0.04906803 0.9987955 0 -0.04906803 0.9987955 0 -0.1467304 0.9891766 0 -0.2429798 0.9700313 0 -0.3368901 0.941544 0 -0.427555 0.9039893 0 -0.514103 0.8577285 0 -0.5956989 0.8032079 0 -0.6715589 0.7409512 0 -0.7409512 0.6715589 0 -0.8032079 0.5956989 0 -0.8577285 0.514103 0 -0.9039893 0.427555 0 -0.941544 0.3368901 0 -0.9700313 0.2429798 0 -0.9891766 0.1467304 0 -0.9987955 0.04906803 0 -0.9987955 -0.04906803 0 -0.9891766 -0.1467304 0 -0.9700313 -0.2429798 0 -0.941544 -0.3368901 0 -0.9039893 -0.427555 0 -0.8577285 -0.514103 0 -0.8032079 -0.5956989 0 -0.7409512 -0.6715589 0 -0.6715589 -0.7409512 0 -0.5956989 -0.8032079 0 -0.514103 -0.8577285 0 -0.427555 -0.9039893 0 -0.3368901 -0.941544 0 -0.2429798 -0.9700313 0 -0.1467304 -0.9891766 0 -0.04906803 -0.9987955 0 0.04906803 -0.9987955 0 0.1467304 -0.9891766 0 0.2429798 -0.9700313 0 0.3368901 -0.941544 0 0.427555 -0.9039893 0 0.514103 -0.8577285 0 0.5956989 -0.8032079 0 0.6715589 -0.7409512 0 0.7409512 -0.6715589 0 0.8032079 -0.5956989 0 0.8577285 -0.514103 0 0.9039893 -0.427555 0 0.941544 -0.3368901 0 0.9700313 -0.2429798 0 0.9891766 -0.1467304 0 0.9987955 -0.04906803 0 0.9987955 0.04906803 0 0.9891765 0.1467304 0 0.9700313 0.2429798 0 0.9415439 0.3368901 0 0.9039894 0.427555 0 0.8577285 0.5141029 0 0.8032078 0.5956989 0 0.7409512 0.6715589 0 0.6715589 0.7409512 0 0.5956989 0.8032078 0 0.5141029 0.8577285 0 0.427555 0.9039894 0 0.3368901 0.9415439 0 0.2429798 0.9700313 0 0.1467304 0.9891765 0 0.04906803 0.9987955 0 -0.04906803 0.9987955 0 -0.1467304 0.9891765 0 -0.2429798 0.9700313 0 -0.3368901 0.9415439 0 -0.427555 0.9039894 0 -0.5141029 0.8577285 0 -0.5956989 0.8032078 0 -0.6715589 0.7409512 0 -0.7409512 0.6715589 0 -0.8032078 0.5956989 0 -0.8577285 0.5141029 0 -0.9039894 0.427555 0 -0.9415439 0.3368901 0 -0.9700313 0.2429798 0 -0.9891765 0.1467304 0 -0.9987955 0.04906803 0 -0.9987955 -0.04906803 0 -0.9891765 -0.1467304 0 -0.9700313 -0.2429798 0 -0.9415439 -0.3368901 0 -0.9039894 -0.427555 0 -0.8577285 -0.5141029 0 -0.8032078 -0.5956989 0 -0.7409512 -0.6715589 0 -0.6715589 -0.7409512 0 -0.5956989 -0.8032078 0 -0.5141029 -0.8577285 0 -0.427555 -0.9039894 0 -0.3368901 -0.9415439 0 -0.2429798 -0.9700313 0 -0.1467304 -0.9891765 0 -0.04906803 -0.9987955 0 0.04906803 -0.9987955 0 0.1467304 -0.9891765 0 0.2429798 -0.9700313 0 0.3368901 -0.9415439 0 0.427555 -0.9039894 0 0.5141029 -0.8577285 0 0.5956989 -0.8032078 0 0.6715589 -0.7409512 0 0.7409512 -0.6715589 0 0.8032078 -0.5956989 0 0.8577285 -0.5141029 0 0.9039894 -0.427555 0 0.9415439 -0.3368901 0 0.9700313 -0.2429798 0 0.9891765 -0.1467304 0 0.9987955 -0.04906803 0</float_array>
          <technique_common>
            <accessor source="#Cylinder-mesh-normals-array" count="508" stride="3">
              <param name="X" type="float"/>
              <param name="Y" type="float"/>
              <param name="Z" type="float"/>
            </accessor>
          </technique_common>
        </source>
        <source id="Cylinder-mesh-map-0">
          <float_array id="Cylinder-mesh-map-0-array" count="3048">1 1 0.984375 1 1 1 0.984375 1 0.96875 1 0.984375 1 0.96875 1 0.953125 1 0.96875 1 0.953125 1 0.9375 1 0.953125 1 0.9375 1 0.921875 1 0.9375 1 0.921875 1 0.90625 1 0.921875 1 0.90625 1 0.890625 1 0.90625 1 0.890625 1 0.875 1 0.890625 1 0.875 1 0.8593751 1 0.875 1 0.859375 1 0.84375 1 0.8593751 1 0.84375 1 0.828125 1 0.84375 1 0.828125 1 0.8125 1 0.828125 1 0.8125 1 0.796875 1 0.8125 1 0.796875 1 0.78125 1 0.796875 1 0.78125 1 0.765625 1 0.78125 1 0.765625 1 0.75 1 0.765625 1 0.75 1 0.734375 1 0.75 1 0.734375 1 0.71875 1 0.734375 1 0.71875 1 0.703125 1 0.71875 1 0.703125 1 0.6875 1 0.703125 1 0.6875 1 0.671875 1 0.6875 1 0.671875 1 0.65625 1 0.671875 1 0.65625 1 0.640625 1 0.65625 1 0.640625 1 0.625 1 0.640625 1 0.625 1 0.6093751 1 0.625 1 0.609375 1 0.59375 1 0.6093751 1 0.59375 1 0.578125 1 0.59375 1 0.578125 1 0.5625 1 0.578125 1 0.5625 1 0.546875 1 0.5625 1 0.546875 1 0.53125 1 0.546875 1 0.53125 1 0.515625 1 0.53125 1 0.515625 1 0.5 1 0.515625 1 0.5 1 0.484375 1 0.5 1 0.484375 1 0.46875 1 0.484375 1 0.46875 1 0.453125 1 0.46875 1 0.453125 1 0.4375 1 0.453125 1 0.4375 1 0.421875 1 0.4375 1 0.421875 1 0.40625 1 0.421875 1 0.40625 1 0.390625 1 0.40625 1 0.390625 1 0.375 1 0.390625 1 0.375 1 0.359375 1 0.375 1 0.359375 1 0.34375 1 0.359375 1 0.34375 1 0.328125 1 0.34375 1 0.328125 1 0.3125 1 0.328125 1 0.3125 1 0.296875 1 0.3125 1 0.296875 1 0.28125 1 0.296875 1 0.28125 1 0.265625 1 0.28125 1 0.265625 1 0.25 1 0.265625 1 0.25 1 0.234375 1 0.25 1 0.234375 1 0.21875 1 0.234375 1 0.21875 1 0.203125 1 0.21875 1 0.203125 1 0.1875 1 0.203125 1 0.1875 1 0.171875 1 0.1875 1 0.171875 1 0.15625 1 0.171875 1 0.15625 1 0.140625 1 0.15625 1 0.140625 1 0.125 1 0.140625 1 0.125 1 0.109375 1 0.125 1 0.109375 1 0.09375 1 0.109375 1 0.09375 1 0.078125 1 0.09375 1 0.078125 1 0.0625 1 0.078125 1 0.0625 1 0.046875 1 0.0625 1 0.046875 1 0.03125 1 0.046875 1 0.4495527 0.3833369 0.2968217 0.4853885 0.2031783 0.01461154 0.03125 1 0.015625 1 0.03125 1 0.015625 1 0 1 0.015625 1 0.7735241 0.01115566 0.5111557 0.2264758 0.7264759 0.4888443 0.015625 0.75 0 0.5 0.015625 0.5 0.03125 0.75 0.015625 0.5 0.03125 0.5 0.046875 0.75 0.03125 0.5 0.046875 0.5 0.0625 0.75 0.046875 0.5 0.0625 0.5 0.078125 0.75 0.0625 0.5 0.078125 0.5 0.09375 0.75 0.078125 0.5 0.09375 0.5 0.109375 0.75 0.09375 0.5 0.109375 0.5 0.125 0.75 0.109375 0.5 0.125 0.5 0.140625 0.75 0.125 0.5 0.140625 0.5 0.15625 0.75 0.140625 0.5 0.15625 0.5 0.171875 0.75 0.15625 0.5 0.171875 0.5 0.1875 0.75 0.171875 0.5 0.1875 0.5 0.203125 0.75 0.1875 0.5 0.203125 0.5 0.21875 0.75 0.203125 0.5 0.21875 0.5 0.234375 0.75 0.21875 0.5 0.234375 0.5 0.25 0.75 0.234375 0.5 0.25 0.5 0.265625 0.75 0.25 0.5 0.265625 0.5 0.28125 0.75 0.265625 0.5 0.28125 0.5 0.296875 0.75 0.28125 0.5 0.296875 0.5 0.3125 0.75 0.296875 0.5 0.3125 0.5 0.328125 0.75 0.3125 0.5 0.328125 0.5 0.34375 0.75 0.328125 0.5 0.34375 0.5 0.359375 0.75 0.34375 0.5 0.359375 0.5 0.375 0.75 0.359375 0.5 0.375 0.5 0.390625 0.75 0.375 0.5 0.390625 0.5 0.40625 0.75 0.390625 0.5 0.40625 0.5 0.421875 0.75 0.40625 0.5 0.421875 0.5 0.4375 0.75 0.421875 0.5 0.4375 0.5 0.453125 0.75 0.4375 0.5 0.453125 0.5 0.46875 0.75 0.453125 0.5 0.46875 0.5 0.484375 0.75 0.46875 0.5 0.484375 0.5 0.5 0.75 0.484375 0.5 0.5 0.5 0.515625 0.75 0.5 0.5 0.515625 0.5 0.53125 0.75 0.515625 0.5 0.53125 0.5 0.546875 0.75 0.53125 0.5 0.546875 0.5 0.5625 0.75 0.546875 0.5 0.5625 0.5 0.578125 0.75 0.5625 0.5 0.578125 0.5 0.59375 0.75 0.578125 0.5 0.59375 0.5 0.609375 0.75 0.59375 0.5 0.609375 0.5 0.625 0.75 0.609375 0.5 0.625 0.5 0.640625 0.75 0.625 0.5 0.640625 0.5 0.65625 0.75 0.640625 0.5 0.65625 0.5 0.671875 0.75 0.65625 0.5 0.671875 0.5 0.6875 0.75 0.671875 0.5 0.6875 0.5 0.703125 0.75 0.6875 0.5 0.703125 0.5 0.71875 0.75 0.703125 0.5 0.71875 0.5 0.734375 0.75 0.71875 0.5 0.734375 0.5 0.75 0.75 0.734375 0.5 0.75 0.5 0.765625 0.75 0.75 0.5 0.765625 0.5 0.78125 0.75 0.765625 0.5 0.78125 0.5 0.796875 0.75 0.78125 0.5 0.796875 0.5 0.8125 0.75 0.796875 0.5 0.8125 0.5 0.828125 0.75 0.8125 0.5 0.828125 0.5 0.84375 0.75 0.828125 0.5 0.84375 0.5 0.859375 0.75 0.84375 0.5 0.859375 0.5 0.875 0.75 0.859375 0.5 0.875 0.5 0.890625 0.75 0.875 0.5 0.890625 0.5 0.90625 0.75 0.890625 0.5 0.90625 0.5 0.921875 0.75 0.90625 0.5 0.921875 0.5 0.9375 0.75 0.921875 0.5 0.9375 0.5 0.953125 0.75 0.9375 0.5 0.953125 0.5 0.96875 0.75 0.953125 0.5 0.96875 0.5 0.984375 0.75 0.96875 0.5 0.984375 0.5 1 0.75 0.984375 0.5 1 0.5 0.015625 1 0 0.75 0.015625 0.75 0.03125 1 0.015625 0.75 0.03125 0.75 0.046875 1 0.03125 0.75 0.046875 0.75 0.0625 1 0.046875 0.75 0.0625 0.75 0.078125 1 0.0625 0.75 0.078125 0.75 0.09375 1 0.078125 0.75 0.09375 0.75 0.109375 1 0.09375 0.75 0.109375 0.75 0.125 1 0.109375 0.75 0.125 0.75 0.140625 1 0.125 0.75 0.140625 0.75 0.15625 1 0.140625 0.75 0.15625 0.75 0.171875 1 0.15625 0.75 0.171875 0.75 0.1875 1 0.171875 0.75 0.1875 0.75 0.203125 1 0.1875 0.75 0.203125 0.75 0.21875 1 0.203125 0.75 0.21875 0.75 0.234375 1 0.21875 0.75 0.234375 0.75 0.25 1 0.234375 0.75 0.25 0.75 0.265625 1 0.25 0.75 0.265625 0.75 0.28125 1 0.265625 0.75 0.28125 0.75 0.296875 1 0.28125 0.75 0.296875 0.75 0.3125 1 0.296875 0.75 0.3125 0.75 0.328125 1 0.3125 0.75 0.328125 0.75 0.34375 1 0.328125 0.75 0.34375 0.75 0.359375 1 0.34375 0.75 0.359375 0.75 0.375 1 0.359375 0.75 0.375 0.75 0.390625 1 0.375 0.75 0.390625 0.75 0.40625 1 0.390625 0.75 0.40625 0.75 0.421875 1 0.40625 0.75 0.421875 0.75 0.4375 1 0.421875 0.75 0.4375 0.75 0.453125 1 0.4375 0.75 0.453125 0.75 0.46875 1 0.453125 0.75 0.46875 0.75 0.484375 1 0.46875 0.75 0.484375 0.75 0.5 1 0.484375 0.75 0.5 0.75 0.515625 1 0.5 0.75 0.515625 0.75 0.53125 1 0.515625 0.75 0.53125 0.75 0.546875 1 0.53125 0.75 0.546875 0.75 0.5625 1 0.546875 0.75 0.5625 0.75 0.578125 1 0.5625 0.75 0.578125 0.75 0.59375 1 0.578125 0.75 0.59375 0.75 0.6093751 1 0.59375 0.75 0.609375 0.75 0.625 1 0.609375 0.75 0.625 0.75 0.640625 1 0.625 0.75 0.640625 0.75 0.65625 1 0.640625 0.75 0.65625 0.75 0.671875 1 0.65625 0.75 0.671875 0.75 0.6875 1 0.671875 0.75 0.6875 0.75 0.703125 1 0.6875 0.75 0.703125 0.75 0.71875 1 0.703125 0.75 0.71875 0.75 0.734375 1 0.71875 0.75 0.734375 0.75 0.75 1 0.734375 0.75 0.75 0.75 0.765625 1 0.75 0.75 0.765625 0.75 0.78125 1 0.765625 0.75 0.78125 0.75 0.796875 1 0.78125 0.75 0.796875 0.75 0.8125 1 0.796875 0.75 0.8125 0.75 0.828125 1 0.8125 0.75 0.828125 0.75 0.84375 1 0.828125 0.75 0.84375 0.75 0.8593751 1 0.84375 0.75 0.859375 0.75 0.875 1 0.859375 0.75 0.875 0.75 0.890625 1 0.875 0.75 0.890625 0.75 0.90625 1 0.890625 0.75 0.90625 0.75 0.921875 1 0.90625 0.75 0.921875 0.75 0.9375 1 0.921875 0.75 0.9375 0.75 0.953125 1 0.9375 0.75 0.953125 0.75 0.96875 1 0.953125 0.75 0.96875 0.75 0.984375 1 0.96875 0.75 0.984375 0.75 1 1 0.984375 0.75 1 0.75 1 1 0.984375 1 0.984375 1 0.984375 1 0.96875 1 0.96875 1 0.96875 1 0.953125 1 0.953125 1 0.953125 1 0.9375 1 0.9375 1 0.9375 1 0.921875 1 0.921875 1 0.921875 1 0.90625 1 0.90625 1 0.90625 1 0.890625 1 0.890625 1 0.890625 1 0.875 1 0.875 1 0.875 1 0.859375 1 0.8593751 1 0.859375 1 0.84375 1 0.84375 1 0.84375 1 0.828125 1 0.828125 1 0.828125 1 0.8125 1 0.8125 1 0.8125 1 0.796875 1 0.796875 1 0.796875 1 0.78125 1 0.78125 1 0.78125 1 0.765625 1 0.765625 1 0.765625 1 0.75 1 0.75 1 0.75 1 0.734375 1 0.734375 1 0.734375 1 0.71875 1 0.71875 1 0.71875 1 0.703125 1 0.703125 1 0.703125 1 0.6875 1 0.6875 1 0.6875 1 0.671875 1 0.671875 1 0.671875 1 0.65625 1 0.65625 1 0.65625 1 0.640625 1 0.640625 1 0.640625 1 0.625 1 0.625 1 0.625 1 0.609375 1 0.6093751 1 0.609375 1 0.59375 1 0.59375 1 0.59375 1 0.578125 1 0.578125 1 0.578125 1 0.5625 1 0.5625 1 0.5625 1 0.546875 1 0.546875 1 0.546875 1 0.53125 1 0.53125 1 0.53125 1 0.515625 1 0.515625 1 0.515625 1 0.5 1 0.5 1 0.5 1 0.484375 1 0.484375 1 0.484375 1 0.46875 1 0.46875 1 0.46875 1 0.453125 1 0.453125 1 0.453125 1 0.4375 1 0.4375 1 0.4375 1 0.421875 1 0.421875 1 0.421875 1 0.40625 1 0.40625 1 0.40625 1 0.390625 1 0.390625 1 0.390625 1 0.375 1 0.375 1 0.375 1 0.359375 1 0.359375 1 0.359375 1 0.34375 1 0.34375 1 0.34375 1 0.328125 1 0.328125 1 0.328125 1 0.3125 1 0.3125 1 0.3125 1 0.296875 1 0.296875 1 0.296875 1 0.28125 1 0.28125 1 0.28125 1 0.265625 1 0.265625 1 0.265625 1 0.25 1 0.25 1 0.25 1 0.234375 1 0.234375 1 0.234375 1 0.21875 1 0.21875 1 0.21875 1 0.203125 1 0.203125 1 0.203125 1 0.1875 1 0.1875 1 0.1875 1 0.171875 1 0.171875 1 0.171875 1 0.15625 1 0.15625 1 0.15625 1 0.140625 1 0.140625 1 0.140625 1 0.125 1 0.125 1 0.125 1 0.109375 1 0.109375 1 0.109375 1 0.09375 1 0.09375 1 0.09375 1 0.078125 1 0.078125 1 0.078125 1 0.0625 1 0.0625 1 0.0625 1 0.046875 1 0.046875 1 0.046875 1 0.03125 1 0.03125 1 0.2968217 0.4853885 0.2735241 0.4888443 0.25 0.49 0.25 0.49 0.2264758 0.4888443 0.2968217 0.4853885 0.2264758 0.4888443 0.2031783 0.4853885 0.2968217 0.4853885 0.2031783 0.4853885 0.1803317 0.4796656 0.1581559 0.4717311 0.1581559 0.4717311 0.1368647 0.4616611 0.1166631 0.4495527 0.1166631 0.4495527 0.09774559 0.4355225 0.08029437 0.4197056 0.08029437 0.4197056 0.0644775 0.4022544 0.05044728 0.3833369 0.05044728 0.3833369 0.03833889 0.3631352 0.02826893 0.341844 0.02826893 0.341844 0.0203343 0.3196683 0.01461154 0.2968217 0.01461154 0.2968217 0.01115566 0.2735241 0.00999999 0.25 0.00999999 0.25 0.01115566 0.2264758 0.01461154 0.2968217 0.01115566 0.2264758 0.01461154 0.2031783 0.01461154 0.2968217 0.01461154 0.2031783 0.0203343 0.1803317 0.02826893 0.1581559 0.02826893 0.1581559 0.03833889 0.1368647 0.05044728 0.1166631 0.05044728 0.1166631 0.0644775 0.09774559 0.08029437 0.08029437 0.08029437 0.08029437 0.09774559 0.0644775 0.1166631 0.05044728 0.1166631 0.05044728 0.1368647 0.03833889 0.1581559 0.02826893 0.1581559 0.02826893 0.1803317 0.0203343 0.2031783 0.01461154 0.2031783 0.01461154 0.2264758 0.01115566 0.2968217 0.01461154 0.2264758 0.01115566 0.25 0.00999999 0.2968217 0.01461154 0.25 0.00999999 0.2735241 0.01115566 0.2968217 0.01461154 0.2968217 0.01461154 0.3196683 0.0203343 0.341844 0.02826893 0.341844 0.02826893 0.3631352 0.03833889 0.3833369 0.05044728 0.3833369 0.05044728 0.4022544 0.0644775 0.4197056 0.08029437 0.4197056 0.08029437 0.4355225 0.09774559 0.4495527 0.1166631 0.4495527 0.1166631 0.4616611 0.1368647 0.4717311 0.1581559 0.4717311 0.1581559 0.4796656 0.1803317 0.4853885 0.2031783 0.4853885 0.2031783 0.4888443 0.2264758 0.49 0.25 0.49 0.25 0.4888443 0.2735241 0.4853885 0.2031783 0.4888443 0.2735241 0.4853885 0.2968217 0.4853885 0.2031783 0.4853885 0.2968217 0.4796656 0.3196683 0.4717311 0.341844 0.4717311 0.341844 0.4616611 0.3631352 0.4495527 0.3833369 0.4495527 0.3833369 0.4355225 0.4022544 0.4197056 0.4197056 0.4197056 0.4197056 0.4022544 0.4355225 0.3833369 0.4495527 0.3833369 0.4495527 0.3631352 0.4616611 0.341844 0.4717311 0.341844 0.4717311 0.3196683 0.4796656 0.2968217 0.4853885 0.2031783 0.4853885 0.1581559 0.4717311 0.1166631 0.4495527 0.1166631 0.4495527 0.08029437 0.4197056 0.05044728 0.3833369 0.05044728 0.3833369 0.02826893 0.341844 0.01461154 0.2968217 0.01461154 0.2031783 0.02826893 0.1581559 0.05044728 0.1166631 0.05044728 0.1166631 0.08029437 0.08029437 0.1166631 0.05044728 0.1166631 0.05044728 0.1581559 0.02826893 0.2031783 0.01461154 0.2968217 0.01461154 0.341844 0.02826893 0.3833369 0.05044728 0.3833369 0.05044728 0.4197056 0.08029437 0.4495527 0.1166631 0.4495527 0.1166631 0.4717311 0.1581559 0.4853885 0.2031783 0.4853885 0.2968217 0.4717311 0.341844 0.4495527 0.3833369 0.4495527 0.3833369 0.4197056 0.4197056 0.3833369 0.4495527 0.3833369 0.4495527 0.341844 0.4717311 0.2968217 0.4853885 0.2968217 0.4853885 0.2031783 0.4853885 0.1166631 0.4495527 0.1166631 0.4495527 0.05044728 0.3833369 0.01461154 0.2968217 0.01461154 0.2968217 0.01461154 0.2031783 0.05044728 0.1166631 0.05044728 0.1166631 0.1166631 0.05044728 0.2031783 0.01461154 0.2031783 0.01461154 0.2968217 0.01461154 0.3833369 0.05044728 0.3833369 0.05044728 0.4495527 0.1166631 0.4853885 0.2031783 0.4853885 0.2031783 0.4853885 0.2968217 0.4495527 0.3833369 0.4495527 0.3833369 0.3833369 0.4495527 0.2968217 0.4853885 0.2968217 0.4853885 0.1166631 0.4495527 0.01461154 0.2968217 0.01461154 0.2968217 0.05044728 0.1166631 0.2968217 0.4853885 0.05044728 0.1166631 0.2031783 0.01461154 0.2968217 0.4853885 0.2031783 0.01461154 0.3833369 0.05044728 0.4853885 0.2031783 0.4853885 0.2031783 0.4495527 0.3833369 0.2031783 0.01461154 0.03125 1 0.015625 1 0.015625 1 0.015625 1 0 1 0 1 0.7264759 0.4888443 0.75 0.49 0.7735241 0.4888443 0.7735241 0.4888443 0.7968217 0.4853885 0.8196683 0.4796656 0.8196683 0.4796656 0.841844 0.4717311 0.8631352 0.4616611 0.8631352 0.4616611 0.8833369 0.4495527 0.8196683 0.4796656 0.8833369 0.4495527 0.9022544 0.4355225 0.8196683 0.4796656 0.9022544 0.4355225 0.9197056 0.4197056 0.9355225 0.4022544 0.9355225 0.4022544 0.9495527 0.3833369 0.9022544 0.4355225 0.9495527 0.3833369 0.9616611 0.3631352 0.9022544 0.4355225 0.9616611 0.3631352 0.9717311 0.341844 0.9888443 0.2735241 0.9717311 0.341844 0.9796656 0.3196683 0.9888443 0.2735241 0.9796656 0.3196683 0.9853885 0.2968217 0.9888443 0.2735241 0.9888443 0.2735241 0.99 0.25 0.9888443 0.2264758 0.9888443 0.2264758 0.9853885 0.2031783 0.9796656 0.1803317 0.9796656 0.1803317 0.9717311 0.1581559 0.9616611 0.1368647 0.9616611 0.1368647 0.9495527 0.1166631 0.9796656 0.1803317 0.9495527 0.1166631 0.9355225 0.09774559 0.9796656 0.1803317 0.9355225 0.09774559 0.9197056 0.08029437 0.9022544 0.0644775 0.9022544 0.0644775 0.8833369 0.05044728 0.9355225 0.09774559 0.8833369 0.05044728 0.8631352 0.03833889 0.9355225 0.09774559 0.8631352 0.03833889 0.841844 0.02826893 0.7735241 0.01115566 0.841844 0.02826893 0.8196683 0.0203343 0.7735241 0.01115566 0.8196683 0.0203343 0.7968217 0.01461154 0.7735241 0.01115566 0.7735241 0.01115566 0.75 0.00999999 0.7264759 0.01115566 0.7264759 0.01115566 0.7031784 0.01461154 0.6803317 0.0203343 0.6803317 0.0203343 0.658156 0.02826893 0.6368648 0.03833889 0.6368648 0.03833889 0.6166632 0.05044728 0.6803317 0.0203343 0.6166632 0.05044728 0.5977456 0.0644775 0.6803317 0.0203343 0.5977456 0.0644775 0.5802944 0.08029437 0.5644775 0.09774559 0.5644775 0.09774559 0.5504474 0.1166631 0.5977456 0.0644775 0.5504474 0.1166631 0.5383389 0.1368647 0.5977456 0.0644775 0.5383389 0.1368647 0.5282689 0.1581559 0.5111557 0.2264758 0.5282689 0.1581559 0.5203344 0.1803317 0.5111557 0.2264758 0.5203344 0.1803317 0.5146116 0.2031783 0.5111557 0.2264758 0.5111557 0.2264758 0.51 0.25 0.5111557 0.2735241 0.5111557 0.2735241 0.5146116 0.2968217 0.5203344 0.3196683 0.5203344 0.3196683 0.5282689 0.341844 0.5383389 0.3631352 0.5383389 0.3631352 0.5504474 0.3833369 0.5203344 0.3196683 0.5504474 0.3833369 0.5644775 0.4022544 0.5203344 0.3196683 0.5644775 0.4022544 0.5802944 0.4197056 0.5977456 0.4355225 0.5977456 0.4355225 0.6166632 0.4495527 0.5644775 0.4022544 0.6166632 0.4495527 0.6368648 0.4616611 0.5644775 0.4022544 0.6368648 0.4616611 0.658156 0.4717311 0.7264759 0.4888443 0.658156 0.4717311 0.6803317 0.4796656 0.7264759 0.4888443 0.6803317 0.4796656 0.7031784 0.4853885 0.7264759 0.4888443 0.7264759 0.4888443 0.7735241 0.4888443 0.9022544 0.4355225 0.7735241 0.4888443 0.8196683 0.4796656 0.9022544 0.4355225 0.9888443 0.2735241 0.9888443 0.2264758 0.9355225 0.09774559 0.9888443 0.2264758 0.9796656 0.1803317 0.9355225 0.09774559 0.7735241 0.01115566 0.7264759 0.01115566 0.5977456 0.0644775 0.7264759 0.01115566 0.6803317 0.0203343 0.5977456 0.0644775 0.5111557 0.2264758 0.5111557 0.2735241 0.5644775 0.4022544 0.5111557 0.2735241 0.5203344 0.3196683 0.5644775 0.4022544 0.9022544 0.4355225 0.9616611 0.3631352 0.9888443 0.2735241 0.9355225 0.09774559 0.8631352 0.03833889 0.7735241 0.01115566 0.5977456 0.0644775 0.5383389 0.1368647 0.5111557 0.2264758 0.5644775 0.4022544 0.6368648 0.4616611 0.7264759 0.4888443 0.7264759 0.4888443 0.9022544 0.4355225 0.9888443 0.2735241 0.9888443 0.2735241 0.9355225 0.09774559 0.7735241 0.01115566 0.7735241 0.01115566 0.5977456 0.0644775 0.5111557 0.2264758 0.5111557 0.2264758 0.5644775 0.4022544 0.7264759 0.4888443 0.7264759 0.4888443 0.9888443 0.2735241 0.7735241 0.01115566 0.015625 0.75 0 0.75 0 0.5 0.03125 0.75 0.015625 0.75 0.015625 0.5 0.046875 0.75 0.03125 0.75 0.03125 0.5 0.0625 0.75 0.046875 0.75 0.046875 0.5 0.078125 0.75 0.0625 0.75 0.0625 0.5 0.09375 0.75 0.078125 0.75 0.078125 0.5 0.109375 0.75 0.09375 0.75 0.09375 0.5 0.125 0.75 0.109375 0.75 0.109375 0.5 0.140625 0.75 0.125 0.75 0.125 0.5 0.15625 0.75 0.140625 0.75 0.140625 0.5 0.171875 0.75 0.15625 0.75 0.15625 0.5 0.1875 0.75 0.171875 0.75 0.171875 0.5 0.203125 0.75 0.1875 0.75 0.1875 0.5 0.21875 0.75 0.203125 0.75 0.203125 0.5 0.234375 0.75 0.21875 0.75 0.21875 0.5 0.25 0.75 0.234375 0.75 0.234375 0.5 0.265625 0.75 0.25 0.75 0.25 0.5 0.28125 0.75 0.265625 0.75 0.265625 0.5 0.296875 0.75 0.28125 0.75 0.28125 0.5 0.3125 0.75 0.296875 0.75 0.296875 0.5 0.328125 0.75 0.3125 0.75 0.3125 0.5 0.34375 0.75 0.328125 0.75 0.328125 0.5 0.359375 0.75 0.34375 0.75 0.34375 0.5 0.375 0.75 0.359375 0.75 0.359375 0.5 0.390625 0.75 0.375 0.75 0.375 0.5 0.40625 0.75 0.390625 0.75 0.390625 0.5 0.421875 0.75 0.40625 0.75 0.40625 0.5 0.4375 0.75 0.421875 0.75 0.421875 0.5 0.453125 0.75 0.4375 0.75 0.4375 0.5 0.46875 0.75 0.453125 0.75 0.453125 0.5 0.484375 0.75 0.46875 0.75 0.46875 0.5 0.5 0.75 0.484375 0.75 0.484375 0.5 0.515625 0.75 0.5 0.75 0.5 0.5 0.53125 0.75 0.515625 0.75 0.515625 0.5 0.546875 0.75 0.53125 0.75 0.53125 0.5 0.5625 0.75 0.546875 0.75 0.546875 0.5 0.578125 0.75 0.5625 0.75 0.5625 0.5 0.59375 0.75 0.578125 0.75 0.578125 0.5 0.609375 0.75 0.59375 0.75 0.59375 0.5 0.625 0.75 0.609375 0.75 0.609375 0.5 0.640625 0.75 0.625 0.75 0.625 0.5 0.65625 0.75 0.640625 0.75 0.640625 0.5 0.671875 0.75 0.65625 0.75 0.65625 0.5 0.6875 0.75 0.671875 0.75 0.671875 0.5 0.703125 0.75 0.6875 0.75 0.6875 0.5 0.71875 0.75 0.703125 0.75 0.703125 0.5 0.734375 0.75 0.71875 0.75 0.71875 0.5 0.75 0.75 0.734375 0.75 0.734375 0.5 0.765625 0.75 0.75 0.75 0.75 0.5 0.78125 0.75 0.765625 0.75 0.765625 0.5 0.796875 0.75 0.78125 0.75 0.78125 0.5 0.8125 0.75 0.796875 0.75 0.796875 0.5 0.828125 0.75 0.8125 0.75 0.8125 0.5 0.84375 0.75 0.828125 0.75 0.828125 0.5 0.859375 0.75 0.84375 0.75 0.84375 0.5 0.875 0.75 0.859375 0.75 0.859375 0.5 0.890625 0.75 0.875 0.75 0.875 0.5 0.90625 0.75 0.890625 0.75 0.890625 0.5 0.921875 0.75 0.90625 0.75 0.90625 0.5 0.9375 0.75 0.921875 0.75 0.921875 0.5 0.953125 0.75 0.9375 0.75 0.9375 0.5 0.96875 0.75 0.953125 0.75 0.953125 0.5 0.984375 0.75 0.96875 0.75 0.96875 0.5 1 0.75 0.984375 0.75 0.984375 0.5 0.015625 1 0 1 0 0.75 0.03125 1 0.015625 1 0.015625 0.75 0.046875 1 0.03125 1 0.03125 0.75 0.0625 1 0.046875 1 0.046875 0.75 0.078125 1 0.0625 1 0.0625 0.75 0.09375 1 0.078125 1 0.078125 0.75 0.109375 1 0.09375 1 0.09375 0.75 0.125 1 0.109375 1 0.109375 0.75 0.140625 1 0.125 1 0.125 0.75 0.15625 1 0.140625 1 0.140625 0.75 0.171875 1 0.15625 1 0.15625 0.75 0.1875 1 0.171875 1 0.171875 0.75 0.203125 1 0.1875 1 0.1875 0.75 0.21875 1 0.203125 1 0.203125 0.75 0.234375 1 0.21875 1 0.21875 0.75 0.25 1 0.234375 1 0.234375 0.75 0.265625 1 0.25 1 0.25 0.75 0.28125 1 0.265625 1 0.265625 0.75 0.296875 1 0.28125 1 0.28125 0.75 0.3125 1 0.296875 1 0.296875 0.75 0.328125 1 0.3125 1 0.3125 0.75 0.34375 1 0.328125 1 0.328125 0.75 0.359375 1 0.34375 1 0.34375 0.75 0.375 1 0.359375 1 0.359375 0.75 0.390625 1 0.375 1 0.375 0.75 0.40625 1 0.390625 1 0.390625 0.75 0.421875 1 0.40625 1 0.40625 0.75 0.4375 1 0.421875 1 0.421875 0.75 0.453125 1 0.4375 1 0.4375 0.75 0.46875 1 0.453125 1 0.453125 0.75 0.484375 1 0.46875 1 0.46875 0.75 0.5 1 0.484375 1 0.484375 0.75 0.515625 1 0.5 1 0.5 0.75 0.53125 1 0.515625 1 0.515625 0.75 0.546875 1 0.53125 1 0.53125 0.75 0.5625 1 0.546875 1 0.546875 0.75 0.578125 1 0.5625 1 0.5625 0.75 0.59375 1 0.578125 1 0.578125 0.75 0.6093751 1 0.59375 1 0.59375 0.75 0.625 1 0.6093751 1 0.609375 0.75 0.640625 1 0.625 1 0.625 0.75 0.65625 1 0.640625 1 0.640625 0.75 0.671875 1 0.65625 1 0.65625 0.75 0.6875 1 0.671875 1 0.671875 0.75 0.703125 1 0.6875 1 0.6875 0.75 0.71875 1 0.703125 1 0.703125 0.75 0.734375 1 0.71875 1 0.71875 0.75 0.75 1 0.734375 1 0.734375 0.75 0.765625 1 0.75 1 0.75 0.75 0.78125 1 0.765625 1 0.765625 0.75 0.796875 1 0.78125 1 0.78125 0.75 0.8125 1 0.796875 1 0.796875 0.75 0.828125 1 0.8125 1 0.8125 0.75 0.84375 1 0.828125 1 0.828125 0.75 0.8593751 1 0.84375 1 0.84375 0.75 0.875 1 0.8593751 1 0.859375 0.75 0.890625 1 0.875 1 0.875 0.75 0.90625 1 0.890625 1 0.890625 0.75 0.921875 1 0.90625 1 0.90625 0.75 0.9375 1 0.921875 1 0.921875 0.75 0.953125 1 0.9375 1 0.9375 0.75 0.96875 1 0.953125 1 0.953125 0.75 0.984375 1 0.96875 1 0.96875 0.75 1 1 0.984375 1 0.984375 0.75</float_array>
          <technique_common>
            <accessor source="#Cylinder-mesh-map-0-array" count="1524" stride="2">
              <param name="S" type="float"/>
              <param name="T" type="float"/>
            </accessor>
          </technique_common>
        </source>
        <vertices id="Cylinder-mesh-vertices">
          <input semantic="POSITION" source="#Cylinder-mesh-positions"/>
        </vertices>
        <triangles material="G-material" count="380">
          <input semantic="VERTEX" source="#Cylinder-mesh-vertices" offset="0"/>
          <input semantic="NORMAL" source="#Cylinder-mesh-normals" offset="1"/>
          <input semantic="TEXCOORD" source="#Cylinder-mesh-map-0" offset="2" set="0"/>
          <p>1 0 0 193 0 1 192 0 2 3 1 3 194 1 4 193 1 5 5 2 6 195 2 7 194 2 8 7 3 9 196 3 10 195 3 11 9 4 12 197 4 13 196 4 14 11 5 15 198 5 16 197 5 17 13 6 18 199 6 19 198 6 20 15 7 21 200 7 22 199 7 23 17 8 24 201 8 25 200 8 26 19 9 27 202 9 28 201 9 29 21 10 30 203 10 31 202 10 32 23 11 33 204 11 34 203 11 35 25 12 36 205 12 37 204 12 38 27 13 39 206 13 40 205 13 41 29 14 42 207 14 43 206 14 44 31 15 45 208 15 46 207 15 47 33 16 48 209 16 49 208 16 50 35 17 51 210 17 52 209 17 53 37 18 54 211 18 55 210 18 56 39 19 57 212 19 58 211 19 59 41 20 60 213 20 61 212 20 62 43 21 63 214 21 64 213 21 65 45 22 66 215 22 67 214 22 68 47 23 69 216 23 70 215 23 71 49 24 72 217 24 73 216 24 74 51 25 75 218 25 76 217 25 77 53 26 78 219 26 79 218 26 80 55 27 81 220 27 82 219 27 83 57 28 84 221 28 85 220 28 86 59 29 87 222 29 88 221 29 89 61 30 90 223 30 91 222 30 92 63 31 93 224 31 94 223 31 95 65 32 96 225 32 97 224 32 98 67 33 99 226 33 100 225 33 101 69 34 102 227 34 103 226 34 104 71 35 105 228 35 106 227 35 107 73 36 108 229 36 109 228 36 110 75 37 111 230 37 112 229 37 113 77 38 114 231 38 115 230 38 116 79 39 117 232 39 118 231 39 119 81 40 120 233 40 121 232 40 122 83 41 123 234 41 124 233 41 125 85 42 126 235 42 127 234 42 128 87 43 129 236 43 130 235 43 131 89 44 132 237 44 133 236 44 134 91 45 135 238 45 136 237 45 137 93 46 138 239 46 139 238 46 140 95 47 141 240 47 142 239 47 143 97 48 144 241 48 145 240 48 146 99 49 147 242 49 148 241 49 149 101 50 150 243 50 151 242 50 152 103 51 153 244 51 154 243 51 155 105 52 156 245 52 157 244 52 158 107 53 159 246 53 160 245 53 161 109 54 162 247 54 163 246 54 164 111 55 165 248 55 166 247 55 167 113 56 168 249 56 169 248 56 170 115 57 171 250 57 172 249 57 173 117 58 174 251 58 175 250 58 176 119 59 177 252 59 178 251 59 179 121 60 180 253 60 181 252 60 182 123 61 183 254 61 184 253 61 185 21 62 186 5 62 187 69 62 188 125 63 189 255 63 190 254 63 191 127 64 192 192 64 193 255 64 194 62 65 195 94 65 196 126 65 197 191 66 198 0 66 199 126 66 200 190 67 201 126 67 202 124 67 203 189 68 204 124 68 205 122 68 206 188 69 207 122 69 208 120 69 209 187 70 210 120 70 211 118 70 212 186 71 213 118 71 214 116 71 215 185 72 216 116 72 217 114 72 218 184 73 219 114 73 220 112 73 221 183 74 222 112 74 223 110 74 224 182 75 225 110 75 226 108 75 227 181 76 228 108 76 229 106 76 230 180 77 231 106 77 232 104 77 233 179 78 234 104 78 235 102 78 236 178 79 237 102 79 238 100 79 239 177 80 240 100 80 241 98 80 242 176 81 243 98 81 244 96 81 245 175 82 246 96 82 247 94 82 248 174 83 249 94 83 250 92 83 251 173 84 252 92 84 253 90 84 254 172 85 255 90 85 256 88 85 257 171 86 258 88 86 259 86 86 260 170 87 261 86 87 262 84 87 263 169 88 264 84 88 265 82 88 266 168 89 267 82 89 268 80 89 269 167 90 270 80 90 271 78 90 272 166 91 273 78 91 274 76 91 275 165 92 276 76 92 277 74 92 278 164 93 279 74 93 280 72 93 281 163 94 282 72 94 283 70 94 284 162 95 285 70 95 286 68 95 287 161 96 288 68 96 289 66 96 290 160 97 291 66 97 292 64 97 293 159 98 294 64 98 295 62 98 296 158 99 297 62 99 298 60 99 299 157 100 300 60 100 301 58 100 302 156 101 303 58 101 304 56 101 305 155 102 306 56 102 307 54 102 308 154 103 309 54 103 310 52 103 311 153 104 312 52 104 313 50 104 314 152 105 315 50 105 316 48 105 317 151 106 318 48 106 319 46 106 320 150 107 321 46 107 322 44 107 323 149 108 324 44 108 325 42 108 326 148 109 327 42 109 328 40 109 329 147 110 330 40 110 331 38 110 332 146 111 333 38 111 334 36 111 335 145 112 336 36 112 337 34 112 338 144 113 339 34 113 340 32 113 341 143 114 342 32 114 343 30 114 344 142 115 345 30 115 346 28 115 347 141 116 348 28 116 349 26 116 350 140 117 351 26 117 352 24 117 353 139 118 354 24 118 355 22 118 356 138 119 357 22 119 358 20 119 359 137 120 360 20 120 361 18 120 362 136 121 363 18 121 364 16 121 365 135 122 366 16 122 367 14 122 368 134 123 369 14 123 370 12 123 371 133 124 372 12 124 373 10 124 374 132 125 375 10 125 376 8 125 377 131 126 378 8 126 379 6 126 380 130 127 381 6 127 382 4 127 383 129 128 384 4 128 385 2 128 386 128 129 387 2 129 388 0 129 389 1 194 582 3 194 583 193 194 584 3 195 585 5 195 586 194 195 587 5 196 588 7 196 589 195 196 590 7 197 591 9 197 592 196 197 593 9 198 594 11 198 595 197 198 596 11 199 597 13 199 598 198 199 599 13 200 600 15 200 601 199 200 602 15 201 603 17 201 604 200 201 605 17 202 606 19 202 607 201 202 608 19 203 609 21 203 610 202 203 611 21 204 612 23 204 613 203 204 614 23 205 615 25 205 616 204 205 617 25 206 618 27 206 619 205 206 620 27 207 621 29 207 622 206 207 623 29 208 624 31 208 625 207 208 626 31 209 627 33 209 628 208 209 629 33 210 630 35 210 631 209 210 632 35 211 633 37 211 634 210 211 635 37 212 636 39 212 637 211 212 638 39 213 639 41 213 640 212 213 641 41 214 642 43 214 643 213 214 644 43 215 645 45 215 646 214 215 647 45 216 648 47 216 649 215 216 650 47 217 651 49 217 652 216 217 653 49 218 654 51 218 655 217 218 656 51 219 657 53 219 658 218 219 659 53 220 660 55 220 661 219 220 662 55 221 663 57 221 664 220 221 665 57 222 666 59 222 667 221 222 668 59 223 669 61 223 670 222 223 671 61 224 672 63 224 673 223 224 674 63 225 675 65 225 676 224 225 677 65 226 678 67 226 679 225 226 680 67 227 681 69 227 682 226 227 683 69 228 684 71 228 685 227 228 686 71 229 687 73 229 688 228 229 689 73 230 690 75 230 691 229 230 692 75 231 693 77 231 694 230 231 695 77 232 696 79 232 697 231 232 698 79 233 699 81 233 700 232 233 701 81 234 702 83 234 703 233 234 704 83 235 705 85 235 706 234 235 707 85 236 708 87 236 709 235 236 710 87 237 711 89 237 712 236 237 713 89 238 714 91 238 715 237 238 716 91 239 717 93 239 718 238 239 719 93 240 720 95 240 721 239 240 722 95 241 723 97 241 724 240 241 725 97 242 726 99 242 727 241 242 728 99 243 729 101 243 730 242 243 731 101 244 732 103 244 733 243 244 734 103 245 735 105 245 736 244 245 737 105 246 738 107 246 739 245 246 740 107 247 741 109 247 742 246 247 743 109 248 744 111 248 745 247 248 746 111 249 747 113 249 748 248 249 749 113 250 750 115 250 751 249 250 752 115 251 753 117 251 754 250 251 755 117 252 756 119 252 757 251 252 758 119 253 759 121 253 760 252 253 761 121 254 762 123 254 763 253 254 764 123 255 765 125 255 766 254 255 767 5 256 768 3 256 769 1 256 770 1 257 771 127 257 772 5 257 773 127 258 774 125 258 775 5 258 776 125 259 777 123 259 778 121 259 779 121 260 780 119 260 781 117 260 782 117 261 783 115 261 784 113 261 785 113 262 786 111 262 787 109 262 788 109 263 789 107 263 790 105 263 791 105 264 792 103 264 793 101 264 794 101 265 795 99 265 796 97 265 797 97 266 798 95 266 799 101 266 800 95 267 801 93 267 802 101 267 803 93 268 804 91 268 805 89 268 806 89 269 807 87 269 808 85 269 809 85 270 810 83 270 811 81 270 812 81 271 813 79 271 814 77 271 815 77 272 816 75 272 817 73 272 818 73 273 819 71 273 820 69 273 821 69 274 822 67 274 823 61 274 824 67 275 825 65 275 826 61 275 827 65 276 828 63 276 829 61 276 830 61 277 831 59 277 832 57 277 833 57 278 834 55 278 835 53 278 836 53 279 837 51 279 838 49 279 839 49 280 840 47 280 841 45 280 842 45 281 843 43 281 844 41 281 845 41 282 846 39 282 847 37 282 848 37 283 849 35 283 850 33 283 851 33 284 852 31 284 853 37 284 854 31 285 855 29 285 856 37 285 857 29 286 858 27 286 859 25 286 860 25 287 861 23 287 862 21 287 863 21 288 864 19 288 865 17 288 866 17 289 867 15 289 868 13 289 869 13 290 870 11 290 871 9 290 872 9 291 873 7 291 874 5 291 875 125 292 876 121 292 877 117 292 878 117 293 879 113 293 880 109 293 881 109 294 882 105 294 883 101 294 884 93 295 885 89 295 886 85 295 887 85 296 888 81 296 889 77 296 890 77 297 891 73 297 892 69 297 893 61 298 894 57 298 895 53 298 896 53 299 897 49 299 898 45 299 899 45 300 900 41 300 901 37 300 902 29 301 903 25 301 904 21 301 905 21 302 906 17 302 907 13 302 908 13 303 909 9 303 910 5 303 911 5 304 912 125 304 913 117 304 914 117 305 915 109 305 916 101 305 917 101 306 918 93 306 919 85 306 920 85 307 921 77 307 922 69 307 923 69 308 924 61 308 925 53 308 926 53 309 927 45 309 928 37 309 929 37 310 930 29 310 931 21 310 932 21 311 933 13 311 934 5 311 935 5 312 936 117 312 937 101 312 938 101 313 939 85 313 940 5 313 941 85 314 942 69 314 943 5 314 944 69 315 945 53 315 946 37 315 947 37 316 948 21 316 949 69 316 950 125 317 951 127 317 952 255 317 953 127 318 954 1 318 955 192 318 956 126 319 957 0 319 958 2 319 959 2 320 960 4 320 961 6 320 962 6 321 963 8 321 964 10 321 965 10 322 966 12 322 967 6 322 968 12 323 969 14 323 970 6 323 971 14 324 972 16 324 973 18 324 974 18 325 975 20 325 976 14 325 977 20 326 978 22 326 979 14 326 980 22 327 981 24 327 982 30 327 983 24 328 984 26 328 985 30 328 986 26 329 987 28 329 988 30 329 989 30 330 990 32 330 991 34 330 992 34 331 993 36 331 994 38 331 995 38 332 996 40 332 997 42 332 998 42 333 999 44 333 1000 38 333 1001 44 334 1002 46 334 1003 38 334 1004 46 335 1005 48 335 1006 50 335 1007 50 336 1008 52 336 1009 46 336 1010 52 337 1011 54 337 1012 46 337 1013 54 338 1014 56 338 1015 62 338 1016 56 339 1017 58 339 1018 62 339 1019 58 340 1020 60 340 1021 62 340 1022 62 341 1023 64 341 1024 66 341 1025 66 342 1026 68 342 1027 70 342 1028 70 343 1029 72 343 1030 74 343 1031 74 344 1032 76 344 1033 70 344 1034 76 345 1035 78 345 1036 70 345 1037 78 346 1038 80 346 1039 82 346 1040 82 347 1041 84 347 1042 78 347 1043 84 348 1044 86 348 1045 78 348 1046 86 349 1047 88 349 1048 94 349 1049 88 350 1050 90 350 1051 94 350 1052 90 351 1053 92 351 1054 94 351 1055 94 352 1056 96 352 1057 98 352 1058 98 353 1059 100 353 1060 102 353 1061 102 354 1062 104 354 1063 106 354 1064 106 355 1065 108 355 1066 102 355 1067 108 356 1068 110 356 1069 102 356 1070 110 357 1071 112 357 1072 114 357 1073 114 358 1074 116 358 1075 110 358 1076 116 359 1077 118 359 1078 110 359 1079 118 360 1080 120 360 1081 126 360 1082 120 361 1083 122 361 1084 126 361 1085 122 362 1086 124 362 1087 126 362 1088 126 363 1089 2 363 1090 14 363 1091 2 364 1092 6 364 1093 14 364 1094 30 365 1095 34 365 1096 46 365 1097 34 366 1098 38 366 1099 46 366 1100 62 367 1101 66 367 1102 78 367 1103 66 368 1104 70 368 1105 78 368 1106 94 369 1107 98 369 1108 110 369 1109 98 370 1110 102 370 1111 110 370 1112 14 371 1113 22 371 1114 30 371 1115 46 372 1116 54 372 1117 62 372 1118 78 373 1119 86 373 1120 94 373 1121 110 374 1122 118 374 1123 126 374 1124 126 375 1125 14 375 1126 30 375 1127 30 376 1128 46 376 1129 62 376 1130 62 377 1131 78 377 1132 94 377 1133 94 378 1134 110 378 1135 126 378 1136 126 379 1137 30 379 1138 62 379 1139 191 380 1140 128 380 1141 0 380 1142 190 381 1143 191 381 1144 126 381 1145 189 382 1146 190 382 1147 124 382 1148 188 383 1149 189 383 1150 122 383 1151 187 384 1152 188 384 1153 120 384 1154 186 385 1155 187 385 1156 118 385 1157 185 386 1158 186 386 1159 116 386 1160 184 387 1161 185 387 1162 114 387 1163 183 388 1164 184 388 1165 112 388 1166 182 389 1167 183 389 1168 110 389 1169 181 390 1170 182 390 1171 108 390 1172 180 391 1173 181 391 1174 106 391 1175 179 392 1176 180 392 1177 104 392 1178 178 393 1179 179 393 1180 102 393 1181 177 394 1182 178 394 1183 100 394 1184 176 395 1185 177 395 1186 98 395 1187 175 396 1188 176 396 1189 96 396 1190 174 397 1191 175 397 1192 94 397 1193 173 398 1194 174 398 1195 92 398 1196 172 399 1197 173 399 1198 90 399 1199 171 400 1200 172 400 1201 88 400 1202 170 401 1203 171 401 1204 86 401 1205 169 402 1206 170 402 1207 84 402 1208 168 403 1209 169 403 1210 82 403 1211 167 404 1212 168 404 1213 80 404 1214 166 405 1215 167 405 1216 78 405 1217 165 406 1218 166 406 1219 76 406 1220 164 407 1221 165 407 1222 74 407 1223 163 408 1224 164 408 1225 72 408 1226 162 409 1227 163 409 1228 70 409 1229 161 410 1230 162 410 1231 68 410 1232 160 411 1233 161 411 1234 66 411 1235 159 412 1236 160 412 1237 64 412 1238 158 413 1239 159 413 1240 62 413 1241 157 414 1242 158 414 1243 60 414 1244 156 415 1245 157 415 1246 58 415 1247 155 416 1248 156 416 1249 56 416 1250 154 417 1251 155 417 1252 54 417 1253 153 418 1254 154 418 1255 52 418 1256 152 419 1257 153 419 1258 50 419 1259 151 420 1260 152 420 1261 48 420 1262 150 421 1263 151 421 1264 46 421 1265 149 422 1266 150 422 1267 44 422 1268 148 423 1269 149 423 1270 42 423 1271 147 424 1272 148 424 1273 40 424 1274 146 425 1275 147 425 1276 38 425 1277 145 426 1278 146 426 1279 36 426 1280 144 427 1281 145 427 1282 34 427 1283 143 428 1284 144 428 1285 32 428 1286 142 429 1287 143 429 1288 30 429 1289 141 430 1290 142 430 1291 28 430 1292 140 431 1293 141 431 1294 26 431 1295 139 432 1296 140 432 1297 24 432 1298 138 433 1299 139 433 1300 22 433 1301 137 434 1302 138 434 1303 20 434 1304 136 435 1305 137 435 1306 18 435 1307 135 436 1308 136 436 1309 16 436 1310 134 437 1311 135 437 1312 14 437 1313 133 438 1314 134 438 1315 12 438 1316 132 439 1317 133 439 1318 10 439 1319 131 440 1320 132 440 1321 8 440 1322 130 441 1323 131 441 1324 6 441 1325 129 442 1326 130 442 1327 4 442 1328 128 443 1329 129 443 1330 2 443 1331</p>
        </triangles>
        <triangles material="B-material" count="128">
          <input semantic="VERTEX" source="#Cylinder-mesh-vertices" offset="0"/>
          <input semantic="NORMAL" source="#Cylinder-mesh-normals" offset="1"/>
          <input semantic="TEXCOORD" source="#Cylinder-mesh-map-0" offset="2" set="0"/>
          <p>255 130 390 128 130 391 191 130 392 254 131 393 191 131 394 190 131 395 253 132 396 190 132 397 189 132 398 252 133 399 189 133 400 188 133 401 251 134 402 188 134 403 187 134 404 250 135 405 187 135 406 186 135 407 249 136 408 186 136 409 185 136 410 248 137 411 185 137 412 184 137 413 247 138 414 184 138 415 183 138 416 246 139 417 183 139 418 182 139 419 245 140 420 182 140 421 181 140 422 244 141 423 181 141 424 180 141 425 243 142 426 180 142 427 179 142 428 242 143 429 179 143 430 178 143 431 241 144 432 178 144 433 177 144 434 240 145 435 177 145 436 176 145 437 239 146 438 176 146 439 175 146 440 238 147 441 175 147 442 174 147 443 237 148 444 174 148 445 173 148 446 236 149 447 173 149 448 172 149 449 235 150 450 172 150 451 171 150 452 234 151 453 171 151 454 170 151 455 233 152 456 170 152 457 169 152 458 232 153 459 169 153 460 168 153 461 231 154 462 168 154 463 167 154 464 230 155 465 167 155 466 166 155 467 229 156 468 166 156 469 165 156 470 228 157 471 165 157 472 164 157 473 227 158 474 164 158 475 163 158 476 226 159 477 163 159 478 162 159 479 225 160 480 162 160 481 161 160 482 224 161 483 161 161 484 160 161 485 223 162 486 160 162 487 159 162 488 222 163 489 159 163 490 158 163 491 221 164 492 158 164 493 157 164 494 220 165 495 157 165 496 156 165 497 219 166 498 156 166 499 155 166 500 218 167 501 155 167 502 154 167 503 217 168 504 154 168 505 153 168 506 216 169 507 153 169 508 152 169 509 215 170 510 152 170 511 151 170 512 214 171 513 151 171 514 150 171 515 213 172 516 150 172 517 149 172 518 212 173 519 149 173 520 148 173 521 211 174 522 148 174 523 147 174 524 210 175 525 147 175 526 146 175 527 209 176 528 146 176 529 145 176 530 208 177 531 145 177 532 144 177 533 207 178 534 144 178 535 143 178 536 206 179 537 143 179 538 142 179 539 205 180 540 142 180 541 141 180 542 204 181 543 141 181 544 140 181 545 203 182 546 140 182 547 139 182 548 202 183 549 139 183 550 138 183 551 201 184 552 138 184 553 137 184 554 200 185 555 137 185 556 136 185 557 199 186 558 136 186 559 135 186 560 198 187 561 135 187 562 134 187 563 197 188 564 134 188 565 133 188 566 196 189 567 133 189 568 132 189 569 195 190 570 132 190 571 131 190 572 194 191 573 131 191 574 130 191 575 193 192 576 130 192 577 129 192 578 192 193 579 129 193 580 128 193 581 255 444 1332 192 444 1333 128 444 1334 254 445 1335 255 445 1336 191 445 1337 253 446 1338 254 446 1339 190 446 1340 252 447 1341 253 447 1342 189 447 1343 251 448 1344 252 448 1345 188 448 1346 250 449 1347 251 449 1348 187 449 1349 249 450 1350 250 450 1351 186 450 1352 248 451 1353 249 451 1354 185 451 1355 247 452 1356 248 452 1357 184 452 1358 246 453 1359 247 453 1360 183 453 1361 245 454 1362 246 454 1363 182 454 1364 244 455 1365 245 455 1366 181 455 1367 243 456 1368 244 456 1369 180 456 1370 242 457 1371 243 457 1372 179 457 1373 241 458 1374 242 458 1375 178 458 1376 240 459 1377 241 459 1378 177 459 1379 239 460 1380 240 460 1381 176 460 1382 238 461 1383 239 461 1384 175 461 1385 237 462 1386 238 462 1387 174 462 1388 236 463 1389 237 463 1390 173 463 1391 235 464 1392 236 464 1393 172 464 1394 234 465 1395 235 465 1396 171 465 1397 233 466 1398 234 466 1399 170 466 1400 232 467 1401 233 467 1402 169 467 1403 231 468 1404 232 468 1405 168 468 1406 230 469 1407 231 469 1408 167 469 1409 229 470 1410 230 470 1411 166 470 1412 228 471 1413 229 471 1414 165 471 1415 227 472 1416 228 472 1417 164 472 1418 226 473 1419 227 473 1420 163 473 1421 225 474 1422 226 474 1423 162 474 1424 224 475 1425 225 475 1426 161 475 1427 223 476 1428 224 476 1429 160 476 1430 222 477 1431 223 477 1432 159 477 1433 221 478 1434 222 478 1435 158 478 1436 220 479 1437 221 479 1438 157 479 1439 219 480 1440 220 480 1441 156 480 1442 218 481 1443 219 481 1444 155 481 1445 217 482 1446 218 482 1447 154 482 1448 216 483 1449 217 483 1450 153 483 1451 215 484 1452 216 484 1453 152 484 1454 214 485 1455 215 485 1456 151 485 1457 213 486 1458 214 486 1459 150 486 1460 212 487 1461 213 487 1462 149 487 1463 211 488 1464 212 488 1465 148 488 1466 210 489 1467 211 489 1468 147 489 1469 209 490 1470 210 490 1471 146 490 1472 208 491 1473 209 491 1474 145 491 1475 207 492 1476 208 492 1477 144 492 1478 206 493 1479 207 493 1480 143 493 1481 205 494 1482 206 494 1483 142 494 1484 204 495 1485 205 495 1486 141 495 1487 203 496 1488 204 496 1489 140 496 1490 202 497 1491 203 497 1492 139 497 1493 201 498 1494 202 498 1495 138 498 1496 200 499 1497 201 499 1498 137 499 1499 199 500 1500 200 500 1501 136 500 1502 198 501 1503 199 501 1504 135 501 1505 197 502 1506 198 502 1507 134 502 1508 196 503 1509 197 503 1510 133 503 1511 195 504 1512 196 504 1513 132 504 1514 194 505 1515 195 505 1516 131 505 1517 193 506 1518 194 506 1519 130 506 1520 192 507 1521 193 507 1522 129 507 1523</p>
        </triangles>
      </mesh>
    </geometry>
  </library_geometries>
  <library_visual_scenes>
    <visual_scene id="Scene" name="Scene">
      <node id="Cylinder" name="Cylinder" type="NODE">
        <matrix sid="transform">1 0 0 0 0 1 0 0 0 0 1 0 0 0 0 1</matrix>
        <instance_geometry url="#Cylinder-mesh" name="Cylinder">
          <bind_material>
            <technique_common>
              <instance_material symbol="G-material" target="#G-material">
                <bind_vertex_input semantic="UVMap" input_semantic="TEXCOORD" input_set="0"/>
              </instance_material>
              <instance_material symbol="B-material" target="#B-material">
                <bind_vertex_input semantic="UVMap" input_semantic="TEXCOORD" input_set="0"/>
              </instance_material>
            </technique_common>
          </bind_material>
        </instance_geometry>
      </node>
    </visual_scene>
  </library_visual_scenes>
  <scene>
    <instance_visual_scene url="#Scene"/>
  </scene>
</COLLADA>
