# Blender 5.2.2 LTS
# www.blender.org
mtllib ublox_antenna_ann_mb_00_00.mtl
o ublox_antenna_ann_mb_00_00
v -0.002339 -0.039506 -0.011250
v 0.001418 -0.039761 -0.011250
v -0.000480 -0.039962 -0.011250
v 0.003961 -0.038488 -0.005250
v -0.004629 -0.037798 -0.005250
v -0.003169 -0.039030 -0.005250
v 0.002339 -0.039506 -0.005250
v 0.004629 -0.037798 -0.011250
v -0.026996 0.020373 -0.011250
v -0.015255 0.027740 -0.011250
v -0.029925 0.015419 -0.011250
v -0.016785 -0.027470 -0.011250
v -0.019998 -0.026541 -0.011250
v -0.022726 -0.024605 -0.011250
v -0.015255 -0.027702 -0.011250
v -0.018431 -0.027141 -0.011250
v -0.021444 -0.025688 -0.011250
v -0.026996 -0.020335 -0.011250
v -0.029925 -0.015381 -0.011250
v -0.029317 -0.016697 -0.011250
v -0.028723 -0.018018 -0.011250
v -0.029317 0.016735 -0.011250
v -0.028723 0.018056 -0.011250
v -0.027943 0.019277 -0.011250
v -0.022726 0.024643 -0.011250
v -0.021444 0.025726 -0.011250
v -0.019998 0.026580 -0.011250
v 0.015255 0.027740 -0.011250
v 0.022726 0.024643 -0.011250
v 0.029925 0.013302 -0.011250
v 0.028835 -0.017804 -0.011250
v 0.026996 -0.020335 -0.011250
v 0.029802 -0.014828 -0.011250
v 0.018431 -0.027141 -0.011250
v 0.016785 -0.027470 -0.011250
v 0.021444 -0.025688 -0.011250
v 0.019998 -0.026541 -0.011250
v 0.015255 -0.027702 -0.011250
v 0.022726 -0.024605 -0.011250
v 0.029925 -0.013264 -0.011250
v 0.028015 -0.019142 -0.011250
v -0.029925 -0.015381 -0.005250
v -0.029317 -0.016697 -0.005250
v -0.028723 -0.018018 -0.005250
v -0.027943 -0.019239 -0.005250
v -0.027943 -0.019239 -0.011250
v -0.026996 -0.020335 -0.005250
v -0.021444 -0.025688 -0.005250
v -0.019998 -0.026541 -0.005250
v -0.018431 -0.027141 -0.005250
v -0.016785 -0.027470 -0.005250
v -0.015255 -0.027702 -0.005250
v -0.013827 -0.028261 -0.005250
v -0.012485 -0.029008 -0.011250
v -0.012485 -0.029008 -0.005250
v -0.011264 -0.029938 -0.011250
v -0.011264 -0.029938 -0.005250
v -0.010200 -0.031043 -0.005250
v -0.004629 -0.037798 -0.011250
v -0.010200 -0.031043 -0.011250
v -0.001417 -0.039771 -0.005250
v 0.000480 -0.039962 -0.005250
v 0.003168 -0.039020 -0.011250
v 0.010200 -0.031043 -0.011250
v 0.011264 -0.029938 -0.011250
v 0.010200 -0.031043 -0.005250
v 0.011264 -0.029938 -0.005250
v 0.012485 -0.029008 -0.011250
v 0.012485 -0.029008 -0.005250
v 0.013827 -0.028261 -0.005250
v 0.013827 -0.028261 -0.011250
v 0.015255 -0.027702 -0.005250
v 0.016785 -0.027470 -0.005250
v 0.018431 -0.027141 -0.005250
v 0.019998 -0.026541 -0.005250
v 0.021444 -0.025688 -0.005250
v 0.022726 -0.024605 -0.005250
v 0.028015 -0.019142 -0.005250
v 0.028835 -0.017804 -0.005250
v 0.029436 -0.016354 -0.005250
v 0.029436 -0.016354 -0.011250
v 0.029802 -0.014828 -0.005250
v 0.029925 -0.013264 -0.005250
v 0.029802 0.014866 -0.005250
v 0.029802 0.014866 -0.011250
v 0.029436 0.016392 -0.005250
v 0.029436 0.016392 -0.011250
v 0.028835 0.017842 -0.011250
v 0.028835 0.017842 -0.005250
v 0.028015 0.019180 -0.005250
v 0.028015 0.019180 -0.011250
v 0.026996 0.020373 -0.011250
v 0.026996 0.020373 -0.005250
v 0.021444 0.025726 -0.005250
v 0.021444 0.025726 -0.011250
v 0.019998 0.026580 -0.005250
v 0.019998 0.026580 -0.011250
v 0.018431 0.027179 -0.011250
v 0.018431 0.027179 -0.005250
v 0.016785 0.027508 -0.005250
v 0.015255 0.027740 -0.005250
v 0.013827 0.028299 -0.011250
v 0.013827 0.028299 -0.005250
v 0.012485 0.029047 -0.011250
v 0.012485 0.029047 -0.005250
v 0.011264 0.029976 -0.011250
v 0.011264 0.029976 -0.005250
v 0.010200 0.031082 -0.011250
v 0.003936 0.038496 -0.011250
v 0.010200 0.031082 -0.005250
v 0.003169 0.039069 -0.005250
v 0.004629 0.037837 -0.005250
v 0.002326 0.039508 -0.011250
v 0.001428 0.039847 -0.005250
v 0.000479 0.039962 -0.011250
v -0.000471 0.039889 -0.005250
v -0.001428 0.039847 -0.011250
v -0.002339 0.039544 -0.005250
v -0.003169 0.039069 -0.011250
v -0.004629 0.037837 -0.005250
v -0.010200 0.031082 -0.005250
v -0.004629 0.037837 -0.011250
v -0.010200 0.031082 -0.011250
v -0.011264 0.029976 -0.005250
v -0.011264 0.029976 -0.011250
v -0.012485 0.029047 -0.011250
v -0.012485 0.029047 -0.005250
v -0.013827 0.028299 -0.005250
v -0.013827 0.028299 -0.011250
v -0.015255 0.027740 -0.005250
v -0.016785 0.027508 -0.011250
v -0.016785 0.027508 -0.005250
v -0.018431 0.027179 -0.005250
v -0.018431 0.027179 -0.011250
v -0.019998 0.026580 -0.005250
v -0.021444 0.025726 -0.005250
v -0.022726 0.024643 -0.005250
v -0.026996 0.020373 -0.005250
v -0.027943 0.019277 -0.005250
v -0.028723 0.018056 -0.005250
v -0.029317 0.016736 -0.005250
v -0.029925 0.015419 -0.005250
v 0.016785 0.027508 -0.011250
v -0.022726 -0.024605 -0.005250
v -0.013827 -0.028261 -0.011250
v 0.026996 -0.020335 -0.005250
v 0.029925 0.013302 -0.005250
v 0.022726 0.024643 -0.005250
v -0.015255 0.027740 0.003750
v 0.015255 0.027740 0.003750
v 0.015255 -0.027702 0.003750
v -0.015255 -0.027702 0.003750
v -0.021444 -0.025688 0.003750
v -0.022726 -0.024605 0.003750
v -0.019998 -0.026541 0.003750
v -0.018431 -0.027141 0.003750
v -0.016785 -0.027470 0.003750
v -0.026996 -0.020335 0.003750
v -0.027943 -0.019239 0.003750
v -0.028723 -0.018018 0.003750
v -0.029317 -0.016697 0.003750
v -0.029925 -0.015381 0.003750
v -0.029925 0.015419 0.003750
v 0.029925 0.013302 0.003750
v 0.029925 -0.013264 0.003750
v -0.016785 0.027508 0.003750
v -0.018431 0.027179 0.003750
v -0.019998 0.026580 0.003750
v -0.021444 0.025726 0.003750
v -0.022726 0.024643 0.003750
v -0.026996 0.020373 0.003750
v -0.027943 0.019277 0.003750
v -0.028723 0.018056 0.003750
v -0.029317 0.016736 0.003750
v 0.016785 -0.027470 0.003750
v 0.018431 -0.027141 0.003750
v 0.019998 -0.026541 0.003750
v 0.021444 -0.025688 0.003750
v 0.022726 -0.024605 0.003750
v 0.026996 -0.020335 0.003750
v 0.028015 -0.019142 0.003750
v 0.028835 -0.017804 0.003750
v 0.029436 -0.016354 0.003750
v 0.029802 -0.014828 0.003750
v 0.021444 0.025726 0.003750
v 0.022726 0.024643 0.003750
v 0.019998 0.026580 0.003750
v 0.018431 0.027179 0.003750
v 0.016785 0.027508 0.003750
v 0.026996 0.020373 0.003750
v 0.028015 0.019180 0.003750
v 0.028835 0.017842 0.003750
v 0.029436 0.016392 0.003750
v 0.029802 0.014866 0.003750
v 0.012796 0.023519 0.003750
v -0.012796 0.023519 0.003750
v -0.012796 0.023519 0.011250
v 0.012796 0.023519 0.011250
v 0.023683 0.016371 0.003750
v 0.025953 0.012100 0.003750
v 0.025080 0.014375 0.003750
v 0.026250 0.009682 0.003750
v -0.026250 -0.009643 0.003750
v -0.025080 -0.014337 0.003750
v -0.023683 -0.016333 0.003750
v -0.025953 -0.012062 0.003750
v -0.015553 0.023132 0.011250
v -0.015553 0.023132 0.003750
v -0.018097 0.021999 0.011250
v -0.018097 0.021999 0.003750
v -0.020229 0.020209 0.011250
v -0.020229 0.020209 0.003750
v 0.015553 0.023131 0.011250
v 0.015553 0.023132 0.003750
v 0.018097 0.021999 0.011250
v 0.018097 0.021999 0.003750
v 0.020229 0.020209 0.011250
v 0.020229 0.020209 0.003750
v 0.023683 -0.016333 0.011250
v 0.012796 -0.023481 0.011250
v 0.020229 -0.020170 0.011250
v 0.018097 -0.021960 0.011250
v 0.015553 -0.023093 0.011250
v 0.025953 -0.012062 0.011250
v 0.026250 -0.009643 0.011250
v 0.025080 -0.014337 0.011250
v 0.025080 0.014375 0.011250
v 0.023683 0.016371 0.011250
v 0.025953 0.012100 0.011250
v 0.026250 0.009682 0.011250
v -0.012796 -0.023481 0.011250
v -0.020229 -0.020170 0.011250
v -0.015553 -0.023093 0.011250
v -0.018097 -0.021960 0.011250
v -0.023683 -0.016333 0.011250
v -0.026250 -0.009643 0.011250
v -0.025080 -0.014337 0.011250
v -0.025953 -0.012062 0.011250
v -0.026250 0.009682 0.011250
v -0.023683 0.016371 0.011250
v -0.025953 0.012100 0.011250
v -0.025080 0.014375 0.011250
v -0.023683 0.016371 0.003750
v -0.026250 0.009682 0.003750
v -0.025953 0.012100 0.003750
v -0.025080 0.014375 0.003750
v 0.026250 -0.009643 0.003750
v 0.025953 -0.012062 0.003750
v 0.025080 -0.014337 0.003750
v 0.023683 -0.016333 0.003750
v -0.020229 -0.020170 0.003750
v 0.020229 -0.020170 0.003750
v -0.012796 -0.023481 0.003750
v -0.015553 -0.023093 0.003750
v -0.018097 -0.021960 0.003750
v 0.018097 -0.021960 0.003750
v 0.015553 -0.023093 0.003750
v 0.012796 -0.023481 0.003750
vn -0.0000 -0.0000 -1.0000
vn -0.0000 -0.0000 1.0000
vn -0.9078 -0.4194 -0.0000
vn -0.9120 -0.4101 -0.0000
vn -0.8429 -0.5381 -0.0000
vn -0.7565 -0.6540 -0.0000
vn -0.7071 -0.7071 -0.0000
vn -0.6453 -0.7640 -0.0000
vn -0.5084 -0.8611 -0.0000
vn -0.3572 -0.9340 -0.0000
vn -0.1960 -0.9806 -0.0000
vn -0.1499 -0.9887 -0.0000
vn -0.3645 -0.9312 -0.0000
vn -0.4866 -0.8736 -0.0000
vn -0.6058 -0.7956 -0.0000
vn -0.7204 -0.6936 -0.0000
vn -0.7715 -0.6363 -0.0000
vn -0.6449 -0.7642 -0.0000
vn -0.3896 -0.9208 0.0191
vn -0.0997 -0.9949 0.0160
vn 0.2378 -0.9706 -0.0381
vn 0.5318 -0.8469 0.0048
vn 0.7714 -0.6362 0.0128
vn 0.7204 -0.6936 -0.0000
vn 0.6058 -0.7956 -0.0000
vn 0.4866 -0.8736 -0.0000
vn 0.3645 -0.9312 -0.0000
vn 0.1499 -0.9887 -0.0000
vn 0.1960 -0.9806 -0.0000
vn 0.3572 -0.9340 -0.0000
vn 0.5084 -0.8611 -0.0000
vn 0.6453 -0.7640 -0.0000
vn 0.7071 -0.7071 -0.0000
vn 0.7604 -0.6494 -0.0000
vn 0.8526 -0.5225 -0.0000
vn 0.9239 -0.3827 -0.0000
vn 0.9724 -0.2334 -0.0000
vn 0.9969 -0.0785 -0.0000
vn 1.0000 -0.0000 -0.0000
vn 0.9969 0.0785 -0.0000
vn 0.9724 0.2334 -0.0000
vn 0.9239 0.3827 -0.0000
vn 0.8526 0.5225 -0.0000
vn 0.7604 0.6494 -0.0000
vn 0.7071 0.7071 -0.0000
vn 0.6453 0.7640 -0.0000
vn 0.5084 0.8611 -0.0000
vn 0.3572 0.9340 -0.0000
vn 0.1960 0.9806 -0.0000
vn 0.1499 0.9887 -0.0000
vn 0.3645 0.9312 -0.0000
vn 0.4866 0.8736 -0.0000
vn 0.6058 0.7956 -0.0000
vn 0.7204 0.6936 -0.0000
vn 0.7639 0.6453 -0.0000
vn 0.6449 0.7642 0.0096
vn 0.4080 0.9129 0.0096
vn 0.0221 0.9996 0.0156
vn -0.1813 0.9832 0.0220
vn -0.5978 0.8014 0.0191
vn -0.7715 0.6363 -0.0000
vn -0.7204 0.6936 -0.0000
vn -0.6058 0.7956 -0.0000
vn -0.4866 0.8736 -0.0000
vn -0.3645 0.9312 -0.0000
vn -0.1499 0.9887 -0.0000
vn -0.1960 0.9806 -0.0000
vn -0.3572 0.9340 -0.0000
vn -0.5084 0.8611 -0.0000
vn -0.6453 0.7640 -0.0000
vn -0.7071 0.7071 -0.0000
vn -0.7565 0.6540 -0.0000
vn -0.8430 0.5379 -0.0000
vn -0.9119 0.4105 0.0001
vn -0.9078 0.4194 -0.0000
vn -1.0000 -0.0000 -0.0000
vn -0.7564 -0.6541 -0.0000
vn -0.5978 -0.8014 -0.0191
vn -0.2380 -0.9712 -0.0064
vn 0.1048 -0.9941 0.0263
vn 0.3902 -0.9205 -0.0207
vn 0.6413 -0.7671 -0.0167
vn 0.7664 -0.6423 -0.0000
vn 0.7713 0.6361 -0.0191
vn 0.5320 0.8467 -0.0127
vn 0.2382 0.9710 -0.0191
vn -0.0601 0.9982 0.0026
vn -0.4080 0.9129 -0.0160
vn -0.6449 0.7642 -0.0000
vn -0.8429 0.5381 0.0001
vn -0.9120 0.4101 -0.0000
vn -0.9079 0.4193 -0.0000
vn -0.0000 1.0000 -0.0000
vn -0.0000 -1.0000 -0.0000
vn -0.9119 0.4105 -0.0000
vn 0.9724 0.2335 -0.0000
vn -0.1392 0.9903 -0.0000
vn -0.4068 0.9135 -0.0000
vn -0.6429 0.7659 -0.0000
vn 0.1392 0.9903 0.0001
vn 0.1394 0.9902 -0.0000
vn 0.4068 0.9135 -0.0000
vn 0.4065 0.9136 0.0001
vn 0.6429 0.7659 -0.0000
vn 0.6430 0.7659 -0.0000
vn -0.7433 0.6690 -0.0000
vn 0.7433 0.6690 -0.0000
vn 0.7433 0.6689 -0.0000
vn -0.9926 0.1218 -0.0000
vn -0.9336 0.3583 -0.0000
vn -0.8193 0.5734 -0.0000
vn 0.8193 0.5734 -0.0000
vn 0.9336 0.3583 -0.0000
vn 0.9926 0.1218 -0.0000
vn 0.9925 0.1219 -0.0000
vn -0.8193 -0.5734 -0.0000
vn -0.9336 -0.3583 -0.0000
vn -0.9926 -0.1218 -0.0000
vn 0.9926 -0.1218 -0.0000
vn 0.9336 -0.3583 -0.0000
vn 0.8193 -0.5734 -0.0000
vn -0.7433 -0.6690 -0.0000
vn 0.7433 -0.6690 -0.0000
vn -0.1392 -0.9903 -0.0000
vn -0.4068 -0.9135 -0.0000
vn -0.6429 -0.7659 -0.0000
vn 0.6429 -0.7659 -0.0000
vn 0.4068 -0.9135 -0.0000
vn 0.1392 -0.9903 -0.0000
s 0
usemtl ublox_antenna_ann_mb_00_00_color
f 1//1 2//1 3//1
f 4//2 5//2 6//2
f 7//2 4//2 6//2
f 1//1 8//1 2//1
f 9//1 10//1 11//1
f 12//1 13//1 14//1
f 15//1 12//1 14//1
f 12//1 16//1 13//1
f 13//1 17//1 14//1
f 15//1 18//1 19//1
f 14//1 18//1 15//1
f 20//1 19//1 18//1
f 21//1 20//1 18//1
f 22//1 23//1 24//1
f 22//1 9//1 11//1
f 9//1 25//1 10//1
f 24//1 9//1 22//1
f 25//1 26//1 27//1
f 28//1 29//1 30//1
f 31//1 32//1 33//1
f 34//1 35//1 36//1
f 36//1 37//1 34//1
f 38//1 39//1 35//1
f 39//1 36//1 35//1
f 32//1 39//1 40//1
f 31//1 41//1 32//1
f 42//3 20//3 43//3
f 43//4 21//4 44//4
f 21//5 45//5 44//5
f 18//6 45//6 46//6
f 14//7 47//7 18//7
f 48//8 14//8 17//8
f 49//9 17//9 13//9
f 50//10 13//10 16//10
f 16//11 51//11 50//11
f 51//12 15//12 52//12
f 15//13 53//13 52//13
f 53//14 54//14 55//14
f 55//15 56//15 57//15
f 56//16 58//16 57//16
f 59//17 58//17 60//17
f 59//18 6//18 5//18
f 1//19 61//19 6//19
f 3//20 62//20 61//20
f 3//21 7//21 62//21
f 63//22 4//22 7//22
f 64//23 4//23 8//23
f 65//24 66//24 64//24
f 67//25 68//25 69//25
f 70//26 68//26 71//26
f 72//27 71//27 38//27
f 72//28 35//28 73//28
f 73//29 34//29 74//29
f 75//30 34//30 37//30
f 76//31 37//31 36//31
f 39//32 76//32 36//32
f 32//33 77//33 39//33
f 78//34 32//34 41//34
f 41//35 79//35 78//35
f 31//36 80//36 79//36
f 81//37 82//37 80//37
f 40//38 82//38 33//38
f 30//39 83//39 40//39
f 84//40 30//40 85//40
f 86//41 85//41 87//41
f 86//42 88//42 89//42
f 90//43 88//43 91//43
f 92//44 90//44 91//44
f 29//45 93//45 92//45
f 94//46 29//46 95//46
f 96//47 95//47 97//47
f 96//48 98//48 99//48
f 98//49 100//49 99//49
f 100//50 28//50 101//50
f 101//51 102//51 103//51
f 103//52 104//52 105//52
f 105//53 106//53 107//53
f 108//54 107//54 106//54
f 109//55 110//55 108//55
f 109//56 111//56 112//56
f 113//57 114//57 111//57
f 115//58 116//58 114//58
f 117//59 118//59 116//59
f 119//60 120//60 118//60
f 121//61 122//61 123//61
f 124//62 123//62 125//62
f 124//63 126//63 127//63
f 128//64 126//64 129//64
f 128//65 10//65 130//65
f 130//66 131//66 132//66
f 131//67 133//67 132//67
f 134//68 135//68 133//68
f 136//69 27//69 26//69
f 26//70 137//70 136//70
f 25//71 138//71 137//71
f 139//72 9//72 24//72
f 24//73 140//73 139//73
f 23//74 141//74 140//74
f 142//75 22//75 11//75
f 33//1 81//1 31//1
f 64//1 59//1 60//1
f 40//1 33//1 32//1
f 87//1 85//1 30//1
f 88//1 87//1 30//1
f 91//1 88//1 30//1
f 92//1 91//1 30//1
f 29//1 92//1 30//1
f 97//1 95//1 29//1
f 143//1 97//1 29//1
f 27//1 131//1 25//1
f 131//1 10//1 25//1
f 134//1 131//1 27//1
f 102//1 28//1 30//1
f 46//1 21//1 18//1
f 143//1 98//1 97//1
f 28//1 143//1 29//1
f 104//1 102//1 129//1
f 126//1 104//1 129//1
f 126//1 125//1 104//1
f 125//1 106//1 104//1
f 125//1 123//1 106//1
f 108//1 106//1 123//1
f 119//1 115//1 109//1
f 115//1 113//1 109//1
f 108//1 122//1 109//1
f 123//1 122//1 108//1
f 42//76 142//76 11//76
f 120//2 112//2 111//2
f 118//2 120//2 114//2
f 6//2 61//2 7//2
f 72//2 52//2 53//2
f 72//2 53//2 55//2
f 70//2 72//2 55//2
f 70//2 55//2 57//2
f 69//2 70//2 57//2
f 58//2 5//2 4//2
f 69//2 57//2 58//2
f 67//2 69//2 58//2
f 58//2 4//2 66//2
f 58//2 66//2 67//2
f 120//2 111//2 114//2
f 114//2 116//2 118//2
f 42//76 11//76 19//76
f 8//1 1//1 59//1
f 42//3 19//3 20//3
f 43//4 20//4 21//4
f 21//5 46//5 45//5
f 18//77 47//77 45//77
f 14//7 144//7 47//7
f 48//8 144//8 14//8
f 49//9 48//9 17//9
f 50//10 49//10 13//10
f 16//11 12//11 51//11
f 51//12 12//12 15//12
f 15//13 145//13 53//13
f 53//14 145//14 54//14
f 55//15 54//15 56//15
f 56//16 60//16 58//16
f 59//17 5//17 58//17
f 59//78 1//78 6//78
f 1//79 3//79 61//79
f 3//80 2//80 7//80
f 2//81 63//81 7//81
f 63//82 8//82 4//82
f 64//83 66//83 4//83
f 65//24 67//24 66//24
f 67//25 65//25 68//25
f 70//26 69//26 68//26
f 72//27 70//27 71//27
f 72//28 38//28 35//28
f 73//29 35//29 34//29
f 75//30 74//30 34//30
f 76//31 75//31 37//31
f 39//32 77//32 76//32
f 32//33 146//33 77//33
f 78//34 146//34 32//34
f 41//35 31//35 79//35
f 31//36 81//36 80//36
f 81//37 33//37 82//37
f 40//38 83//38 82//38
f 30//39 147//39 83//39
f 84//40 147//40 30//40
f 86//41 84//41 85//41
f 86//42 87//42 88//42
f 90//43 89//43 88//43
f 92//44 93//44 90//44
f 29//45 148//45 93//45
f 94//46 148//46 29//46
f 96//47 94//47 95//47
f 96//48 97//48 98//48
f 98//49 143//49 100//49
f 100//50 143//50 28//50
f 101//51 28//51 102//51
f 103//52 102//52 104//52
f 105//53 104//53 106//53
f 108//54 110//54 107//54
f 109//84 112//84 110//84
f 109//85 113//85 111//85
f 113//86 115//86 114//86
f 115//87 117//87 116//87
f 117//88 119//88 118//88
f 119//89 122//89 120//89
f 121//61 120//61 122//61
f 124//62 121//62 123//62
f 124//63 125//63 126//63
f 128//64 127//64 126//64
f 128//65 129//65 10//65
f 130//66 10//66 131//66
f 131//67 134//67 133//67
f 134//68 27//68 135//68
f 136//69 135//69 27//69
f 26//70 25//70 137//70
f 25//71 9//71 138//71
f 139//72 138//72 9//72
f 24//90 23//90 140//90
f 23//91 22//91 141//91
f 142//92 141//92 22//92
f 8//1 63//1 2//1
f 61//2 62//2 7//2
f 122//1 119//1 109//1
f 115//1 119//1 117//1
f 130//2 101//2 103//2
f 130//2 103//2 105//2
f 128//2 130//2 105//2
f 128//2 105//2 107//2
f 127//2 128//2 107//2
f 110//2 112//2 120//2
f 127//2 107//2 110//2
f 124//2 127//2 110//2
f 110//2 120//2 121//2
f 110//2 121//2 124//2
f 102//1 30//1 40//1
f 40//1 39//1 38//1
f 40//1 38//1 71//1
f 129//1 102//1 145//1
f 102//1 40//1 71//1
f 145//1 102//1 71//1
f 11//1 10//1 15//1
f 10//1 129//1 145//1
f 15//1 19//1 11//1
f 145//1 15//1 10//1
f 71//1 68//1 54//1
f 71//1 54//1 145//1
f 68//1 65//1 54//1
f 56//1 54//1 65//1
f 64//1 8//1 59//1
f 56//1 65//1 60//1
f 65//1 64//1 60//1
f 149//93 101//93 130//93
f 149//93 150//93 101//93
f 151//94 52//94 72//94
f 151//94 152//94 52//94
f 48//8 153//8 154//8
f 48//8 154//8 144//8
f 153//9 48//9 49//9
f 153//9 49//9 155//9
f 155//10 49//10 50//10
f 155//10 50//10 156//10
f 156//11 50//11 51//11
f 156//11 51//11 157//11
f 51//12 152//12 157//12
f 51//12 52//12 152//12
f 158//7 47//7 144//7
f 158//7 144//7 154//7
f 159//77 45//77 47//77
f 159//77 47//77 158//77
f 160//5 44//5 45//5
f 160//5 45//5 159//5
f 161//4 43//4 44//4
f 161//4 44//4 160//4
f 162//3 42//3 43//3
f 162//3 43//3 161//3
f 162//76 142//76 42//76
f 162//76 163//76 142//76
f 147//39 164//39 165//39
f 147//39 165//39 83//39
f 130//66 166//66 149//66
f 130//66 132//66 166//66
f 132//67 167//67 166//67
f 132//67 133//67 167//67
f 133//68 168//68 167//68
f 133//68 135//68 168//68
f 168//69 135//69 136//69
f 168//69 136//69 169//69
f 169//70 136//70 137//70
f 169//70 137//70 170//70
f 170//71 137//71 138//71
f 170//71 138//71 171//71
f 171//72 138//72 139//72
f 171//72 139//72 172//72
f 172//73 139//73 140//73
f 172//73 140//73 173//73
f 173//95 140//95 141//95
f 173//95 141//95 174//95
f 174//92 141//92 142//92
f 174//92 142//92 163//92
f 72//28 175//28 151//28
f 72//28 73//28 175//28
f 73//29 176//29 175//29
f 73//29 74//29 176//29
f 176//30 74//30 75//30
f 176//30 75//30 177//30
f 177//31 75//31 76//31
f 177//31 76//31 178//31
f 178//32 76//32 77//32
f 178//32 77//32 179//32
f 179//33 77//33 146//33
f 179//33 146//33 180//33
f 78//34 181//34 180//34
f 78//34 180//34 146//34
f 181//35 78//35 79//35
f 181//35 79//35 182//35
f 182//36 79//36 80//36
f 182//36 80//36 183//36
f 183//37 80//37 82//37
f 183//37 82//37 184//37
f 83//38 165//38 184//38
f 83//38 184//38 82//38
f 94//46 185//46 186//46
f 94//46 186//46 148//46
f 185//47 94//47 96//47
f 185//47 96//47 187//47
f 187//48 96//48 99//48
f 187//48 99//48 188//48
f 188//49 99//49 100//49
f 188//49 100//49 189//49
f 150//50 100//50 101//50
f 150//50 189//50 100//50
f 190//45 93//45 148//45
f 190//45 148//45 186//45
f 191//44 90//44 93//44
f 191//44 93//44 190//44
f 192//43 89//43 90//43
f 192//43 90//43 191//43
f 193//42 86//42 89//42
f 193//42 89//42 192//42
f 194//96 84//96 86//96
f 194//41 86//41 193//41
f 164//40 147//40 84//40
f 164//40 84//40 194//40
f 195//93 196//93 197//93
f 195//93 197//93 198//93
f 199//2 200//2 201//2
f 199//2 202//2 200//2
f 203//2 204//2 205//2
f 203//2 206//2 204//2
f 207//97 196//97 208//97
f 207//97 197//97 196//97
f 209//98 208//98 210//98
f 209//98 207//98 208//98
f 211//99 210//99 212//99
f 211//99 209//99 210//99
f 195//100 213//100 214//100
f 198//101 213//101 195//101
f 214//102 215//102 216//102
f 213//103 215//103 214//103
f 216//104 217//104 218//104
f 215//105 217//105 216//105
f 219//2 220//2 221//2
f 221//2 220//2 222//2
f 222//2 220//2 223//2
f 224//2 225//2 226//2
f 226//2 225//2 219//2
f 219//2 225//2 220//2
f 227//2 228//2 229//2
f 229//2 228//2 230//2
f 231//2 232//2 233//2
f 233//2 232//2 234//2
f 231//2 235//2 232//2
f 213//2 198//2 215//2
f 215//2 198//2 217//2
f 217//2 198//2 228//2
f 230//2 198//2 225//2
f 225//2 198//2 220//2
f 228//2 198//2 230//2
f 235//2 236//2 237//2
f 237//2 236//2 238//2
f 231//2 236//2 235//2
f 220//2 197//2 231//2
f 236//2 197//2 239//2
f 198//2 197//2 220//2
f 231//2 197//2 236//2
f 239//2 240//2 241//2
f 241//2 240//2 242//2
f 197//2 240//2 239//2
f 207//2 211//2 197//2
f 209//2 211//2 207//2
f 197//2 211//2 240//2
f 212//106 243//106 240//106
f 212//106 240//106 211//106
f 199//107 218//107 217//107
f 199//108 217//108 228//108
f 244//109 241//109 245//109
f 239//109 241//109 244//109
f 245//110 242//110 246//110
f 241//110 242//110 245//110
f 246//111 240//111 243//111
f 242//111 240//111 246//111
f 199//112 227//112 201//112
f 228//112 227//112 199//112
f 201//113 229//113 200//113
f 227//113 229//113 201//113
f 200//114 230//114 202//114
f 229//115 230//115 200//115
f 244//76 203//76 236//76
f 244//76 236//76 239//76
f 247//39 202//39 230//39
f 247//39 230//39 225//39
f 205//116 237//116 204//116
f 235//116 237//116 205//116
f 204//117 238//117 206//117
f 237//117 238//117 204//117
f 206//118 236//118 203//118
f 238//118 236//118 206//118
f 247//119 224//119 248//119
f 225//119 224//119 247//119
f 248//120 226//120 249//120
f 224//120 226//120 248//120
f 249//121 219//121 250//121
f 226//121 219//121 249//121
f 205//122 251//122 232//122
f 205//122 232//122 235//122
f 252//123 250//123 219//123
f 252//123 219//123 221//123
f 253//124 233//124 254//124
f 231//124 233//124 253//124
f 254//125 234//125 255//125
f 233//125 234//125 254//125
f 255//126 232//126 251//126
f 234//126 232//126 255//126
f 252//127 222//127 256//127
f 221//127 222//127 252//127
f 256//128 223//128 257//128
f 222//128 223//128 256//128
f 257//129 220//129 258//129
f 223//129 220//129 257//129
f 253//94 258//94 220//94
f 253//94 220//94 231//94
f 248//2 247//2 250//2
f 250//2 252//2 180//2
f 218//2 186//2 216//2
f 210//2 170//2 212//2
f 154//2 255//2 251//2
f 152//2 258//2 253//2
f 150//2 196//2 195//2
f 202//2 247//2 165//2
f 203//2 244//2 163//2
f 248//2 250//2 249//2
f 256//2 257//2 176//2
f 257//2 151//2 175//2
f 176//2 257//2 175//2
f 176//2 177//2 256//2
f 177//2 178//2 256//2
f 178//2 179//2 256//2
f 179//2 180//2 252//2
f 180//2 181//2 250//2
f 181//2 182//2 250//2
f 182//2 183//2 249//2
f 183//2 184//2 249//2
f 184//2 165//2 248//2
f 184//2 248//2 249//2
f 250//2 182//2 249//2
f 179//2 252//2 256//2
f 189//2 150//2 214//2
f 189//2 214//2 188//2
f 214//2 216//2 188//2
f 187//2 188//2 216//2
f 186//2 185//2 216//2
f 185//2 187//2 216//2
f 191//2 190//2 199//2
f 190//2 186//2 218//2
f 193//2 192//2 201//2
f 192//2 191//2 199//2
f 164//2 194//2 200//2
f 194//2 193//2 201//2
f 201//2 200//2 194//2
f 199//2 201//2 192//2
f 190//2 218//2 199//2
f 166//2 208//2 149//2
f 166//2 167//2 208//2
f 208//2 167//2 210//2
f 168//2 210//2 167//2
f 170//2 210//2 169//2
f 169//2 210//2 168//2
f 172//2 243//2 171//2
f 171//2 212//2 170//2
f 243//2 212//2 171//2
f 174//2 246//2 173//2
f 173//2 243//2 172//2
f 245//2 246//2 163//2
f 163//2 246//2 174//2
f 173//2 246//2 243//2
f 154//2 153//2 255//2
f 153//2 155//2 255//2
f 155//2 156//2 255//2
f 156//2 157//2 254//2
f 255//2 156//2 254//2
f 157//2 152//2 254//2
f 159//2 158//2 205//2
f 158//2 154//2 251//2
f 205//2 158//2 251//2
f 161//2 160//2 204//2
f 160//2 159//2 205//2
f 204//2 160//2 205//2
f 206//2 162//2 204//2
f 162//2 161//2 204//2
f 257//2 258//2 151//2
f 151//2 258//2 152//2
f 152//2 253//2 254//2
f 208//2 196//2 149//2
f 149//2 196//2 150//2
f 150//2 195//2 214//2
f 165//2 164//2 202//2
f 164//2 200//2 202//2
f 247//2 248//2 165//2
f 163//2 162//2 203//2
f 162//2 206//2 203//2
f 244//2 245//2 163//2
