<?xml version="1.0" encoding="utf-8"?>
<COLLADA xmlns="http://www.collada.org/2005/11/COLLADASchema" version="1.4.1" xmlns:xsi="http://www.w3.org/2001/XMLSchema-instance">
  <asset>
    <contributor>
      <author>Blender User</author>
      <authoring_tool>Blender 4.5.4 LTS commit date:2025-10-27, commit time:12:46, hash:b3efe983cc58</authoring_tool>
    </contributor>
    <created>2025-11-18T02:10:16</created>
    <modified>2025-11-18T02:10:16</modified>
    <unit name="meter" meter="1"/>
    <up_axis>Z_UP</up_axis>
  </asset>
  <library_cameras>
    <camera id="Camera-camera" name="Camera">
      <optics>
        <technique_common>
          <perspective>
            <xfov sid="xfov">39.59775</xfov>
            <aspect_ratio>1.777778</aspect_ratio>
            <znear sid="znear">0.1</znear>
            <zfar sid="zfar">100</zfar>
          </perspective>
        </technique_common>
      </optics>
      <extra>
        <technique profile="blender">
          <shiftx sid="shiftx" type="float">0</shiftx>
          <shifty sid="shifty" type="float">0</shifty>
          <dof_distance sid="dof_distance" type="float">10</dof_distance>
        </technique>
      </extra>
    </camera>
  </library_cameras>
  <library_lights>
    <light id="Light-light" name="Light">
      <technique_common>
        <point>
          <color sid="color">1000 1000 1000</color>
          <constant_attenuation>1</constant_attenuation>
          <linear_attenuation>0</linear_attenuation>
          <quadratic_attenuation>0</quadratic_attenuation>
        </point>
      </technique_common>
      <extra>
        <technique profile="blender">
          <type sid="type" type="int">0</type>
          <flag sid="flag" type="int">0</flag>
          <mode sid="mode" type="int">2097153</mode>
          <red sid="red" type="float">1</red>
          <green sid="green" type="float">1</green>
          <blue sid="blue" type="float">1</blue>
          <energy sid="blender_energy" type="float">1000</energy>
          <spotsize sid="spotsize" type="float">75</spotsize>
          <spotblend sid="spotblend" type="float">0.15</spotblend>
          <clipsta sid="clipsta" type="float">0.04999995</clipsta>
          <clipend sid="clipend" type="float">40</clipend>
          <radius sid="radius" type="float">0.1</radius>
          <area_shape sid="area_shape" type="int">1</area_shape>
          <area_size sid="area_size" type="float">0.1</area_size>
          <area_sizey sid="area_sizey" type="float">0.1</area_sizey>
          <area_sizez sid="area_sizez" type="float">1</area_sizez>
        </technique>
      </extra>
    </light>
  </library_lights>
  <library_effects>
    <effect id="mat_black-effect">
      <profile_COMMON>
        <technique sid="common">
          <lambert>
            <emission>
              <color sid="emission">0 0 0 1</color>
            </emission>
            <diffuse>
              <color sid="diffuse">0 0 0 1</color>
            </diffuse>
            <index_of_refraction>
              <float sid="ior">1.5</float>
            </index_of_refraction>
          </lambert>
        </technique>
      </profile_COMMON>
    </effect>
    <effect id="mat_gray-effect">
      <profile_COMMON>
        <technique sid="common">
          <lambert>
            <emission>
              <color sid="emission">0 0 0 1</color>
            </emission>
            <diffuse>
              <color sid="diffuse">0.5 0.5 0.5 1</color>
            </diffuse>
            <index_of_refraction>
              <float sid="ior">1.5</float>
            </index_of_refraction>
          </lambert>
        </technique>
      </profile_COMMON>
    </effect>
    <effect id="mat_red-effect">
      <profile_COMMON>
        <technique sid="common">
          <lambert>
            <emission>
              <color sid="emission">0 0 0 1</color>
            </emission>
            <diffuse>
              <color sid="diffuse">1 0 0 1</color>
            </diffuse>
            <index_of_refraction>
              <float sid="ior">1.5</float>
            </index_of_refraction>
          </lambert>
        </technique>
      </profile_COMMON>
    </effect>
  </library_effects>
  <library_images/>
  <library_materials>
    <material id="mat_black-material" name="mat_black">
      <instance_effect url="#mat_black-effect"/>
    </material>
    <material id="mat_gray-material" name="mat_gray">
      <instance_effect url="#mat_gray-effect"/>
    </material>
    <material id="mat_red-material" name="mat_red">
      <instance_effect url="#mat_red-effect"/>
    </material>
  </library_materials>
  <library_geometries>
    <geometry id="wheel-mesh-mesh" name="wheel-mesh">
      <mesh>
        <source id="wheel-mesh-mesh-positions">
          <float_array id="wheel-mesh-mesh-positions-array" count="606">0.15 0 0.04999995 0.147118 0.02926397 0.04999995 0.138582 0.05740296 0.04999995 0.12472 0.08333599 0.04999995 0.106066 0.106066 0.04999995 0.08333599 0.12472 0.04999995 0.05740296 0.138582 0.04999995 0.02926397 0.147118 0.04999995 0 0.15 0.04999995 -0.02926397 0.147118 0.04999995 -0.05740296 0.138582 0.04999995 -0.08333599 0.12472 0.04999995 -0.106066 0.106066 0.04999995 -0.12472 0.08333599 0.04999995 -0.138582 0.05740296 0.04999995 -0.147118 0.02926397 0.04999995 -0.15 0 0.04999995 -0.147118 -0.02926397 0.04999995 -0.138582 -0.05740296 0.04999995 -0.12472 -0.08333599 0.04999995 -0.106066 -0.106066 0.04999995 -0.08333599 -0.12472 0.04999995 -0.05740296 -0.138582 0.04999995 -0.02926397 -0.147118 0.04999995 0 -0.15 0.04999995 0.02926397 -0.147118 0.04999995 0.05740296 -0.138582 0.04999995 0.08333599 -0.12472 0.04999995 0.106066 -0.106066 0.04999995 0.12472 -0.08333599 0.04999995 0.138582 -0.05740296 0.04999995 0.147118 -0.02926397 0.04999995 0.105 0 0.04999995 0.102982 0.02048397 0.04999995 0.09700697 0.04018199 0.04999995 0.08730399 0.05833494 0.04999995 0.07424598 0.07424598 0.04999995 0.05833494 0.08730399 0.04999995 0.04018199 0.09700697 0.04999995 0.02048397 0.102982 0.04999995 0 0.105 0.04999995 -0.02048397 0.102982 0.04999995 -0.04018199 0.09700697 0.04999995 -0.05833494 0.08730399 0.04999995 -0.07424598 0.07424598 0.04999995 -0.08730399 0.05833494 0.04999995 -0.09700697 0.04018199 0.04999995 -0.102982 0.02048397 0.04999995 -0.105 0 0.04999995 -0.102982 -0.02048397 0.04999995 -0.09700697 -0.04018199 0.04999995 -0.08730399 -0.05833494 0.04999995 -0.07424598 -0.07424598 0.04999995 -0.05833494 -0.08730399 0.04999995 -0.04018199 -0.09700697 0.04999995 -0.02048397 -0.102982 0.04999995 0 -0.105 0.04999995 0.02048397 -0.102982 0.04999995 0.04018199 -0.09700697 0.04999995 0.05833494 -0.08730399 0.04999995 0.07424598 -0.07424598 0.04999995 0.08730399 -0.05833494 0.04999995 0.09700697 -0.04018199 0.04999995 0.102982 -0.02048397 0.04999995 0.15 0 -0.04999995 0.147118 0.02926397 -0.04999995 0.138582 0.05740296 -0.04999995 0.12472 0.08333599 -0.04999995 0.106066 0.106066 -0.04999995 0.08333599 0.12472 -0.04999995 0.05740296 0.138582 -0.04999995 0.02926397 0.147118 -0.04999995 0 0.15 -0.04999995 -0.02926397 0.147118 -0.04999995 -0.05740296 0.138582 -0.04999995 -0.08333599 0.12472 -0.04999995 -0.106066 0.106066 -0.04999995 -0.12472 0.08333599 -0.04999995 -0.138582 0.05740296 -0.04999995 -0.147118 0.02926397 -0.04999995 -0.15 0 -0.04999995 -0.147118 -0.02926397 -0.04999995 -0.138582 -0.05740296 -0.04999995 -0.12472 -0.08333599 -0.04999995 -0.106066 -0.106066 -0.04999995 -0.08333599 -0.12472 -0.04999995 -0.05740296 -0.138582 -0.04999995 -0.02926397 -0.147118 -0.04999995 0 -0.15 -0.04999995 0.02926397 -0.147118 -0.04999995 0.05740296 -0.138582 -0.04999995 0.08333599 -0.12472 -0.04999995 0.106066 -0.106066 -0.04999995 0.12472 -0.08333599 -0.04999995 0.138582 -0.05740296 -0.04999995 0.147118 -0.02926397 -0.04999995 0.105 0 -0.04999995 0.102982 0.02048397 -0.04999995 0.09700697 0.04018199 -0.04999995 0.08730399 0.05833494 -0.04999995 0.07424598 0.07424598 -0.04999995 0.05833494 0.08730399 -0.04999995 0.04018199 0.09700697 -0.04999995 0.02048397 0.102982 -0.04999995 0 0.105 -0.04999995 -0.02048397 0.102982 -0.04999995 -0.04018199 0.09700697 -0.04999995 -0.05833494 0.08730399 -0.04999995 -0.07424598 0.07424598 -0.04999995 -0.08730399 0.05833494 -0.04999995 -0.09700697 0.04018199 -0.04999995 -0.102982 0.02048397 -0.04999995 -0.105 0 -0.04999995 -0.102982 -0.02048397 -0.04999995 -0.09700697 -0.04018199 -0.04999995 -0.08730399 -0.05833494 -0.04999995 -0.07424598 -0.07424598 -0.04999995 -0.05833494 -0.08730399 -0.04999995 -0.04018199 -0.09700697 -0.04999995 -0.02048397 -0.102982 -0.04999995 0 -0.105 -0.04999995 0.02048397 -0.102982 -0.04999995 0.04018199 -0.09700697 -0.04999995 0.05833494 -0.08730399 -0.04999995 0.07424598 -0.07424598 -0.04999995 0.08730399 -0.05833494 -0.04999995 0.09700697 -0.04018199 -0.04999995 0.102982 -0.02048397 -0.04999995 0.105 0 0.02999997 0.102982 0.02048397 0.02999997 0.09700697 0.04018199 0.02999997 0.08730399 0.05833494 0.02999997 0.07424598 0.07424598 0.02999997 0.05833494 0.08730399 0.02999997 0.04018199 0.09700697 0.02999997 0.02048397 0.102982 0.02999997 0 0.105 0.02999997 -0.02048397 0.102982 0.02999997 -0.04018199 0.09700697 0.02999997 -0.05833494 0.08730399 0.02999997 -0.07424598 0.07424598 0.02999997 -0.08730399 0.05833494 0.02999997 -0.09700697 0.04018199 0.02999997 -0.102982 0.02048397 0.02999997 -0.105 0 0.02999997 -0.102982 -0.02048397 0.02999997 -0.09700697 -0.04018199 0.02999997 -0.08730399 -0.05833494 0.02999997 -0.07424598 -0.07424598 0.02999997 -0.05833494 -0.08730399 0.02999997 -0.04018199 -0.09700697 0.02999997 -0.02048397 -0.102982 0.02999997 0 -0.105 0.02999997 0.02048397 -0.102982 0.02999997 0.04018199 -0.09700697 0.02999997 0.05833494 -0.08730399 0.02999997 0.07424598 -0.07424598 0.02999997 0.08730399 -0.05833494 0.02999997 0.09700697 -0.04018199 0.02999997 0.102982 -0.02048397 0.02999997 0.105 0 -0.02999997 0.102982 0.02048397 -0.02999997 0.09700697 0.04018199 -0.02999997 0.08730399 0.05833494 -0.02999997 0.07424598 0.07424598 -0.02999997 0.05833494 0.08730399 -0.02999997 0.04018199 0.09700697 -0.02999997 0.02048397 0.102982 -0.02999997 0 0.105 -0.02999997 -0.02048397 0.102982 -0.02999997 -0.04018199 0.09700697 -0.02999997 -0.05833494 0.08730399 -0.02999997 -0.07424598 0.07424598 -0.02999997 -0.08730399 0.05833494 -0.02999997 -0.09700697 0.04018199 -0.02999997 -0.102982 0.02048397 -0.02999997 -0.105 0 -0.02999997 -0.102982 -0.02048397 -0.02999997 -0.09700697 -0.04018199 -0.02999997 -0.08730399 -0.05833494 -0.02999997 -0.07424598 -0.07424598 -0.02999997 -0.05833494 -0.08730399 -0.02999997 -0.04018199 -0.09700697 -0.02999997 -0.02048397 -0.102982 -0.02999997 0 -0.105 -0.02999997 0.02048397 -0.102982 -0.02999997 0.04018199 -0.09700697 -0.02999997 0.05833494 -0.08730399 -0.02999997 0.07424598 -0.07424598 -0.02999997 0.08730399 -0.05833494 -0.02999997 0.09700697 -0.04018199 -0.02999997 0.102982 -0.02048397 -0.02999997 0 0 0.02999997 0 0 -0.02999997 0 -0.004499971 -0.04999995 0.105 -0.004499971 -0.04999995 0.105 0.004499971 -0.04999995 0 0.004499971 -0.04999995 0 -0.004499971 0.04999995 0.105 -0.004499971 0.04999995 0.105 0.004499971 0.04999995 0 0.004499971 0.04999995</float_array>
          <technique_common>
            <accessor source="#wheel-mesh-mesh-positions-array" count="202" stride="3">
              <param name="X" type="float"/>
              <param name="Y" type="float"/>
              <param name="Z" type="float"/>
            </accessor>
          </technique_common>
        </source>
        <source id="wheel-mesh-mesh-normals">
          <float_array id="wheel-mesh-mesh-normals-array" count="606">0.7278785 -1.54382e-6 0.6857062 0.713896 0.1419995 0.6857031 -0.6704779 -0.1333687 0.729844 -0.6836026 5.83216e-7 0.7298545 0.6724725 0.2785533 0.6857031 -0.6315724 -0.2615998 0.7298506 0.6052069 0.4043906 0.6857061 -0.5683982 -0.3797939 0.7298493 0.5146904 0.5146879 0.6857042 -0.4833863 -0.4833849 0.7298471 0.4043935 0.6052049 0.6857061 -0.3797953 -0.5683974 0.7298494 0.2785564 0.6724713 0.6857032 -0.2616013 -0.6315718 0.7298505 0.1420027 0.7138953 0.6857031 -0.1333703 -0.6704775 0.729844 1.78666e-6 0.7278785 0.6857062 -1.00678e-6 -0.6836026 0.7298545 -0.1419993 0.713896 0.6857031 0.1333685 -0.6704779 0.7298441 -0.2785533 0.6724725 0.6857031 0.2615997 -0.6315725 0.7298507 -0.4043908 0.6052069 0.6857061 0.3797939 -0.5683984 0.7298493 -0.5146879 0.5146904 0.6857041 0.483385 -0.4833862 0.7298471 -0.6052049 0.4043937 0.6857061 0.5683974 -0.3797951 0.7298495 -0.6724713 0.2785563 0.6857032 0.6315719 -0.2616012 0.7298505 -0.7138954 0.1420025 0.685703 0.6704775 -0.1333704 0.7298441 -0.7278785 1.54382e-6 0.6857062 0.6836026 -5.83216e-7 0.7298545 -0.713896 -0.1419995 0.6857031 0.6704779 0.1333687 0.729844 -0.6724725 -0.2785533 0.6857031 0.6315724 0.2615998 0.7298506 -0.6052069 -0.4043906 0.6857061 0.5683982 0.3797939 0.7298493 -0.5146904 -0.5146879 0.6857042 0.4833863 0.4833849 0.7298471 -0.4043935 -0.6052049 0.6857061 0.3797953 0.5683974 0.7298494 -0.2785564 -0.6724713 0.6857032 0.2616013 0.6315718 0.7298505 -0.1420027 -0.7138953 0.6857031 0.1333703 0.6704775 0.729844 -1.78666e-6 -0.7278785 0.6857062 1.00678e-6 0.6836026 0.7298545 0.1419993 -0.713896 0.6857031 -0.1333685 0.6704779 0.7298441 0.2785533 -0.6724725 0.6857031 -0.2615997 0.6315725 0.7298507 0.4043908 -0.6052069 0.6857061 -0.3797939 0.5683984 0.7298493 0.5146879 -0.5146904 0.6857041 -0.483385 0.4833862 0.7298471 0.6052049 -0.4043937 0.6857061 -0.5683974 0.3797951 0.7298495 0.6724713 -0.2785563 0.6857032 -0.6315719 0.2616012 0.7298505 0.7138954 -0.1420025 0.685703 -0.6704775 0.1333704 0.7298441 0.7278785 1.54468e-6 -0.6857062 -0.6704775 -0.1333704 -0.7298441 0.7138953 0.1420025 -0.6857031 -0.6836026 -5.82809e-7 -0.7298545 -0.6315719 -0.2616012 -0.7298505 0.6724714 0.2785563 -0.685703 -0.5683975 -0.379795 -0.7298494 0.6052049 0.4043937 -0.6857061 -0.483385 -0.4833862 -0.7298471 0.5146878 0.5146904 -0.6857042 -0.3797938 -0.5683983 -0.7298493 0.4043906 0.6052069 -0.6857061 -0.2615998 -0.6315724 -0.7298506 0.2785533 0.6724725 -0.6857032 -0.1333687 -0.6704778 -0.729844 0.1419993 0.713896 -0.685703 6.93995e-7 -0.6836026 -0.7298545 -1.66871e-6 0.7278785 -0.6857062 0.1333702 -0.6704775 -0.7298441 -0.1420026 0.7138953 -0.6857031 0.2616012 -0.6315718 -0.7298505 -0.2785564 0.6724713 -0.685703 0.3797953 -0.5683974 -0.7298493 -0.4043936 0.6052049 -0.6857061 0.4833863 -0.4833849 -0.7298471 -0.5146905 0.5146879 -0.6857042 0.5683982 -0.379794 -0.7298494 -0.6052069 0.4043907 -0.6857061 0.6315724 -0.2615998 -0.7298506 -0.6724725 0.2785533 -0.6857032 0.6704779 -0.1333687 -0.729844 -0.713896 0.1419995 -0.685703 0.6836026 5.83216e-7 -0.7298545 -0.7278785 -1.54382e-6 -0.6857062 0.6704775 0.1333704 -0.7298441 -0.7138953 -0.1420025 -0.6857031 0.6315719 0.2616012 -0.7298505 -0.6724714 -0.2785563 -0.685703 0.5683975 0.379795 -0.7298494 -0.6052049 -0.4043937 -0.6857061 0.483385 0.4833862 -0.7298471 -0.5146878 -0.5146904 -0.6857042 0.3797938 0.5683983 -0.7298493 -0.4043906 -0.6052069 -0.6857061 0.2615998 0.6315724 -0.7298506 -0.2785533 -0.6724725 -0.6857032 0.1333687 0.6704778 -0.729844 -0.1419993 -0.713896 -0.685703 -6.93995e-7 0.6836026 -0.7298545 1.66871e-6 -0.7278785 -0.6857062 -0.1333702 0.6704775 -0.7298441 0.1420026 -0.7138953 -0.6857031 -0.2616012 0.6315718 -0.7298505 0.2785564 -0.6724713 -0.685703 -0.3797953 0.5683974 -0.7298493 0.4043936 -0.6052049 -0.6857061 -0.4833863 0.4833849 -0.7298471 0.5146905 -0.5146879 -0.6857042 -0.5683982 0.379794 -0.7298494 0.6052069 -0.4043907 -0.6857061 -0.6315724 0.2615998 -0.7298506 0.6724725 -0.2785533 -0.6857032 -0.6704779 0.1333687 -0.729844 0.713896 -0.1419995 -0.685703 0 0 1 -0.7278734 1.66524e-6 0.6857116 -0.7138786 -0.1420008 0.6857209 -0.672467 -0.2785373 0.6857151 -0.6052005 -0.4043832 0.6857162 -0.5146813 -0.5146783 0.6857182 -0.4043864 -0.6051984 0.6857162 -0.2785409 -0.6724656 0.685715 -0.1420044 -0.7138779 0.6857209 -1.88033e-6 -0.7278734 0.6857116 0.1420007 -0.7138786 0.6857209 0.2785374 -0.6724669 0.6857151 0.4043832 -0.6052005 0.6857162 0.5146784 -0.5146813 0.6857182 0.6051984 -0.4043863 0.6857162 0.6724656 -0.2785407 0.685715 0.7138779 -0.1420045 0.6857209 0.7278734 -1.66524e-6 0.6857116 0.7138786 0.1420008 0.6857209 0.672467 0.2785373 0.6857151 0.6052005 0.4043832 0.6857162 0.5146813 0.5146783 0.6857182 0.4043864 0.6051984 0.6857162 0.2785409 0.6724656 0.685715 0.1420044 0.7138779 0.6857209 1.88033e-6 0.7278734 0.6857116 -0.1420007 0.7138786 0.6857209 -0.2785374 0.6724669 0.6857151 -0.4043832 0.6052005 0.6857162 -0.5146784 0.5146813 0.6857182 -0.6051984 0.4043863 0.6857162 -0.6724656 0.2785407 0.685715 -0.7138779 0.1420045 0.6857209 0 0 -1 -0.7138779 -0.1420045 -0.6857209 -0.7278734 -1.66524e-6 -0.6857116 -0.6724657 -0.2785407 -0.685715 -0.6051984 -0.4043863 -0.6857162 -0.5146784 -0.5146813 -0.6857182 -0.4043832 -0.6052005 -0.6857162 -0.2785374 -0.6724669 -0.6857151 -0.1420007 -0.7138786 -0.6857209 1.88033e-6 -0.7278734 -0.6857116 0.1420044 -0.7138779 -0.6857209 0.2785408 -0.6724656 -0.685715 0.4043864 -0.6051984 -0.6857162 0.5146813 -0.5146784 -0.6857182 0.6052005 -0.4043833 -0.6857162 0.6724669 -0.2785373 -0.6857151 0.7138786 -0.1420008 -0.6857209 0.7278734 1.66524e-6 -0.6857116 0.7138779 0.1420045 -0.6857209 0.6724657 0.2785407 -0.685715 0.6051984 0.4043863 -0.6857162 0.5146784 0.5146813 -0.6857182 0.4043832 0.6052005 -0.6857162 0.2785374 0.6724669 -0.6857151 0.1420007 0.7138786 -0.6857209 -1.88033e-6 0.7278734 -0.6857116 -0.1420044 0.7138779 -0.6857209 -0.2785408 0.6724656 -0.685715 -0.4043864 0.6051984 -0.6857162 -0.5146813 0.5146784 -0.6857182 -0.6052005 0.4043833 -0.6857162 -0.6724669 0.2785373 -0.6857151 -0.7138786 0.1420008 -0.6857209 0.577342 0.5773663 0.5773425 -0.5773557 0.5773476 0.5773476 -0.5773475 -0.5773475 0.5773559 0.5773395 -0.5773718 0.5773395 0.5773475 0.5773475 -0.5773559 -0.577342 -0.5773663 -0.5773425 -0.5773395 0.5773718 -0.5773395 0.5773557 -0.5773476 -0.5773476</float_array>
          <technique_common>
            <accessor source="#wheel-mesh-mesh-normals-array" count="202" stride="3">
              <param name="X" type="float"/>
              <param name="Y" type="float"/>
              <param name="Z" type="float"/>
            </accessor>
          </technique_common>
        </source>
        <vertices id="wheel-mesh-mesh-vertices">
          <input semantic="POSITION" source="#wheel-mesh-mesh-positions"/>
        </vertices>
        <triangles material="mat_black-material" count="256">
          <input semantic="VERTEX" source="#wheel-mesh-mesh-vertices" offset="0"/>
          <input semantic="NORMAL" source="#wheel-mesh-mesh-normals" offset="1"/>
          <p>0 0 1 1 33 2 0 0 33 2 32 3 1 1 2 4 34 5 1 1 34 5 33 2 2 4 3 6 35 7 2 4 35 7 34 5 3 6 4 8 36 9 3 6 36 9 35 7 4 8 5 10 37 11 4 8 37 11 36 9 5 10 6 12 38 13 5 10 38 13 37 11 6 12 7 14 39 15 6 12 39 15 38 13 7 14 8 16 40 17 7 14 40 17 39 15 8 16 9 18 41 19 8 16 41 19 40 17 9 18 10 20 42 21 9 18 42 21 41 19 10 20 11 22 43 23 10 20 43 23 42 21 11 22 12 24 44 25 11 22 44 25 43 23 12 24 13 26 45 27 12 24 45 27 44 25 13 26 14 28 46 29 13 26 46 29 45 27 14 28 15 30 47 31 14 28 47 31 46 29 15 30 16 32 48 33 15 30 48 33 47 31 16 32 17 34 49 35 16 32 49 35 48 33 17 34 18 36 50 37 17 34 50 37 49 35 18 36 19 38 51 39 18 36 51 39 50 37 19 38 20 40 52 41 19 38 52 41 51 39 20 40 21 42 53 43 20 40 53 43 52 41 21 42 22 44 54 45 21 42 54 45 53 43 22 44 23 46 55 47 22 44 55 47 54 45 23 46 24 48 56 49 23 46 56 49 55 47 24 48 25 50 57 51 24 48 57 51 56 49 25 50 26 52 58 53 25 50 58 53 57 51 26 52 27 54 59 55 26 52 59 55 58 53 27 54 28 56 60 57 27 54 60 57 59 55 28 56 29 58 61 59 28 56 61 59 60 57 29 58 30 60 62 61 29 58 62 61 61 59 30 60 31 62 63 63 30 60 63 63 62 61 31 62 0 0 32 3 31 62 32 3 63 63 64 64 97 65 65 66 64 64 96 67 97 65 65 66 98 68 66 69 65 66 97 65 98 68 66 69 99 70 67 71 66 69 98 68 99 70 67 71 100 72 68 73 67 71 99 70 100 72 68 73 101 74 69 75 68 73 100 72 101 74 69 75 102 76 70 77 69 75 101 74 102 76 70 77 103 78 71 79 70 77 102 76 103 78 71 79 104 80 72 81 71 79 103 78 104 80 72 81 105 82 73 83 72 81 104 80 105 82 73 83 106 84 74 85 73 83 105 82 106 84 74 85 107 86 75 87 74 85 106 84 107 86 75 87 108 88 76 89 75 87 107 86 108 88 76 89 109 90 77 91 76 89 108 88 109 90 77 91 110 92 78 93 77 91 109 90 110 92 78 93 111 94 79 95 78 93 110 92 111 94 79 95 112 96 80 97 79 95 111 94 112 96 80 97 113 98 81 99 80 97 112 96 113 98 81 99 114 100 82 101 81 99 113 98 114 100 82 101 115 102 83 103 82 101 114 100 115 102 83 103 116 104 84 105 83 103 115 102 116 104 84 105 117 106 85 107 84 105 116 104 117 106 85 107 118 108 86 109 85 107 117 106 118 108 86 109 119 110 87 111 86 109 118 108 119 110 87 111 120 112 88 113 87 111 119 110 120 112 88 113 121 114 89 115 88 113 120 112 121 114 89 115 122 116 90 117 89 115 121 114 122 116 90 117 123 118 91 119 90 117 122 116 123 118 91 119 124 120 92 121 91 119 123 118 124 120 92 121 125 122 93 123 92 121 124 120 125 122 93 123 126 124 94 125 93 123 125 122 126 124 94 125 127 126 95 127 94 125 126 124 127 126 95 127 96 67 64 64 95 127 127 126 96 67 0 0 64 64 65 66 0 0 65 66 1 1 1 1 65 66 66 69 1 1 66 69 2 4 2 4 66 69 67 71 2 4 67 71 3 6 3 6 67 71 68 73 3 6 68 73 4 8 4 8 68 73 69 75 4 8 69 75 5 10 5 10 69 75 70 77 5 10 70 77 6 12 6 12 70 77 71 79 6 12 71 79 7 14 7 14 71 79 72 81 7 14 72 81 8 16 8 16 72 81 73 83 8 16 73 83 9 18 9 18 73 83 74 85 9 18 74 85 10 20 10 20 74 85 75 87 10 20 75 87 11 22 11 22 75 87 76 89 11 22 76 89 12 24 12 24 76 89 77 91 12 24 77 91 13 26 13 26 77 91 78 93 13 26 78 93 14 28 14 28 78 93 79 95 14 28 79 95 15 30 15 30 79 95 80 97 15 30 80 97 16 32 16 32 80 97 81 99 16 32 81 99 17 34 17 34 81 99 82 101 17 34 82 101 18 36 18 36 82 101 83 103 18 36 83 103 19 38 19 38 83 103 84 105 19 38 84 105 20 40 20 40 84 105 85 107 20 40 85 107 21 42 21 42 85 107 86 109 21 42 86 109 22 44 22 44 86 109 87 111 22 44 87 111 23 46 23 46 87 111 88 113 23 46 88 113 24 48 24 48 88 113 89 115 24 48 89 115 25 50 25 50 89 115 90 117 25 50 90 117 26 52 26 52 90 117 91 119 26 52 91 119 27 54 27 54 91 119 92 121 27 54 92 121 28 56 28 56 92 121 93 123 28 56 93 123 29 58 29 58 93 123 94 125 29 58 94 125 30 60 30 60 94 125 95 127 30 60 95 127 31 62 31 62 95 127 64 64 31 62 64 64 0 0 32 3 97 65 96 67 32 3 33 2 97 65 33 2 98 68 97 65 33 2 34 5 98 68 34 5 99 70 98 68 34 5 35 7 99 70 35 7 100 72 99 70 35 7 36 9 100 72 36 9 101 74 100 72 36 9 37 11 101 74 37 11 102 76 101 74 37 11 38 13 102 76 38 13 103 78 102 76 38 13 39 15 103 78 39 15 104 80 103 78 39 15 40 17 104 80 40 17 105 82 104 80 40 17 41 19 105 82 41 19 106 84 105 82 41 19 42 21 106 84 42 21 107 86 106 84 42 21 43 23 107 86 43 23 108 88 107 86 43 23 44 25 108 88 44 25 109 90 108 88 44 25 45 27 109 90 45 27 110 92 109 90 45 27 46 29 110 92 46 29 111 94 110 92 46 29 47 31 111 94 47 31 112 96 111 94 47 31 48 33 112 96 48 33 113 98 112 96 48 33 49 35 113 98 49 35 114 100 113 98 49 35 50 37 114 100 50 37 115 102 114 100 50 37 51 39 115 102 51 39 116 104 115 102 51 39 52 41 116 104 52 41 117 106 116 104 52 41 53 43 117 106 53 43 118 108 117 106 53 43 54 45 118 108 54 45 119 110 118 108 54 45 55 47 119 110 55 47 120 112 119 110 55 47 56 49 120 112 56 49 121 114 120 112 56 49 57 51 121 114 57 51 122 116 121 114 57 51 58 53 122 116 58 53 123 118 122 116 58 53 59 55 123 118 59 55 124 120 123 118 59 55 60 57 124 120 60 57 125 122 124 120 60 57 61 59 125 122 61 59 126 124 125 122 61 59 62 61 126 124 62 61 127 126 126 124 62 61 63 63 127 126 63 63 96 67 127 126 63 63 32 3 96 67</p>
        </triangles>
        <triangles material="mat_gray-material" count="128">
          <input semantic="VERTEX" source="#wheel-mesh-mesh-vertices" offset="0"/>
          <input semantic="NORMAL" source="#wheel-mesh-mesh-normals" offset="1"/>
          <p>192 128 128 129 129 130 192 128 129 130 130 131 192 128 130 131 131 132 192 128 131 132 132 133 192 128 132 133 133 134 192 128 133 134 134 135 192 128 134 135 135 136 192 128 135 136 136 137 192 128 136 137 137 138 192 128 137 138 138 139 192 128 138 139 139 140 192 128 139 140 140 141 192 128 140 141 141 142 192 128 141 142 142 143 192 128 142 143 143 144 192 128 143 144 144 145 192 128 144 145 145 146 192 128 145 146 146 147 192 128 146 147 147 148 192 128 147 148 148 149 192 128 148 149 149 150 192 128 149 150 150 151 192 128 150 151 151 152 192 128 151 152 152 153 192 128 152 153 153 154 192 128 153 154 154 155 192 128 154 155 155 156 192 128 155 156 156 157 192 128 156 157 157 158 192 128 157 158 158 159 192 128 158 159 159 160 192 128 159 160 128 129 193 161 161 162 160 163 193 161 162 164 161 162 193 161 163 165 162 164 193 161 164 166 163 165 193 161 165 167 164 166 193 161 166 168 165 167 193 161 167 169 166 168 193 161 168 170 167 169 193 161 169 171 168 170 193 161 170 172 169 171 193 161 171 173 170 172 193 161 172 174 171 173 193 161 173 175 172 174 193 161 174 176 173 175 193 161 175 177 174 176 193 161 176 178 175 177 193 161 177 179 176 178 193 161 178 180 177 179 193 161 179 181 178 180 193 161 180 182 179 181 193 161 181 183 180 182 193 161 182 184 181 183 193 161 183 185 182 184 193 161 184 186 183 185 193 161 185 187 184 186 193 161 186 188 185 187 193 161 187 189 186 188 193 161 188 190 187 189 193 161 189 191 188 190 193 161 190 192 189 191 193 161 191 193 190 192 193 161 160 163 191 193 128 129 129 130 161 162 128 129 161 162 160 163 129 130 130 131 162 164 129 130 162 164 161 162 130 131 131 132 163 165 130 131 163 165 162 164 131 132 132 133 164 166 131 132 164 166 163 165 132 133 133 134 165 167 132 133 165 167 164 166 133 134 134 135 166 168 133 134 166 168 165 167 134 135 135 136 167 169 134 135 167 169 166 168 135 136 136 137 168 170 135 136 168 170 167 169 136 137 137 138 169 171 136 137 169 171 168 170 137 138 138 139 170 172 137 138 170 172 169 171 138 139 139 140 171 173 138 139 171 173 170 172 139 140 140 141 172 174 139 140 172 174 171 173 140 141 141 142 173 175 140 141 173 175 172 174 141 142 142 143 174 176 141 142 174 176 173 175 142 143 143 144 175 177 142 143 175 177 174 176 143 144 144 145 176 178 143 144 176 178 175 177 144 145 145 146 177 179 144 145 177 179 176 178 145 146 146 147 178 180 145 146 178 180 177 179 146 147 147 148 179 181 146 147 179 181 178 180 147 148 148 149 180 182 147 148 180 182 179 181 148 149 149 150 181 183 148 149 181 183 180 182 149 150 150 151 182 184 149 150 182 184 181 183 150 151 151 152 183 185 150 151 183 185 182 184 151 152 152 153 184 186 151 152 184 186 183 185 152 153 153 154 185 187 152 153 185 187 184 186 153 154 154 155 186 188 153 154 186 188 185 187 154 155 155 156 187 189 154 155 187 189 186 188 155 156 156 157 188 190 155 156 188 190 187 189 156 157 157 158 189 191 156 157 189 191 188 190 157 158 158 159 190 192 157 158 190 192 189 191 158 159 159 160 191 193 158 159 191 193 190 192 159 160 128 129 160 163 159 160 160 163 191 193</p>
        </triangles>
        <triangles material="mat_red-material" count="12">
          <input semantic="VERTEX" source="#wheel-mesh-mesh-vertices" offset="0"/>
          <input semantic="NORMAL" source="#wheel-mesh-mesh-normals" offset="1"/>
          <p>194 194 195 195 196 196 194 194 196 196 197 197 198 198 200 199 199 200 198 198 201 201 200 199 194 194 197 197 201 201 194 194 201 201 198 198 195 195 199 200 200 199 195 195 200 199 196 196 194 194 198 198 199 200 194 194 199 200 195 195 197 197 196 196 200 199 197 197 200 199 201 201</p>
        </triangles>
      </mesh>
    </geometry>
  </library_geometries>
  <library_visual_scenes>
    <visual_scene id="Scene" name="Scene">
      <node id="wheel-node" name="wheel-node" type="NODE">
        <matrix sid="transform">1 0 0 0 0 1 0 0 0 0 1 0 0 0 0 1</matrix>
        <instance_geometry url="#wheel-mesh-mesh" name="wheel-node">
          <bind_material>
            <technique_common>
              <instance_material symbol="mat_black-material" target="#mat_black-material"/>
              <instance_material symbol="mat_gray-material" target="#mat_gray-material"/>
              <instance_material symbol="mat_red-material" target="#mat_red-material"/>
            </technique_common>
          </bind_material>
        </instance_geometry>
      </node>
      <node id="Camera" name="Camera" type="NODE">
        <matrix sid="transform">0.6859207 -0.3240135 0.6515582 7.358891 0.7276763 0.3054208 -0.6141704 -6.925791 0 0.8953956 0.4452714 4.958309 0 0 0 1</matrix>
        <instance_camera url="#Camera-camera"/>
      </node>
      <node id="Light" name="Light" type="NODE">
        <matrix sid="transform">-0.2908646 -0.7711008 0.5663932 4.076245 0.9551712 -0.1998834 0.2183912 1.005454 -0.05518906 0.6045247 0.7946723 5.903862 0 0 0 1</matrix>
        <instance_light url="#Light-light"/>
      </node>
    </visual_scene>
  </library_visual_scenes>
  <scene>
    <instance_visual_scene url="#Scene"/>
  </scene>
</COLLADA>
